<?xml version="1.0" encoding="utf-8"?>
<!-- Generator: Adobe Illustrator 18.1.1, SVG Export Plug-In . SVG Version: 6.00 Build 0)  -->
<svg version="1.1" id="Layer_1" xmlns="http://www.w3.org/2000/svg" xmlns:xlink="http://www.w3.org/1999/xlink" x="0px" y="0px"
	 width="9.1px" height="30px" viewBox="9.3 0 9.1 30" enable-background="new 9.3 0 9.1 30" xml:space="preserve">
<g id="Layer_2">
</g>
<g id="Layer_3">
	<path fill="#433022" d="M14.5,19c-0.4-1.2-0.5-2.5-0.5-3.8c0-0.2-0.1-0.3-0.2-0.4c0.3-0.3,0.1-1-0.4-1c0,0,0,0-0.1,0v-1
		c0-0.7-0.8-0.8-1.1-0.3c-0.3-0.1-0.6,0-0.8,0.2c-0.3-0.1-0.7,0-0.8,0.4c-0.4,1-0.3,2.1-0.1,3.2c0.1,0.8,0.3,1.6,0.4,2.3
		c-0.2,1.1-0.2,2.2-0.2,3.3c0,0.8,1.2,0.8,1.2,0c0-0.5,0-1,0-1.5c0,0.4,0.1,0.8,0.1,1.3c0,0.3,0.5,0.5,0.7,0.4
		c0.3-0.1,0.5-0.4,0.4-0.7c-0.1-0.8-0.2-1.6-0.1-2.4c0,0.1,0.1,0.3,0.1,0.4C13.6,20.1,14.8,19.8,14.5,19z"/>
	<path fill="#433022" d="M12.1,19.8c-0.1-0.1-0.1-0.3-0.2-0.5c0-1.1-0.1-2.1-0.2-3.2c0-0.3-0.3-0.6-0.6-0.6c-0.3,0-0.6,0.3-0.6,0.6
		c0,0.8,0.1,1.5,0.1,2.3c0,0.3,0,0.7,0.1,1c0,0.2,0,0.3,0,0.5c0,0.3,0.2,0.4,0.3,0.5C11.4,21.1,12.5,20.5,12.1,19.8z"/>
	<path fill="#735738" d="M17.8,19.8c-0.1-0.7-0.1-1.5-0.2-2.2c0-0.3,0.1-0.7,0-1c0-0.4-0.1-0.9-0.2-1.3c0.1-0.1,0.2-0.3,0.1-0.5
		c-0.1-0.5-0.2-0.9-0.3-1.4c0-0.5-0.1-1-0.3-1.5c-0.3-0.8-0.6-1.7-1.3-2.2c0,0-0.1,0-0.1-0.1c0-0.1-0.1-0.2-0.1-0.3
		c-0.1-0.3-0.1-0.6-0.1-0.8c0-0.4-0.4-0.6-0.8-0.6C13.9,8,13.2,8,12.4,8c-0.2,0-0.5,0.2-0.6,0.4c-0.1,0.5-0.1,0.9-0.1,1.4
		c0,0.1,0,0.1,0,0.2c-0.2,0.2-0.4,0.4-0.5,0.7c-0.2,0.1-0.4,0.3-0.6,0.5c-0.4,0.7-0.4,1.7-0.4,2.4c0,0.8,1.2,0.8,1.2,0c0,0,0,0,0,0
		c0.2,0.1,0.4,0.1,0.6,0.1c0.2,0,0.4,0,0.6,0c0,1,0.2,2,0.5,2.9c0.2,0.6,0.5,1.2,0.6,1.9c0,0.1,0,0.2,0,0.3c-0.1,0-0.2-0.1-0.4-0.1
		c-0.3,0-0.6,0.3-0.6,0.6c0,1.1,0.4,2,0.9,2.9c-0.4,0.1-0.9,0.2-1.2,0.5c-0.2,0.2-0.2,0.5-0.1,0.7c0,0,0,0,0,0
		c-0.1,0.1-0.2,0.2-0.3,0.4c-0.2,0.1-0.4,0.3-0.4,0.6c0,0.3,0.3,0.6,0.6,0.6c0.6,0,1.2,0,1.7,0c0.4,0,0.6-0.3,0.6-0.6
		c0.2,0.1,0.5,0.1,0.7,0c0.3-0.1,0.5-0.3,0.6-0.5c0.1-0.2,0.1-0.4,0-0.6c0,0-0.1-0.1-0.1-0.1c0,0,0-0.1,0.1-0.1
		c0.1-0.3-0.1-0.6-0.3-0.7c0.1-0.2,0.1-0.4,0-0.7c-0.2-0.4-0.3-0.7-0.5-1.1c0.1-0.1,0.1-0.1,0.2-0.2c0.2,0.3,0.6,0.3,0.8,0.1
		c0.1,0.4,0.2,0.9,0.7,1c0.4,0.1,0.7-0.2,0.8-0.6c0-0.3,0-0.5,0-0.8C17.7,20.2,17.8,20.1,17.8,19.8z"/>
	<path fill="#433022" d="M16.5,21.7c0-0.3-0.2-0.5-0.4-0.6c0-0.3-0.1-0.6-0.1-0.8c-0.1-0.3-0.4-0.5-0.7-0.4
		c-0.3,0.1-0.5,0.4-0.4,0.7c0.2,0.8,0.2,1.6,0.6,2.4c0.3,0.5,1.1,0.3,1.1-0.3C16.5,22.4,16.5,22,16.5,21.7z"/>
	<path fill="#433022" d="M17.6,21.6c0,0,0-0.1,0-0.1c0-0.1,0-0.2-0.1-0.3c0-0.1,0-0.1,0-0.2c0-0.3-0.1-0.5-0.4-0.6
		c-0.1,0-0.2-0.1-0.3-0.1c-0.2-0.1-0.4-0.2-0.6-0.1c-0.3,0.1-0.5,0.3-0.5,0.6c0,0.3,0.1,0.6,0.3,0.7c0,0,0,0.1,0.1,0.1
		c-0.1,0.2-0.4,0.4-0.6,0.6c-0.3,0.2-0.6,0.4-0.9,0.6c-0.1,0.1-0.3,0.2-0.4,0.2c0,0,0,0,0,0c0,0,0,0,0,0c0-0.2-0.1-0.4-0.1-0.6
		c-0.1-0.4-0.2-0.8-0.2-1.2c0-0.3-0.4-0.5-0.7-0.4c-0.1,0-0.2,0.1-0.3,0.1c-0.1-0.4-0.2-0.7-0.3-1.1c-0.2-0.7-1.2-0.5-1.2,0.2
		c0,0.6,0,1.2,0,1.7c-0.3,0-0.7,0.2-0.7,0.6c0,0.6,0.1,1.1,0.2,1.6c0,0.1-0.1,0.2-0.1,0.2c0,0.6,0.4,1,0.9,1.2c0.1,0,0.1,0,0.2,0
		c0.7,0.2,1.5,0.5,2.2,0.2c0.3-0.1,0.5-0.1,0.8-0.2c0.4,0,0.7-0.1,1.1-0.2c0.4-0.1,0.7-0.2,1-0.5c0.1-0.2,0.2-0.3,0.3-0.5
		c0.2-0.3,0.3-0.6,0.4-1C17.9,22.6,17.8,22.1,17.6,21.6z M12.8,24c0,0,0.1,0.1,0.1,0.1c-0.1,0-0.3,0-0.4,0c0-0.1,0.1-0.2,0.1-0.2
		C12.7,23.9,12.8,24,12.8,24z"/>
	<path fill="#735738" d="M15.2,8.2c0-0.2,0-0.3,0-0.5c0-0.2-0.1-0.4-0.2-0.5c0-0.1,0-0.2-0.1-0.2c-0.1-0.5-0.7-0.6-1-0.3
		c0,0,0,0,0,0c-0.3-0.1-0.7-0.1-0.9-0.1c-0.4,0.1-0.8,0.3-0.9,0.7c-0.2,0.4-0.1,0.8-0.1,1.1C11.9,8.9,12.3,9,12.6,9
		c0.3-0.1,0.5-0.4,0.4-0.7c0.2,0.2,0.4,0.3,0.7,0.3c0,0.3,0.3,0.5,0.6,0.5c0.3,0,0.5-0.2,0.6-0.5C15.1,8.6,15.2,8.4,15.2,8.2z"/>
	<path fill="#735738" d="M16.2,22c-0.5-0.2-1.1-0.4-1.6-0.6c-0.2-0.1-0.5-0.1-0.6-0.3c-0.1-0.1-0.1-0.4-0.2-0.5
		c-0.3-1.1-0.5-2.3-0.6-3.4c0-0.4-0.3-0.6-0.6-0.6c0-0.9,0-1.8,0-2.7c0-0.3-0.2-0.5-0.5-0.6c0-0.2,0-0.4,0-0.6c0-0.1,0-0.2,0-0.2
		c0-0.1,0-0.1,0-0.1c0,0,0-0.1,0-0.1c0,0,0,0,0,0c0,0,0,0,0,0c0,0,0,0,0,0c0.3-0.1,0.5-0.4,0.4-0.7c-0.1-0.3-0.4-0.5-0.7-0.4
		c-1,0.3-0.9,1.4-0.9,2.2c0,1,0.1,2,0.1,3c0.1,2.1,0.1,4.1,0.2,6.2c0,0.2,0.1,0.3,0.2,0.4c-0.1,0.1-0.2,0.2-0.3,0.3
		c0,0,0.1,0.1,0.1,0.1c0,0,0,0,0,0c0,0,0,0,0,0c0,0,0.1,0,0.1,0.1c0.1,0.1,0.2,0.1,0.2,0.2c0.1,0.1,0.2,0.2,0.3,0.3c0,0,0,0,0,0.1
		c0,0,0-0.1,0.1-0.1c0.3-0.4,0.7-0.7,1.2-0.8c0.9,0,1.9,0,2.8,0c0.3,0,0.6-0.2,0.6-0.5C16.7,22.4,16.5,22.1,16.2,22z"/>
	<path d="M15.6,25.5c0.1,0.1,0.2,0,0.3,0c-0.2,0.1-0.3,0.1-0.5,0.1c0,0-0.1,0-0.1,0c0-0.1,0.1,0,0.1-0.1c-0.1,0-0.2,0-0.2,0
		c-0.4,0.1-0.7,0.1-1.1,0.1c-0.4,0.1-0.9,0-1.3,0.1c-0.1,0-0.2,0-0.2,0c-0.1,0-0.2-0.1-0.2,0.1c0,0.1-0.2,0.1-0.3,0.1
		c0,0-0.1,0-0.1-0.1c-0.2-0.2-0.5-0.5-0.7-0.7c-0.3-0.3-0.3-0.7-0.4-1.1c-0.1-0.6-0.1-1.3-0.2-1.9c-0.1-0.9-0.1-1.8-0.2-2.7
		c-0.1-0.9,0-1.8-0.1-2.8c0-0.2-0.1-0.3-0.1-0.5c-0.1-0.9-0.2-1.7-0.2-2.6c0-0.7,0.1-1.3,0.1-2c0-0.1,0.1-0.2,0.2-0.3
		c0.1-0.2,0.2-0.5,0.4-0.7c0.1-0.1,0.2-0.2,0.4-0.3c0.2-0.1,0.3-0.3,0.3-0.5c0-0.9,0.1-1.7,0.3-2.6c0.1-0.5,0.1-1.1,0.1-1.6
		c0-0.4,0.1-0.8,0.5-1.1c0.2-0.1,0.4-0.1,0.6-0.2c0.6-0.1,1.1,0,1.6,0.2c0.1,0,0.1,0.1,0.1,0.1c0.1,0.1,0.2,0.2,0.2,0.2
		C15.1,5,15.2,5.1,15,5.3c-0.1,0.1-0.1,0.3-0.1,0.4c0.2,0.8,0.2,1.6,0.4,2.3c0.1,0.4,0.2,0.7,0.2,1.1c0,0.1,0.1,0.2,0.2,0.2
		c0.4,0.2,0.8,0.4,1,0.8c0.3,0.5,0.5,1.1,0.6,1.7c0.1,0.5,0.2,1.1,0.2,1.6c0,0.3,0,0.7,0.1,1c0.1,0.9,0.2,1.8,0.2,2.7
		c0.1,0.8,0,1.6,0,2.4c0,0.6,0,1.3,0,1.9c0,0.2,0,0.4,0.1,0.6c0,0.2,0,0.4,0,0.6c-0.1,0.5-0.1,0.9-0.1,1.4c0,0.1,0,0.2-0.2,0.2
		c-0.1,0-0.1,0.1-0.1,0.2c-0.1,0.2-0.2,0.4-0.4,0.5c-0.2,0.1-0.5,0.3-0.8,0.4c0,0-0.1,0-0.1,0C16,25.2,15.8,25.4,15.6,25.5z
		 M12.4,5.9C12.4,5.9,12.4,5.8,12.4,5.9c0-0.1,0-0.2,0-0.2c-0.1,0-0.2,0-0.2,0.1c0,0,0,0.1,0,0.1c0,0.7-0.1,1.4-0.2,2
		c0,0.2-0.1,0.4-0.1,0.6c-0.1,0.3,0,0.7-0.1,1c0,0.1,0,0.2,0,0.2c0.2,0,0.1,0.1,0,0.2c-0.1,0.1-0.1,0.3-0.2,0.3
		c-0.2,0.1-0.3,0.3-0.5,0.4c-0.3,0.3-0.6,0.6-0.7,1.1c-0.1,0.5-0.1,1-0.1,1.5c0,0.4,0,0.7,0.1,1.1c0.1,0.8,0.1,1.6,0.1,2.4
		c0,0.6,0,1.2,0.1,1.8c0,0.1,0,0.2,0.1,0.3c0.1-0.4,0-0.7,0.1-1.1c0,0.4,0,0.9,0,1.3c0,0,0,0,0,0c-0.1-0.1-0.1,0-0.1,0.1
		c0,0.1,0,0.2,0.1,0.3c0.1,0.1,0.1,0.1,0.1,0.2c0,0.6,0,1.2,0,1.8c0,0.7,0.1,1.4,0.2,2.2c0.1,0.5,0.2,1,0.7,1.3
		c0.1,0.1,0.2,0.1,0.3,0.2c0.3,0.1,0.7,0.1,1.1,0.2c0.5,0.1,1,0,1.5,0c0.8-0.1,1.5-0.3,2.3-0.6c0.3-0.1,0.5-0.3,0.6-0.6
		c0.1-0.4,0.1-0.8,0.1-1.1c0-1.4,0-2.8,0-4.2c0-0.6,0-1.2,0-1.9c0-0.5-0.1-1.1-0.2-1.6c-0.1-0.7-0.2-1.3-0.2-2c0-1-0.2-1.9-0.7-2.7
		c-0.3-0.5-0.6-0.9-1.1-1.1c-0.1,0-0.2-0.2-0.2-0.3c0.1,0,0.1-0.1,0.1-0.2c-0.1-0.5-0.2-1-0.3-1.5c-0.1-0.5-0.1-1.1-0.3-1.6
		c-0.1-0.2-0.1-0.2-0.3-0.1c-0.6,0.3-1.1,0.2-1.7,0.1C12.5,5.7,12.4,5.7,12.4,5.9z M12.5,5.3c0.1,0,0.2,0.1,0.3,0.1
		c0.4,0.2,0.8,0.2,1.3,0c0.1,0,0.2,0,0.3,0.1c0,0,0,0.1,0.1,0c0.1-0.1,0.1-0.2,0.1-0.3c0-0.1,0-0.2-0.2-0.2c-0.4,0-0.7-0.1-1.1,0
		c-0.1,0-0.3,0-0.4,0.2c0,0,0,0-0.1,0C12.7,5.2,12.6,5.2,12.5,5.3z M10.2,14.5c0-0.3,0-0.6,0-0.9c0,0,0,0-0.1,0
		C10.1,13.9,10.1,14.2,10.2,14.5z"/>
	<path d="M14.7,25.7c0.2,0,0.3,0,0.5-0.1C15.1,25.7,15,25.8,14.7,25.7z"/>
	<path d="M14.5,23c0.4,0,0.7,0.1,1.1,0.1c0,0,0.1,0,0.1,0c0.1,0,0.1,0.1,0.1,0.2c0,0.1-0.1,0.1-0.2,0.1c-0.3-0.1-0.7-0.1-1-0.1
		c-0.7,0-1.4,0.2-2,0.6c-0.1,0-0.1,0.1-0.2,0c-0.1-0.1,0-0.1,0-0.2c0.2-0.2,0.5-0.3,0.8-0.4C13.6,23.1,14,23,14.5,23z"/>
	<g>
		<g>
			<g>
				<g>
					<g>
						<path fill="#FFFFFF" d="M16.5,12.2C16.5,12.2,16.5,12.2,16.5,12.2C16.5,12.2,16.5,12.2,16.5,12.2z"/>
						<polygon fill="#FFFFFF" points="16.4,12.1 16.4,12.1 16.4,12.1 						"/>
						<path fill="#FFFFFF" d="M16.4,12C16.4,12.1,16.4,12.1,16.4,12L16.4,12L16.4,12C16.4,12.1,16.4,12.1,16.4,12z"/>
						<path fill="#FFFFFF" d="M16.5,12C16.4,12,16.4,12,16.5,12C16.5,12,16.5,12,16.5,12C16.5,12,16.5,12,16.5,12z"/>
						<path fill="#FFFFFF" d="M16.5,12C16.5,12,16.5,12,16.5,12L16.5,12z"/>
						<path fill="#FFFFFF" d="M16.4,12L16.4,12C16.5,12,16.5,12,16.4,12C16.5,12,16.5,12,16.4,12z"/>
						<path fill="#FFFFFF" d="M16.4,12L16.4,12C16.4,12,16.4,12,16.4,12z"/>
						<path fill="#FFFFFF" d="M16.4,12L16.4,12C16.4,12,16.4,12,16.4,12C16.4,12,16.4,12,16.4,12z"/>
						<path fill="#FFFFFF" d="M16.4,12C16.4,12,16.4,12,16.4,12C16.4,12,16.4,12,16.4,12z"/>
						<path fill="#FFFFFF" d="M16.4,12L16.4,12L16.4,12C16.3,12.1,16.4,12,16.4,12z"/>
						<path fill="#FFFFFF" d="M16.5,11.9C16.4,11.9,16.4,11.9,16.5,11.9L16.5,11.9C16.4,11.9,16.4,11.9,16.5,11.9z"/>
						<path fill="#FFFFFF" d="M16.4,11.9L16.4,11.9C16.4,11.9,16.4,11.9,16.4,11.9z"/>
						<path fill="#FFFFFF" d="M16.4,12L16.4,12L16.4,12z"/>
						<polygon fill="#FFFFFF" points="16.4,11.9 16.5,11.9 16.4,11.9 						"/>
						<path fill="#FFFFFF" d="M16.4,11.9C16.5,11.9,16.5,11.8,16.4,11.9C16.5,11.8,16.5,11.8,16.4,11.9
							C16.5,11.8,16.5,11.8,16.4,11.9z"/>
						<path fill="#FFFFFF" d="M16.4,11.8C16.4,11.8,16.4,11.8,16.4,11.8C16.4,11.8,16.4,11.8,16.4,11.8z"/>
						<path fill="#FFFFFF" d="M16.4,11.9C16.4,11.9,16.4,11.9,16.4,11.9L16.4,11.9C16.4,11.9,16.4,11.9,16.4,11.9z"/>
						<path fill="#FFFFFF" d="M16.4,11.9L16.4,11.9C16.4,11.9,16.4,11.9,16.4,11.9C16.4,11.9,16.4,11.9,16.4,11.9z"/>
						<path fill="#FFFFFF" d="M16.4,11.9L16.4,11.9C16.4,11.9,16.4,11.9,16.4,11.9z"/>
						<path fill="#FFFFFF" d="M16.4,11.9C16.4,11.9,16.4,11.9,16.4,11.9C16.4,12,16.4,11.9,16.4,11.9z"/>
						<path fill="#FFFFFF" d="M16.4,11.9L16.4,11.9C16.4,11.9,16.4,11.9,16.4,11.9L16.4,11.9z"/>
						<polygon fill="#FFFFFF" points="16.4,11.9 16.4,11.9 16.4,11.9 						"/>
						<path fill="#FFFFFF" d="M16.4,11.8C16.4,11.8,16.4,11.8,16.4,11.8C16.4,11.8,16.4,11.9,16.4,11.8
							C16.4,11.9,16.4,11.9,16.4,11.8z"/>
						<path fill="#FFFFFF" d="M16.4,11.9L16.4,11.9L16.4,11.9z"/>
						<path fill="#FFFFFF" d="M16.4,11.8L16.4,11.8L16.4,11.8L16.4,11.8z"/>
						<path fill="#FFFFFF" d="M16.4,11.9C16.4,11.9,16.4,11.9,16.4,11.9C16.4,11.9,16.4,11.9,16.4,11.9L16.4,11.9z"/>
						<path fill="#FFFFFF" d="M16.4,11.8C16.4,11.8,16.4,11.8,16.4,11.8C16.4,11.8,16.4,11.8,16.4,11.8z"/>
						<path fill="#FFFFFF" d="M16.4,11.9L16.4,11.9C16.4,11.9,16.4,11.9,16.4,11.9z"/>
						<path fill="#FFFFFF" d="M16.4,11.9C16.4,11.9,16.4,11.9,16.4,11.9C16.4,11.9,16.4,11.9,16.4,11.9
							C16.4,11.9,16.4,11.9,16.4,11.9z"/>
						<path fill="#FFFFFF" d="M16.2,11.8C16.3,11.8,16.3,11.8,16.2,11.8c0,0,0.1,0,0.1,0c0,0,0,0,0,0C16.3,11.8,16.3,11.8,16.2,11.8
							C16.3,11.8,16.3,11.8,16.2,11.8C16.3,11.8,16.3,11.8,16.2,11.8L16.2,11.8C16.3,11.8,16.2,11.8,16.2,11.8z"/>
						<path fill="#FFFFFF" d="M16.4,11.8L16.4,11.8C16.4,11.8,16.4,11.8,16.4,11.8C16.4,11.8,16.4,11.8,16.4,11.8L16.4,11.8
							L16.4,11.8z"/>
						<path fill="#FFFFFF" d="M16.4,11.8C16.4,11.8,16.4,11.8,16.4,11.8C16.3,11.8,16.4,11.8,16.4,11.8
							C16.4,11.8,16.4,11.8,16.4,11.8C16.4,11.8,16.4,11.8,16.4,11.8C16.4,11.8,16.4,11.8,16.4,11.8L16.4,11.8L16.4,11.8L16.4,11.8
							L16.4,11.8L16.4,11.8L16.4,11.8C16.4,11.8,16.4,11.8,16.4,11.8L16.4,11.8L16.4,11.8L16.4,11.8C16.4,11.8,16.4,11.8,16.4,11.8z
							"/>
						<path fill="#FFFFFF" d="M16.3,12C16.3,11.9,16.3,11.9,16.3,12C16.3,11.9,16.3,11.9,16.3,12z"/>
						<path fill="#FFFFFF" d="M16.3,11.9C16.3,11.9,16.3,11.9,16.3,11.9C16.3,11.9,16.3,11.9,16.3,11.9C16.3,11.9,16.3,12,16.3,11.9
							L16.3,11.9C16.3,11.9,16.4,11.9,16.3,11.9C16.3,11.9,16.3,11.9,16.3,11.9z"/>
						<path fill="#FFFFFF" d="M16.3,11.9L16.3,11.9L16.3,11.9L16.3,11.9C16.3,11.9,16.3,11.9,16.3,11.9z"/>
						<polygon fill="#FFFFFF" points="16.4,11.8 16.4,11.8 16.4,11.8 						"/>
						<polygon fill="#FFFFFF" points="16.4,11.8 16.4,11.8 16.4,11.8 						"/>
						<path fill="#FFFFFF" d="M15.7,10.7L15.7,10.7L15.7,10.7z"/>
						<path fill="#FFFFFF" d="M15.7,10.8L15.7,10.8C15.7,10.8,15.7,10.8,15.7,10.8z"/>
						<path fill="#FFFFFF" d="M16.2,11.2C16.2,11.2,16.3,11.2,16.2,11.2L16.2,11.2C16.2,11.2,16.2,11.2,16.2,11.2z"/>
						<path fill="#FFFFFF" d="M16,11L16,11C16,11,16,11,16,11C16,11,16,11,16,11z"/>
						<path fill="#FFFFFF" d="M15.9,11L15.9,11C15.9,11,15.9,11,15.9,11z"/>
						<path fill="#FFFFFF" d="M15.6,10.6L15.6,10.6C15.6,10.6,15.6,10.6,15.6,10.6z"/>
						<path fill="#FFFFFF" d="M16.3,11.5C16.3,11.5,16.3,11.5,16.3,11.5C16.3,11.5,16.3,11.5,16.3,11.5z"/>
						<path fill="#FFFFFF" d="M15.9,10.6C15.9,10.6,15.9,10.6,15.9,10.6C15.9,10.6,15.9,10.6,15.9,10.6z"/>
						<path fill="#FFFFFF" d="M16.3,11.5C16.3,11.5,16.3,11.5,16.3,11.5C16.3,11.5,16.3,11.5,16.3,11.5
							C16.3,11.5,16.3,11.5,16.3,11.5z"/>
						<path fill="#FFFFFF" d="M15.1,10.2L15.1,10.2L15.1,10.2z"/>
						<path fill="#FFFFFF" d="M15,9.9C15,9.9,15,9.9,15,9.9C15,9.9,15,9.9,15,9.9z"/>
						<path fill="#FFFFFF" d="M16.4,11.7L16.4,11.7L16.4,11.7z"/>
						<path fill="#FFFFFF" d="M16.3,11.7C16.3,11.7,16.3,11.7,16.3,11.7C16.3,11.7,16.3,11.7,16.3,11.7z"/>
						<path fill="#FFFFFF" d="M16.2,11.5L16.2,11.5C16.2,11.5,16.2,11.5,16.2,11.5z"/>
						<path fill="#FFFFFF" d="M16.4,11.7L16.4,11.7C16.4,11.7,16.4,11.7,16.4,11.7z"/>
						<path fill="#FFFFFF" d="M16.4,11.7L16.4,11.7C16.4,11.7,16.4,11.7,16.4,11.7z"/>
						<path fill="#FFFFFF" d="M16.4,11.7L16.4,11.7C16.4,11.7,16.4,11.7,16.4,11.7C16.4,11.7,16.4,11.7,16.4,11.7z"/>
						<path fill="#FFFFFF" d="M15.4,10.4L15.4,10.4C15.4,10.4,15.4,10.4,15.4,10.4z"/>
						<path fill="#FFFFFF" d="M16,11.2L16,11.2L16,11.2L16,11.2z"/>
						<path fill="#FFFFFF" d="M15.9,11.2C16,11.2,16,11.2,15.9,11.2L15.9,11.2L15.9,11.2z"/>
						<path fill="#FFFFFF" d="M15.6,10.7L15.6,10.7C15.6,10.7,15.6,10.7,15.6,10.7C15.6,10.7,15.6,10.8,15.6,10.7L15.6,10.7
							L15.6,10.7C15.6,10.8,15.7,10.7,15.6,10.7C15.7,10.7,15.7,10.7,15.6,10.7L15.6,10.7C15.7,10.8,15.7,10.8,15.6,10.7L15.6,10.7
							L15.6,10.7c0.1,0.1,0.1,0.1,0.1,0.1c0,0,0,0,0,0h0C15.8,10.8,15.7,10.8,15.6,10.7c0,0.1,0.1,0.1,0.1,0.1l0,0c0,0,0,0,0,0.1
							c0,0,0-0.1,0.1-0.1c0,0,0,0,0,0c0,0,0,0,0,0l0,0c0,0,0,0,0,0c0,0,0,0,0,0c0,0,0,0,0,0c0,0,0,0,0,0c0,0,0,0,0,0l0,0
							c0,0,0,0,0,0c0,0,0,0,0,0c0,0,0,0,0,0c0,0,0,0,0,0c0,0,0,0,0.1,0l0,0c0,0,0.1,0,0.1,0c0,0,0,0,0,0l0,0c0,0,0,0,0,0
							c0,0,0,0,0,0c0,0,0,0,0,0c0,0,0,0,0,0c0,0,0,0-0.1,0c0,0,0,0,0,0c0,0,0,0,0,0c0,0,0,0,0,0l0,0l0,0l0,0c0,0,0.1,0,0.1,0
							c0,0,0,0-0.1,0c0,0,0,0,0,0c0,0,0,0,0,0l0,0c0,0,0,0,0,0c0,0,0,0,0.1,0c0,0,0,0,0,0c0,0,0.1,0,0,0c0,0,0,0,0,0c0,0,0,0,0,0
							l0,0c0,0,0,0.1,0.1,0c0,0-0.1,0-0.1,0l0.2,0c0,0-0.1,0.1-0.1,0c0,0,0,0,0,0c0,0,0,0,0.1,0c0,0,0,0,0,0c0,0,0.1,0,0.1,0
							c0,0-0.1,0-0.1,0l0.1,0c0,0,0,0-0.1,0c0,0,0,0,0,0l0,0c0,0,0.1,0,0.1,0c0,0-0.1,0-0.1,0c0,0,0.1,0,0.2,0l0,0l0,0
							c0,0-0.1,0-0.2,0c0,0,0,0,0,0c0,0,0,0,0,0v0c0,0,0,0,0.1,0l0,0c0,0,0.1,0,0.1,0c0,0-0.1,0-0.1,0c0,0,0,0,0,0h0c0,0,0.1,0,0,0
							c0,0,0,0,0,0c0,0,0.2-0.1,0.2-0.1c0,0,0,0,0,0c0,0-0.1,0-0.1,0c0,0,0,0,0,0c0,0,0,0,0,0c0,0,0,0,0,0c0,0,0,0,0,0
							c0,0,0.1,0,0.1,0c0,0,0,0,0,0c0,0,0,0,0,0.1c0,0,0,0,0,0c0,0,0,0,0,0c0,0,0,0,0,0c0,0,0,0,0,0c0,0,0,0,0,0c0,0,0.1,0,0.1,0
							c0,0,0,0,0,0c0,0,0.1,0,0.1,0c0,0-0.1,0-0.1,0c0,0,0,0,0,0l0,0c0,0,0,0,0,0c0,0,0,0.1,0,0.1c0,0,0,0,0,0l0,0c0,0,0,0,0,0
							c0,0,0,0,0,0l0,0c0,0,0,0,0,0c0,0,0,0,0,0l0,0c0,0,0.1,0,0,0c0,0,0,0,0,0c0,0,0,0-0.1,0c0,0,0,0,0,0c0,0,0,0,0,0c0,0,0,0,0,0
							l0,0l0,0l0,0c0,0,0,0,0,0c0,0,0,0,0,0c0,0,0,0,0,0l0,0c0,0,0,0,0.1,0v0c0,0,0,0,0,0c0,0,0,0,0,0l0,0h0c0,0,0,0,0-0.1
							c0,0,0,0,0,0l0,0c0,0,0,0,0,0c0,0,0,0,0-0.1l0,0c0,0,0,0,0,0l0,0c0,0,0,0,0-0.1c0,0,0,0,0,0c0,0-0.1,0,0-0.1c0,0,0,0,0,0l0,0
							l0,0c0,0,0,0,0,0c0,0,0,0,0,0c0,0,0,0,0,0l0,0l0,0c0,0,0,0,0,0c0,0,0,0,0,0c0,0,0,0,0,0c0,0,0,0-0.1,0c0,0,0,0,0,0
							c0,0,0,0,0,0l0,0h0c0,0,0,0,0.1,0c0,0,0,0-0.1,0l0,0c0,0,0,0,0,0c0,0,0-0.1,0-0.1c-0.1,0,0,0,0,0c0,0,0,0,0,0c0,0,0,0,0,0
							c0,0,0,0,0,0c0,0,0,0,0,0c0,0,0,0,0,0c0,0-0.1,0-0.1,0c0,0,0,0,0,0c0,0,0,0,0,0c0,0,0,0,0,0c0,0,0,0,0,0c0,0,0,0,0,0l0,0
							c0,0,0,0,0,0h0c0,0,0,0,0,0l0,0c0,0,0,0,0,0l0,0c0,0,0.1-0.1,0.1-0.1c0,0,0,0,0,0c0,0,0,0,0,0c0,0,0,0,0,0c0,0-0.1,0,0,0
							c0,0,0,0,0,0c0,0,0-0.1,0,0c0,0,0,0,0,0c0,0,0,0-0.1,0c0.1-0.1-0.1,0,0-0.1l0,0l0,0c0,0,0,0,0,0c0,0,0,0,0,0c0,0,0,0-0.1,0
							l0,0c0,0,0-0.1,0-0.1c0,0,0,0,0,0c0,0,0-0.1-0.1,0l0,0c0,0,0,0,0,0c0,0,0,0,0,0v0c0,0,0,0,0-0.1c0,0-0.1-0.1-0.1-0.1l0,0l0,0
							c0,0,0,0,0,0c0,0,0,0,0,0c0,0,0,0,0,0l0,0v0c0,0,0,0,0,0c0,0,0,0,0,0c0,0,0,0,0,0l0,0l0,0c0,0,0,0,0,0c0-0.1-0.1-0.1,0-0.1
							c0,0,0,0,0,0c0,0,0,0,0,0c0-0.1,0,0,0-0.1c0,0,0,0,0,0c0,0,0,0,0,0c0,0,0,0-0.1,0c0,0,0,0,0,0l0,0c0,0,0,0,0,0c0,0,0,0,0,0
							c0,0-0.1,0-0.1,0c0,0-0.1,0-0.1-0.1c0,0,0,0,0,0c0,0,0,0,0,0l0,0c0,0,0,0,0,0l0,0c0,0,0,0.1,0,0.1c0,0,0,0.1,0,0c0,0,0,0,0,0
							c0,0,0,0,0,0v0c0,0,0,0,0.1,0.1l0,0c0,0,0,0,0,0c0,0,0,0,0,0c0,0.1,0,0,0,0.1c0,0,0,0,0,0l0,0l0,0c0,0,0,0,0,0h0c0,0,0,0,0,0
							l0,0c0,0,0.1,0,0.1,0l0,0c0,0,0,0,0,0l0,0c0,0,0,0,0,0c0,0,0,0,0,0c0,0,0,0,0.1,0l0,0c0,0,0,0,0,0c0,0,0,0,0,0c0,0,0.1,0,0,0
							c0,0,0,0,0,0c0,0,0,0,0,0c0,0,0,0.1,0,0.1h0c0,0,0,0,0,0c0,0,0,0,0,0l0,0c0,0,0.1,0,0.1,0c0,0,0,0,0,0c0,0,0,0,0,0
							c0,0,0,0-0.1,0c0,0,0,0,0,0c0,0,0,0,0,0l0,0c0,0,0,0,0,0l0,0c0,0,0,0,0,0c0,0,0,0,0,0c0,0,0,0.1,0,0.1c0,0,0,0,0,0
							c0,0,0,0,0,0c0,0,0,0,0,0c0,0,0,0,0,0l0,0c0,0,0,0,0,0l0,0h0l0,0c0,0,0,0,0,0c0,0,0,0,0,0c0,0,0,0,0,0c0,0,0,0,0,0
							c0,0,0,0,0,0c0,0,0,0,0,0c0,0,0,0,0,0l0,0c0,0,0,0,0,0c0,0,0,0,0,0c0,0,0,0,0,0h0c0,0,0,0,0,0C15.5,10.6,15.5,10.6,15.6,10.7
							c-0.1-0.1-0.1-0.1-0.1-0.1C15.6,10.6,15.6,10.6,15.6,10.7L15.6,10.7C15.6,10.7,15.6,10.6,15.6,10.7
							C15.6,10.6,15.6,10.6,15.6,10.7C15.6,10.6,15.6,10.6,15.6,10.7C15.6,10.7,15.6,10.7,15.6,10.7z M15.7,10.8
							C15.7,10.8,15.7,10.8,15.7,10.8C15.8,10.8,15.8,10.8,15.7,10.8z M15.9,11C15.9,11,15.9,11,15.9,11C15.9,11,15.9,11,15.9,11z
							 M16.3,11.6L16.3,11.6C16.3,11.6,16.3,11.6,16.3,11.6z M16.3,11.6C16.3,11.6,16.3,11.6,16.3,11.6
							C16.3,11.6,16.3,11.6,16.3,11.6C16.3,11.6,16.3,11.6,16.3,11.6z M15.5,10.2L15.5,10.2C15.5,10.2,15.5,10.2,15.5,10.2z"/>
						<path fill="#FFFFFF" d="M15.9,11C15.9,11,15.9,11,15.9,11C15.9,11,15.9,11,15.9,11z"/>
						<polygon fill="#FFFFFF" points="15.6,10.6 15.6,10.6 15.6,10.6 						"/>
						<path fill="#FFFFFF" d="M16.1,11.5C16.1,11.5,16.1,11.5,16.1,11.5C16.1,11.5,16.1,11.5,16.1,11.5z"/>
						<path fill="#FFFFFF" d="M16.4,11.7L16.4,11.7C16.4,11.7,16.4,11.7,16.4,11.7C16.4,11.7,16.4,11.7,16.4,11.7z"/>
						<path fill="#FFFFFF" d="M16.3,11.8L16.3,11.8L16.3,11.8C16.3,11.8,16.3,11.8,16.3,11.8z"/>
						<path fill="#FFFFFF" d="M16.3,11.7C16.3,11.7,16.3,11.8,16.3,11.7L16.3,11.7C16.3,11.8,16.3,11.7,16.3,11.7z"/>
						<path fill="#FFFFFF" d="M16.3,11.8L16.3,11.8C16.3,11.8,16.3,11.8,16.3,11.8z"/>
						<path fill="#FFFFFF" d="M16.4,11.7C16.3,11.7,16.4,11.7,16.4,11.7C16.4,11.7,16.3,11.6,16.4,11.7z"/>
						<polygon fill="#FFFFFF" points="16.2,11.8 16.3,11.8 16.3,11.8 						"/>
						<path fill="#FFFFFF" d="M16.3,11.7L16.3,11.7C16.3,11.7,16.3,11.7,16.3,11.7C16.3,11.7,16.3,11.7,16.3,11.7z"/>
						<path fill="#FFFFFF" d="M16.3,11.7C16.3,11.7,16.3,11.7,16.3,11.7C16.3,11.7,16.3,11.7,16.3,11.7z"/>
						<polygon fill="#FFFFFF" points="16.2,11.8 16.2,11.7 16.2,11.7 						"/>
						<path fill="#FFFFFF" d="M16.2,11.6L16.2,11.6C16.2,11.6,16.2,11.6,16.2,11.6C16.2,11.6,16.2,11.6,16.2,11.6z"/>
						<path fill="#FFFFFF" d="M16.2,11.6C16.2,11.6,16.2,11.6,16.2,11.6L16.2,11.6L16.2,11.6z"/>
						<path fill="#FFFFFF" d="M16.2,11.6C16.1,11.6,16.1,11.6,16.2,11.6C16.1,11.6,16.1,11.6,16.2,11.6z"/>
						<polygon fill="#FFFFFF" points="16.1,11.4 16.1,11.4 16.2,11.4 						"/>
						<path fill="#FFFFFF" d="M16,11.3C16,11.3,16,11.3,16,11.3C16,11.3,16,11.3,16,11.3C16,11.3,16,11.3,16,11.3z"/>
						<path fill="#FFFFFF" d="M16,11.3C16,11.3,16,11.3,16,11.3C16,11.3,16,11.3,16,11.3z"/>
						<polygon fill="#FFFFFF" points="14.9,9.9 14.9,9.9 14.9,9.9 						"/>
						<path fill="#FFFFFF" d="M14.9,9.9L14.9,9.9L14.9,9.9C14.9,9.9,14.9,9.9,14.9,9.9z"/>
						<path fill="#FFFFFF" d="M15.7,10.9L15.7,10.9C15.7,10.9,15.7,10.9,15.7,10.9L15.7,10.9z"/>
						<polygon fill="#FFFFFF" points="15.7,10.8 15.7,10.8 15.7,10.7 						"/>
						<path fill="#FFFFFF" d="M15.6,10.7C15.6,10.7,15.6,10.7,15.6,10.7C15.6,10.7,15.6,10.7,15.6,10.7z"/>
					</g>
				</g>
			</g>
		</g>
	</g>
	<g>
		<g>
			<g>
				<g>
					<g>
						<path fill="#FFFFFF" d="M14.5,8.7C14.5,8.7,14.5,8.7,14.5,8.7C14.5,8.7,14.5,8.7,14.5,8.7z"/>
						<polygon fill="#FFFFFF" points="14.4,8.7 14.4,8.7 14.4,8.7 						"/>
						<path fill="#FFFFFF" d="M14.4,8.6C14.4,8.6,14.4,8.6,14.4,8.6L14.4,8.6L14.4,8.6C14.4,8.6,14.4,8.6,14.4,8.6z"/>
						<path fill="#FFFFFF" d="M14.5,8.6C14.5,8.6,14.5,8.6,14.5,8.6L14.5,8.6L14.5,8.6z"/>
						<path fill="#FFFFFF" d="M14.5,8.6C14.5,8.6,14.5,8.6,14.5,8.6L14.5,8.6z"/>
						<path fill="#FFFFFF" d="M14.5,8.6L14.5,8.6C14.5,8.6,14.5,8.5,14.5,8.6C14.5,8.5,14.5,8.6,14.5,8.6z"/>
						<path fill="#FFFFFF" d="M14.4,8.6L14.4,8.6C14.4,8.6,14.4,8.6,14.4,8.6z"/>
						<path fill="#FFFFFF" d="M14.5,8.6L14.5,8.6C14.4,8.6,14.4,8.6,14.5,8.6C14.4,8.6,14.4,8.6,14.5,8.6z"/>
						<path fill="#FFFFFF" d="M14.4,8.6C14.4,8.6,14.4,8.6,14.4,8.6C14.4,8.6,14.5,8.6,14.4,8.6z"/>
						<path fill="#FFFFFF" d="M14.4,8.6L14.4,8.6L14.4,8.6C14.4,8.6,14.4,8.6,14.4,8.6z"/>
						<path fill="#FFFFFF" d="M14.5,8.5C14.5,8.5,14.4,8.5,14.5,8.5L14.5,8.5C14.5,8.5,14.5,8.5,14.5,8.5z"/>
						<path fill="#FFFFFF" d="M14.4,8.5L14.4,8.5C14.4,8.5,14.4,8.5,14.4,8.5z"/>
						<polygon fill="#FFFFFF" points="14.4,8.6 14.4,8.6 14.4,8.6 						"/>
						<polygon fill="#FFFFFF" points="14.5,8.5 14.5,8.5 14.4,8.5 						"/>
						<path fill="#FFFFFF" d="M14.4,8.5C14.5,8.5,14.5,8.5,14.4,8.5C14.5,8.5,14.5,8.5,14.4,8.5C14.5,8.5,14.5,8.5,14.4,8.5z"/>
						<path fill="#FFFFFF" d="M14.4,8.5C14.4,8.5,14.4,8.5,14.4,8.5C14.4,8.5,14.4,8.5,14.4,8.5z"/>
						<path fill="#FFFFFF" d="M14.4,8.5C14.4,8.5,14.4,8.5,14.4,8.5L14.4,8.5L14.4,8.5z"/>
						<path fill="#FFFFFF" d="M14.4,8.5L14.4,8.5C14.4,8.5,14.4,8.5,14.4,8.5C14.4,8.5,14.4,8.5,14.4,8.5z"/>
						<path fill="#FFFFFF" d="M14.4,8.5L14.4,8.5C14.4,8.5,14.4,8.5,14.4,8.5z"/>
						<path fill="#FFFFFF" d="M14.4,8.6C14.4,8.6,14.4,8.6,14.4,8.6C14.4,8.6,14.4,8.6,14.4,8.6z"/>
						<path fill="#FFFFFF" d="M14.4,8.5L14.4,8.5C14.4,8.5,14.4,8.5,14.4,8.5L14.4,8.5z"/>
						<polygon fill="#FFFFFF" points="14.4,8.5 14.4,8.5 14.4,8.5 						"/>
						<path fill="#FFFFFF" d="M14.4,8.5C14.4,8.5,14.4,8.5,14.4,8.5C14.4,8.5,14.4,8.5,14.4,8.5C14.4,8.5,14.4,8.5,14.4,8.5z"/>
						<path fill="#FFFFFF" d="M14.4,8.5L14.4,8.5L14.4,8.5z"/>
						<path fill="#FFFFFF" d="M14.4,8.4C14.4,8.4,14.4,8.4,14.4,8.4L14.4,8.4L14.4,8.4z"/>
						<path fill="#FFFFFF" d="M14.4,8.5C14.4,8.5,14.4,8.5,14.4,8.5C14.4,8.5,14.4,8.5,14.4,8.5S14.4,8.5,14.4,8.5z"/>
						<path fill="#FFFFFF" d="M14.4,8.5C14.4,8.5,14.4,8.5,14.4,8.5C14.4,8.5,14.4,8.5,14.4,8.5z"/>
						<path fill="#FFFFFF" d="M14.4,8.5L14.4,8.5C14.4,8.5,14.4,8.5,14.4,8.5z"/>
						<path fill="#FFFFFF" d="M14.4,8.5C14.4,8.5,14.4,8.5,14.4,8.5C14.4,8.5,14.4,8.5,14.4,8.5C14.4,8.5,14.4,8.5,14.4,8.5z"/>
						<path fill="#FFFFFF" d="M14.3,8.5C14.3,8.5,14.3,8.5,14.3,8.5c0,0,0.1,0,0.1,0c0,0,0,0,0,0C14.3,8.5,14.3,8.5,14.3,8.5
							C14.3,8.5,14.3,8.5,14.3,8.5C14.3,8.5,14.3,8.5,14.3,8.5L14.3,8.5C14.3,8.5,14.3,8.5,14.3,8.5z"/>
						<path fill="#FFFFFF" d="M14.4,8.5L14.4,8.5C14.4,8.5,14.4,8.5,14.4,8.5C14.4,8.4,14.4,8.4,14.4,8.5L14.4,8.5L14.4,8.5z"/>
						<path fill="#FFFFFF" d="M14.4,8.5C14.4,8.5,14.4,8.5,14.4,8.5C14.3,8.5,14.4,8.5,14.4,8.5C14.4,8.5,14.4,8.5,14.4,8.5
							L14.4,8.5C14.4,8.5,14.4,8.5,14.4,8.5L14.4,8.5L14.4,8.5L14.4,8.5L14.4,8.5L14.4,8.5C14.4,8.5,14.4,8.5,14.4,8.5
							C14.4,8.5,14.4,8.5,14.4,8.5L14.4,8.5L14.4,8.5L14.4,8.5C14.4,8.5,14.4,8.5,14.4,8.5z"/>
						<path fill="#FFFFFF" d="M14.3,8.6L14.3,8.6L14.3,8.6z"/>
						<path fill="#FFFFFF" d="M14.3,8.6C14.3,8.6,14.3,8.6,14.3,8.6C14.3,8.6,14.3,8.6,14.3,8.6C14.3,8.6,14.3,8.6,14.3,8.6
							L14.3,8.6C14.3,8.6,14.4,8.5,14.3,8.6C14.4,8.5,14.3,8.6,14.3,8.6z"/>
						<path fill="#FFFFFF" d="M14.4,8.5L14.4,8.5L14.4,8.5L14.4,8.5C14.3,8.5,14.3,8.5,14.4,8.5z"/>
						<polygon fill="#FFFFFF" points="14.4,8.4 14.4,8.4 14.4,8.4 						"/>
						<polygon fill="#FFFFFF" points="14.4,8.4 14.4,8.4 14.4,8.4 						"/>
						<path fill="#FFFFFF" d="M13.9,7.7L13.9,7.7C13.9,7.7,13.9,7.7,13.9,7.7z"/>
						<path fill="#FFFFFF" d="M13.9,7.7L13.9,7.7C14,7.7,13.9,7.7,13.9,7.7z"/>
						<path fill="#FFFFFF" d="M14.3,8.1C14.3,8.1,14.3,8.1,14.3,8.1L14.3,8.1C14.3,8.1,14.3,8.1,14.3,8.1z"/>
						<path fill="#FFFFFF" d="M14.1,7.9C14.1,7.9,14.1,7.9,14.1,7.9C14.1,7.9,14.1,7.9,14.1,7.9C14.1,7.9,14.1,7.9,14.1,7.9z"/>
						<path fill="#FFFFFF" d="M14,7.9L14,7.9C14,7.9,14,7.9,14,7.9z"/>
						<path fill="#FFFFFF" d="M13.9,7.5L13.9,7.5C13.9,7.5,13.9,7.5,13.9,7.5z"/>
						<path fill="#FFFFFF" d="M14.3,8.3C14.3,8.3,14.4,8.3,14.3,8.3C14.3,8.3,14.3,8.3,14.3,8.3z"/>
						<path fill="#FFFFFF" d="M14.2,7.6C14.2,7.6,14.2,7.6,14.2,7.6C14.2,7.6,14.2,7.6,14.2,7.6z"/>
						<path fill="#FFFFFF" d="M14.3,8.3L14.3,8.3C14.3,8.3,14.4,8.3,14.3,8.3C14.4,8.3,14.4,8.3,14.3,8.3z"/>
						<path fill="#FFFFFF" d="M13.9,7C13.9,7,13.9,7,13.9,7L13.9,7z"/>
						<path fill="#FFFFFF" d="M14.1,6.9L14.1,6.9C14.1,6.9,14.1,6.9,14.1,6.9z"/>
						<path fill="#FFFFFF" d="M14.4,8.4C14.4,8.4,14.4,8.4,14.4,8.4L14.4,8.4z"/>
						<path fill="#FFFFFF" d="M14.3,8.4C14.3,8.4,14.3,8.4,14.3,8.4C14.3,8.4,14.3,8.4,14.3,8.4z"/>
						<path fill="#FFFFFF" d="M14.2,8.3L14.2,8.3C14.2,8.3,14.2,8.3,14.2,8.3z"/>
						<path fill="#FFFFFF" d="M14.4,8.4L14.4,8.4C14.4,8.4,14.4,8.4,14.4,8.4z"/>
						<path fill="#FFFFFF" d="M14.4,8.4C14.4,8.4,14.4,8.4,14.4,8.4C14.4,8.4,14.4,8.4,14.4,8.4z"/>
						<path fill="#FFFFFF" d="M14.4,8.4L14.4,8.4C14.4,8.4,14.4,8.4,14.4,8.4C14.4,8.4,14.4,8.4,14.4,8.4z"/>
						<path fill="#FFFFFF" d="M14,7.3C14,7.3,14,7.3,14,7.3C14,7.3,14,7.3,14,7.3z"/>
						<path fill="#FFFFFF" d="M14,8.1L14,8.1L14,8.1L14,8.1z"/>
						<path fill="#FFFFFF" d="M14,8C14,8,14,8,14,8L14,8L14,8z"/>
						<path fill="#FFFFFF" d="M13.9,7.6L13.9,7.6C13.9,7.6,13.9,7.6,13.9,7.6C13.9,7.6,13.9,7.6,13.9,7.6L13.9,7.6
							C13.9,7.6,13.9,7.6,13.9,7.6C13.9,7.6,14,7.6,13.9,7.6C14,7.6,13.9,7.7,13.9,7.6L13.9,7.6C14,7.7,13.9,7.7,13.9,7.6L13.9,7.6
							L13.9,7.6C14,7.7,14,7.7,13.9,7.6C14,7.7,14,7.7,13.9,7.6L13.9,7.6C14,7.7,14,7.7,13.9,7.6c0,0.1,0,0.1,0,0.1l0,0c0,0,0,0,0,0
							c0,0,0.1,0,0.1,0c0,0,0,0,0,0c0,0,0,0,0,0l0,0c0,0,0,0,0,0c0,0,0,0,0,0c0,0,0,0,0,0c0,0,0,0,0,0c0,0,0,0,0,0h0c0,0,0,0,0,0
							c0,0,0,0,0,0c0,0-0.1,0,0,0c0,0,0,0,0,0c0,0,0,0,0.1,0l0,0c0,0,0.1,0,0.1,0c0,0,0,0,0,0l0,0c0,0,0,0,0,0c0,0,0,0,0,0
							c0,0,0,0,0,0c0,0,0,0,0,0c0,0,0,0-0.1,0c0,0,0,0,0,0c0,0,0,0,0,0c0,0,0,0,0,0l0,0h0l0,0c0,0,0.1,0,0.1,0c0,0,0,0-0.1,0
							c0,0,0,0,0,0c0,0,0,0,0,0l0,0c0,0,0,0,0,0c0.1,0,0,0,0.1,0c0,0,0,0,0,0c0,0,0.1,0,0,0c0,0,0,0,0,0c0,0,0,0,0,0l0,0
							c0,0,0,0,0.1,0c0,0-0.1,0-0.1,0l0.2,0c0,0-0.1,0-0.1,0c0,0,0,0,0,0c0,0,0.1,0,0.1,0c0,0,0,0-0.1,0c0,0,0.1,0,0.1,0
							c0,0-0.1,0-0.1,0h0.1c0,0,0,0-0.1,0c0,0,0,0,0,0l0,0c0,0,0.1,0,0.1,0c0,0-0.1,0-0.1,0c0,0,0.1,0,0.2,0l0,0l0,0
							c0,0-0.1,0-0.2,0c0,0,0,0,0,0c0,0,0,0,0,0l0,0c0,0,0,0,0.1,0l0,0c0,0,0.1,0,0.1,0c0,0-0.1,0-0.1,0c0,0,0,0,0,0h0c0,0,0,0,0,0
							c0,0,0,0,0,0c0,0,0.2,0,0.2-0.1c0,0,0,0-0.1,0c0,0-0.1,0-0.1,0c0,0,0,0,0,0c0,0,0,0,0,0c0,0,0,0,0,0c0,0,0,0,0,0
							c0,0,0.1,0,0.1,0c0,0,0,0,0,0c0,0,0,0,0,0c0,0,0,0,0,0c0,0,0,0,0,0c0,0,0,0,0,0c0,0,0,0,0,0c0,0,0,0,0,0c0,0,0.1,0,0.1,0
							c0,0,0,0,0,0c0,0,0.1,0,0.1,0c0,0-0.1,0-0.1,0c0,0,0,0,0,0l0,0c0,0,0,0,0,0c0,0,0,0,0,0.1c0,0,0,0,0,0l0,0c0,0,0,0,0,0
							c0,0,0,0,0,0l0,0c0,0,0,0,0,0c0,0,0,0,0,0l0,0c0,0,0.1,0,0,0c0,0,0,0,0,0c0,0,0,0,0,0c0,0,0,0,0,0c0,0,0,0,0,0c0,0,0,0,0,0
							l0,0l0,0l0,0c0,0,0,0,0,0c0,0,0,0,0,0c0,0,0,0,0,0h0c0,0,0,0,0.1,0v0c0,0,0,0,0,0c0,0,0,0,0,0l0,0h0c0,0,0,0,0,0c0,0,0,0,0,0
							l0,0c0,0,0,0,0,0c0.1,0,0,0,0,0l0,0c0,0,0,0,0,0l0,0c0,0,0,0,0,0c0,0,0,0,0,0c0,0,0,0,0,0c0,0,0,0,0,0l0,0l0,0c0,0,0,0,0,0
							c0,0,0,0,0,0s0,0,0,0l0,0l0,0c0,0,0,0,0,0c0,0,0,0,0,0c0,0,0,0,0,0c0,0,0,0-0.1,0c0,0,0,0,0,0c0,0,0,0,0,0l0,0h0
							c0,0,0,0,0.1,0c0,0,0,0-0.1,0l0,0c0,0,0,0,0,0c0,0,0,0,0-0.1c-0.1,0,0,0,0,0c0,0,0,0,0,0c0,0,0,0,0,0c0,0,0,0,0,0c0,0,0,0,0,0
							c0,0,0,0,0,0c0,0,0,0-0.1,0c0,0,0,0,0,0c0,0,0,0,0,0c0,0,0,0,0,0c0,0,0,0,0,0c0,0,0,0,0,0l0,0c0,0,0,0,0,0h0c0,0,0,0,0,0l0,0
							c-0.1,0,0,0,0,0l0,0c0,0,0.1,0,0.1,0c0,0,0,0,0,0c0,0,0,0,0,0c0,0,0,0,0,0c0,0-0.1,0,0,0c0,0,0,0,0,0c0,0,0,0,0,0c0,0,0,0,0,0
							c0,0,0,0,0,0c0.1,0,0,0,0,0l0,0h0c0,0,0,0,0,0c0,0,0,0,0,0c0,0,0,0,0,0l0,0c0,0,0,0,0,0c0,0,0,0,0,0c0,0,0.1-0.1,0,0l0,0
							c0,0,0,0-0.1,0c0,0,0,0,0,0h0c0,0,0,0,0,0c0,0,0-0.1,0-0.1l0,0v0c0,0,0,0,0,0c0,0,0,0,0,0c0,0,0,0,0,0l0,0h0c0,0,0,0,0,0
							c0,0,0,0,0,0s0,0,0,0v0l0,0c0,0,0,0,0,0c0.1,0,0,0,0-0.1c0,0,0,0,0,0c0,0,0,0,0,0c0.1,0,0,0,0.1,0c0,0,0,0-0.1,0c0,0,0,0,0,0
							c0,0,0,0,0-0.1c0,0,0,0,0,0l0,0c0,0-0.1,0,0,0c0,0,0,0,0,0c0,0,0-0.1,0-0.1c0,0,0,0,0,0c0,0,0,0,0,0l0,0c0,0,0,0,0,0l0,0
							c0,0-0.1,0-0.1,0c0,0-0.1,0,0,0c0,0,0,0,0,0c0,0,0,0,0,0h0c0,0,0,0,0,0.1h0c0,0,0,0,0,0c0,0,0,0,0,0c-0.1,0,0,0-0.1,0
							c0,0,0,0,0,0h0h0c0,0,0,0,0,0l0,0c0,0,0,0,0,0l0,0c0,0,0,0.1,0,0.1h0c0,0,0,0,0,0h0c0,0,0,0,0,0c0,0,0,0,0,0c0,0,0,0,0.1,0
							l0,0c0,0,0,0,0,0c0,0,0,0-0.1,0c0,0,0,0,0,0c0.1,0,0,0,0,0c0,0,0,0,0,0c0,0-0.1,0-0.1,0c0,0,0,0,0,0c0,0,0,0,0,0c0,0,0,0,0,0
							l0,0c0,0,0.1,0,0,0c0,0,0,0,0,0c0,0,0,0,0,0c0,0,0,0,0,0c0,0,0,0,0,0c0.1,0,0,0,0,0h0c0,0,0,0,0,0l0,0c0,0,0,0,0,0
							c0,0,0,0,0,0c0,0-0.1,0-0.1,0c0,0,0,0,0,0c0,0,0,0,0,0c0,0,0,0,0,0c0,0,0,0,0,0h0c0,0,0.1,0,0,0l0,0l0,0h0c0,0,0,0,0,0
							c0,0,0,0,0,0c0,0,0,0,0,0c0,0,0,0,0,0c0,0,0,0,0,0c0,0,0,0,0,0c0,0,0,0,0,0l0,0c0,0,0,0,0,0c0,0,0,0,0,0c0,0,0,0-0.1,0l0,0
							c0,0,0,0,0,0C13.9,7.5,13.9,7.5,13.9,7.6C13.9,7.5,13.9,7.5,13.9,7.6C13.9,7.5,13.9,7.6,13.9,7.6L13.9,7.6
							C13.9,7.6,14,7.6,13.9,7.6C14,7.6,13.9,7.6,13.9,7.6C13.9,7.6,14,7.6,13.9,7.6C13.9,7.6,13.9,7.6,13.9,7.6z M14,7.7
							C14,7.7,13.9,7.7,14,7.7C14,7.7,14,7.7,14,7.7z M14.1,7.9C14.1,7.9,14.1,7.9,14.1,7.9C14.1,7.9,14.1,7.9,14.1,7.9z M14.4,8.3
							C14.4,8.3,14.4,8.3,14.4,8.3C14.4,8.3,14.4,8.3,14.4,8.3z M14.3,8.4C14.4,8.4,14.4,8.4,14.3,8.4C14.4,8.3,14.4,8.3,14.3,8.4
							C14.3,8.4,14.3,8.4,14.3,8.4z M14.1,7.2L14.1,7.2C14.1,7.2,14.1,7.2,14.1,7.2z"/>
						<path fill="#FFFFFF" d="M14,7.9C14,7.9,14,7.9,14,7.9C14,7.9,14,7.9,14,7.9z"/>
						<polygon fill="#FFFFFF" points="13.9,7.5 13.9,7.5 13.9,7.5 						"/>
						<path fill="#FFFFFF" d="M14.1,8.3C14.1,8.2,14.1,8.2,14.1,8.3C14.1,8.2,14.1,8.2,14.1,8.3z"/>
						<path fill="#FFFFFF" d="M14.4,8.4L14.4,8.4C14.4,8.4,14.4,8.4,14.4,8.4C14.4,8.4,14.4,8.4,14.4,8.4z"/>
						<path fill="#FFFFFF" d="M14.3,8.5L14.3,8.5L14.3,8.5C14.3,8.5,14.3,8.5,14.3,8.5z"/>
						<path fill="#FFFFFF" d="M14.3,8.4C14.3,8.4,14.3,8.4,14.3,8.4L14.3,8.4C14.4,8.4,14.3,8.4,14.3,8.4z"/>
						<path fill="#FFFFFF" d="M14.3,8.4C14.3,8.4,14.3,8.4,14.3,8.4C14.3,8.4,14.3,8.4,14.3,8.4z"/>
						<path fill="#FFFFFF" d="M14.4,8.4C14.4,8.4,14.4,8.4,14.4,8.4C14.4,8.4,14.3,8.4,14.4,8.4z"/>
						<polygon fill="#FFFFFF" points="14.3,8.5 14.3,8.4 14.3,8.4 						"/>
						<path fill="#FFFFFF" d="M14.3,8.4L14.3,8.4C14.3,8.4,14.3,8.4,14.3,8.4C14.3,8.4,14.3,8.4,14.3,8.4z"/>
						<path fill="#FFFFFF" d="M14.3,8.4C14.3,8.4,14.3,8.4,14.3,8.4C14.3,8.4,14.3,8.4,14.3,8.4z"/>
						<polygon fill="#FFFFFF" points="14.3,8.4 14.3,8.4 14.3,8.4 						"/>
						<path fill="#FFFFFF" d="M14.2,8.3L14.2,8.3C14.2,8.3,14.2,8.3,14.2,8.3C14.2,8.3,14.2,8.3,14.2,8.3z"/>
						<path fill="#FFFFFF" d="M14.2,8.4C14.2,8.4,14.2,8.4,14.2,8.4L14.2,8.4L14.2,8.4z"/>
						<path fill="#FFFFFF" d="M14.2,8.4C14.2,8.4,14.1,8.3,14.2,8.4C14.2,8.4,14.2,8.4,14.2,8.4z"/>
						<polygon fill="#FFFFFF" points="14.2,8.2 14.2,8.2 14.2,8.2 						"/>
						<path fill="#FFFFFF" d="M14,8.1C14,8.1,14.1,8.1,14,8.1C14.1,8.1,14.1,8.1,14,8.1C14.1,8.1,14.1,8.1,14,8.1z"/>
						<path fill="#FFFFFF" d="M14.1,8.1C14.1,8.1,14.1,8.1,14.1,8.1C14.1,8.1,14.1,8.1,14.1,8.1z"/>
						<polygon fill="#FFFFFF" points="14.2,6.9 14.2,6.9 14.2,6.9 						"/>
						<path fill="#FFFFFF" d="M14.1,6.8L14.1,6.8L14.1,6.8C14.1,6.8,14.1,6.8,14.1,6.8z"/>
						<path fill="#FFFFFF" d="M13.9,7.7L13.9,7.7C13.9,7.7,13.9,7.7,13.9,7.7L13.9,7.7z"/>
						<polygon fill="#FFFFFF" points="13.9,7.7 13.9,7.7 13.9,7.7 						"/>
						<path fill="#FFFFFF" d="M13.9,7.6C13.9,7.6,13.9,7.6,13.9,7.6C13.9,7.6,13.9,7.6,13.9,7.6z"/>
					</g>
				</g>
			</g>
		</g>
	</g>
	<g>
		<g>
			<g>
				<g>
					<g>
						<path fill="#FFFFFF" d="M15.5,24.2C15.6,24.2,15.5,24.2,15.5,24.2C15.5,24.2,15.6,24.2,15.5,24.2z"/>
						<polygon fill="#FFFFFF" points="15.5,24.3 15.5,24.3 15.5,24.3 						"/>
						<path fill="#FFFFFF" d="M15.4,24.3C15.4,24.3,15.4,24.3,15.4,24.3L15.4,24.3L15.4,24.3C15.4,24.3,15.4,24.3,15.4,24.3z"/>
						<path fill="#FFFFFF" d="M15.3,24.2C15.3,24.3,15.3,24.3,15.3,24.2C15.4,24.2,15.4,24.2,15.3,24.2
							C15.3,24.2,15.3,24.2,15.3,24.2z"/>
						<path fill="#FFFFFF" d="M15.4,24.2C15.4,24.2,15.3,24.2,15.4,24.2L15.4,24.2z"/>
						<path fill="#FFFFFF" d="M15.3,24.3L15.3,24.3C15.3,24.2,15.3,24.2,15.3,24.3C15.3,24.2,15.3,24.3,15.3,24.3z"/>
						<path fill="#FFFFFF" d="M15.3,24.3L15.3,24.3C15.3,24.3,15.3,24.3,15.3,24.3z"/>
						<path fill="#FFFFFF" d="M15.3,24.3L15.3,24.3C15.3,24.3,15.3,24.3,15.3,24.3C15.3,24.3,15.3,24.3,15.3,24.3z"/>
						<path fill="#FFFFFF" d="M15.3,24.3C15.3,24.3,15.4,24.3,15.3,24.3C15.4,24.3,15.4,24.3,15.3,24.3z"/>
						<path fill="#FFFFFF" d="M15.4,24.3L15.4,24.3L15.4,24.3C15.4,24.3,15.4,24.3,15.4,24.3z"/>
						<path fill="#FFFFFF" d="M15.2,24.3C15.2,24.3,15.3,24.3,15.2,24.3L15.2,24.3C15.3,24.3,15.2,24.3,15.2,24.3z"/>
						<path fill="#FFFFFF" d="M15.3,24.3L15.3,24.3C15.3,24.3,15.3,24.3,15.3,24.3z"/>
						<path fill="#FFFFFF" d="M15.3,24.3L15.3,24.3L15.3,24.3z"/>
						<polygon fill="#FFFFFF" points="15.2,24.3 15.2,24.3 15.2,24.3 						"/>
						<path fill="#FFFFFF" d="M15.2,24.3C15.2,24.3,15.2,24.3,15.2,24.3C15.2,24.3,15.1,24.3,15.2,24.3
							C15.2,24.3,15.2,24.3,15.2,24.3z"/>
						<path fill="#FFFFFF" d="M15.1,24.3C15.1,24.3,15.1,24.3,15.1,24.3C15.1,24.3,15.1,24.3,15.1,24.3z"/>
						<path fill="#FFFFFF" d="M15.2,24.3C15.2,24.3,15.2,24.3,15.2,24.3L15.2,24.3C15.2,24.3,15.2,24.3,15.2,24.3z"/>
						<path fill="#FFFFFF" d="M15.2,24.3L15.2,24.3C15.2,24.3,15.2,24.3,15.2,24.3C15.2,24.3,15.2,24.3,15.2,24.3z"/>
						<path fill="#FFFFFF" d="M15.2,24.3L15.2,24.3L15.2,24.3z"/>
						<path fill="#FFFFFF" d="M15.3,24.3C15.3,24.3,15.3,24.4,15.3,24.3C15.3,24.4,15.3,24.3,15.3,24.3z"/>
						<path fill="#FFFFFF" d="M15.2,24.3L15.2,24.3C15.3,24.3,15.3,24.3,15.2,24.3L15.2,24.3z"/>
						<polygon fill="#FFFFFF" points="15.2,24.3 15.2,24.3 15.2,24.3 						"/>
						<path fill="#FFFFFF" d="M15.2,24.3C15.2,24.3,15.2,24.3,15.2,24.3C15.2,24.3,15.2,24.3,15.2,24.3
							C15.2,24.3,15.2,24.3,15.2,24.3z"/>
						<path fill="#FFFFFF" d="M15.2,24.3L15.2,24.3C15.2,24.3,15.2,24.3,15.2,24.3z"/>
						<path fill="#FFFFFF" d="M15.1,24.4L15.1,24.4L15.1,24.4L15.1,24.4z"/>
						<path fill="#FFFFFF" d="M15.2,24.3C15.2,24.3,15.2,24.3,15.2,24.3C15.2,24.3,15.2,24.3,15.2,24.3L15.2,24.3z"/>
						<path fill="#FFFFFF" d="M15.1,24.3C15.1,24.3,15.1,24.3,15.1,24.3C15.1,24.3,15.1,24.3,15.1,24.3z"/>
						<path fill="#FFFFFF" d="M15.2,24.3C15.2,24.3,15.2,24.3,15.2,24.3C15.2,24.3,15.2,24.3,15.2,24.3z"/>
						<path fill="#FFFFFF" d="M15.2,24.3C15.2,24.3,15.2,24.3,15.2,24.3C15.2,24.3,15.2,24.3,15.2,24.3
							C15.2,24.3,15.2,24.3,15.2,24.3z"/>
						<path fill="#FFFFFF" d="M15.1,24.5C15.1,24.5,15.1,24.5,15.1,24.5c0,0,0-0.1,0-0.1c0,0,0,0,0,0C15.1,24.4,15.1,24.4,15.1,24.5
							C15.1,24.4,15.1,24.4,15.1,24.5C15.1,24.4,15.1,24.5,15.1,24.5L15.1,24.5C15.1,24.5,15.1,24.5,15.1,24.5z"/>
						<path fill="#FFFFFF" d="M15.1,24.4L15.1,24.4C15.1,24.4,15.1,24.4,15.1,24.4C15.1,24.3,15.1,24.4,15.1,24.4L15.1,24.4
							L15.1,24.4z"/>
						<path fill="#FFFFFF" d="M15.1,24.4C15.1,24.4,15.1,24.4,15.1,24.4C15.2,24.4,15.2,24.4,15.1,24.4
							C15.1,24.4,15.2,24.4,15.1,24.4C15.1,24.3,15.2,24.3,15.1,24.4C15.1,24.3,15.1,24.3,15.1,24.4L15.1,24.4L15.1,24.4L15.1,24.4
							C15.1,24.3,15.1,24.3,15.1,24.4L15.1,24.4C15.1,24.3,15.1,24.3,15.1,24.4C15.1,24.4,15.1,24.3,15.1,24.4L15.1,24.4L15.1,24.4
							L15.1,24.4C15.1,24.4,15.1,24.4,15.1,24.4z"/>
						<path fill="#FFFFFF" d="M15.3,24.4L15.3,24.4C15.3,24.4,15.3,24.4,15.3,24.4z"/>
						<path fill="#FFFFFF" d="M15.3,24.4C15.3,24.4,15.3,24.4,15.3,24.4C15.3,24.4,15.3,24.4,15.3,24.4
							C15.3,24.4,15.3,24.4,15.3,24.4L15.3,24.4C15.3,24.4,15.3,24.4,15.3,24.4C15.3,24.4,15.3,24.4,15.3,24.4z"/>
						<path fill="#FFFFFF" d="M15.2,24.4L15.2,24.4L15.2,24.4L15.2,24.4C15.2,24.4,15.2,24.4,15.2,24.4z"/>
						<polygon fill="#FFFFFF" points="15.1,24.4 15.1,24.3 15.1,24.4 						"/>
						<polygon fill="#FFFFFF" points="15.1,24.4 15.1,24.3 15,24.4 						"/>
						<path fill="#FFFFFF" d="M13.5,24.8L13.5,24.8C13.5,24.8,13.5,24.8,13.5,24.8z"/>
						<path fill="#FFFFFF" d="M13.5,24.8L13.5,24.8C13.5,24.8,13.5,24.8,13.5,24.8z"/>
						<path fill="#FFFFFF" d="M14.4,24.5C14.4,24.5,14.4,24.5,14.4,24.5L14.4,24.5C14.4,24.5,14.4,24.5,14.4,24.5z"/>
						<path fill="#FFFFFF" d="M13.9,24.7C13.9,24.7,13.9,24.7,13.9,24.7C13.9,24.7,13.9,24.7,13.9,24.7
							C13.9,24.7,13.9,24.7,13.9,24.7z"/>
						<path fill="#FFFFFF" d="M13.9,24.8L13.9,24.8C13.9,24.8,13.9,24.8,13.9,24.8z"/>
						<path fill="#FFFFFF" d="M13.2,24.8L13.2,24.8C13.2,24.9,13.2,24.8,13.2,24.8z"/>
						<path fill="#FFFFFF" d="M14.8,24.4C14.8,24.4,14.8,24.4,14.8,24.4C14.8,24.4,14.8,24.5,14.8,24.4z"/>
						<path fill="#FFFFFF" d="M13.5,24.6C13.5,24.6,13.5,24.6,13.5,24.6C13.5,24.6,13.5,24.6,13.5,24.6z"/>
						<path fill="#FFFFFF" d="M14.7,24.4C14.7,24.4,14.7,24.4,14.7,24.4C14.7,24.4,14.8,24.4,14.7,24.4
							C14.7,24.4,14.7,24.4,14.7,24.4z"/>
						<path fill="#FFFFFF" d="M12.3,24.7L12.3,24.7C12.3,24.7,12.3,24.8,12.3,24.7z"/>
						<path fill="#FFFFFF" d="M12.1,24.5C12.1,24.5,12.1,24.5,12.1,24.5C12.1,24.5,12.1,24.5,12.1,24.5z"/>
						<path fill="#FFFFFF" d="M14.9,24.4C14.9,24.4,14.9,24.4,14.9,24.4L14.9,24.4z"/>
						<path fill="#FFFFFF" d="M15,24.5C15,24.5,15,24.5,15,24.5C15,24.5,15,24.5,15,24.5z"/>
						<path fill="#FFFFFF" d="M14.7,24.6L14.7,24.6C14.7,24.6,14.7,24.6,14.7,24.6z"/>
						<path fill="#FFFFFF" d="M15,24.4C14.9,24.4,14.9,24.4,15,24.4C14.9,24.4,14.9,24.4,15,24.4z"/>
						<path fill="#FFFFFF" d="M14.9,24.4L14.9,24.4C15,24.4,15,24.4,14.9,24.4z"/>
						<path fill="#FFFFFF" d="M14.9,24.4C14.9,24.4,14.9,24.4,14.9,24.4C14.9,24.4,14.9,24.4,14.9,24.4
							C14.9,24.4,14.9,24.4,14.9,24.4z"/>
						<path fill="#FFFFFF" d="M12.8,24.7L12.8,24.7C12.8,24.7,12.8,24.7,12.8,24.7z"/>
						<path fill="#FFFFFF" d="M14.3,24.8L14.3,24.8L14.3,24.8L14.3,24.8z"/>
						<path fill="#FFFFFF" d="M14.2,24.8C14.2,24.7,14.2,24.7,14.2,24.8L14.2,24.8L14.2,24.8z"/>
						<path fill="#FFFFFF" d="M13.4,24.8L13.4,24.8C13.4,24.9,13.4,24.9,13.4,24.8C13.4,24.8,13.4,24.9,13.4,24.8L13.4,24.8
							C13.5,24.8,13.5,24.8,13.4,24.8c0.1,0.1,0.1,0,0.1,0c0,0,0,0,0,0l0,0c0,0,0,0,0,0l0,0l0,0c0,0,0,0,0,0c0,0,0,0,0,0l0,0
							c0,0,0,0,0,0c0,0.1,0,0,0,0l0,0c0,0,0,0,0,0.1c0,0,0-0.1,0-0.1c0,0,0,0,0,0c0,0,0,0,0,0v0c0,0,0,0,0,0c0,0,0,0,0,0.1
							c0,0,0,0,0,0c0,0,0,0,0.1,0c0,0,0,0,0,0l0,0c0,0,0,0,0,0c0,0,0,0,0,0c0,0,0,0.1,0.1,0c0,0,0,0,0,0c0,0,0,0,0-0.1l0,0
							c0,0,0-0.1,0-0.1c0,0,0,0,0,0l0,0c0,0,0,0,0,0c0,0,0,0,0,0c0,0,0,0,0,0.1c0,0,0,0,0,0c0,0,0,0,0,0.1c0,0,0,0,0,0c0,0,0,0,0,0
							s0,0,0,0l0,0v0l0,0c0,0,0-0.1,0.1-0.1c0,0,0,0,0,0.1c0,0,0,0,0,0c0,0,0,0,0,0l0,0c0,0,0,0,0,0c0-0.1,0,0,0-0.1c0,0,0,0,0,0
							c0,0,0-0.1,0,0c0,0,0,0,0,0c0,0,0,0,0,0h0c0,0,0.1,0,0.1-0.1c0,0,0,0.1,0,0.1l0-0.2c0,0,0,0.1,0,0.2c0,0,0,0,0,0
							c0,0,0-0.1,0-0.1c0,0,0,0,0,0.1c0,0,0-0.1,0-0.1c0,0,0,0.1,0,0.1l0-0.1c0,0,0,0,0,0.1c0,0,0,0,0,0l0,0c0,0,0-0.1,0-0.1
							c0,0,0,0.1,0,0.1c0,0,0-0.1,0-0.2l0,0l0,0c0,0,0,0.1,0,0.2c0,0,0,0,0,0c0,0,0,0,0,0l0,0c0,0,0,0,0-0.1l0,0c0,0,0-0.1,0-0.1
							c0,0,0,0.1,0,0.1c0,0,0,0,0,0l0,0c0,0,0-0.1,0,0c0,0,0,0,0,0c0,0,0-0.2,0-0.2c0,0,0,0,0,0.1c0,0,0,0.1,0,0.1c0,0,0,0,0,0
							c0,0,0,0,0,0c0,0,0,0,0,0c0,0,0,0,0,0c0,0,0-0.1,0-0.1c0,0,0,0,0,0c0,0,0,0,0.1,0c0,0,0,0,0,0c0,0,0,0,0,0c0,0,0,0,0,0
							c0,0,0,0,0,0c0,0,0,0,0,0c0,0,0-0.1,0-0.1c0,0,0,0,0,0c0,0,0-0.1,0.1-0.1c0,0,0,0.1,0,0.1c0,0,0,0,0,0l0,0c0,0,0,0,0,0
							c0,0,0.1,0,0.1,0c0,0,0,0,0,0l0,0c0,0,0,0,0,0c0,0,0,0,0,0l0,0c0,0,0,0,0,0c0,0,0,0,0,0l0,0c0,0,0-0.1,0-0.1c0,0,0,0,0,0
							c0,0,0,0,0,0.1c0,0,0,0,0,0c0,0,0,0,0,0c0,0,0,0,0,0l0,0l0,0l0,0c0,0,0,0,0,0c0,0,0,0,0,0c0,0,0,0,0,0l0,0c0,0,0,0,0-0.1l0,0
							c0,0,0,0,0,0c0,0,0,0,0,0l0,0v0c0,0,0,0.1-0.1,0c0,0,0,0,0,0l0,0c0,0,0,0,0,0c0-0.1-0.1,0-0.1,0l0,0c0,0,0,0,0,0l0,0
							c0,0,0,0-0.1,0c0,0,0,0,0,0c0,0-0.1,0-0.1,0c0,0,0,0,0,0l0,0c0,0,0,0,0,0c0,0,0,0,0,0c0,0,0,0,0,0c0,0,0,0,0,0l0,0l0,0
							c0,0,0,0,0,0c0,0,0,0,0,0c0,0,0,0,0,0c0,0,0,0,0,0.1c0,0,0,0,0,0c0,0,0,0,0,0l0,0l0,0c0,0,0,0,0-0.1c0,0,0,0,0,0.1v0
							c0,0,0,0,0,0c0,0-0.1,0-0.1,0c0,0.1,0,0,0,0c0,0,0,0,0,0c0,0,0,0-0.1,0c0,0,0,0,0,0c0,0,0,0,0,0c0,0,0,0,0,0c0,0,0,0,0,0.1
							c0,0,0,0,0,0c0,0,0,0,0,0c0,0-0.1,0-0.1,0c0,0,0,0,0,0c0,0,0,0,0,0l0,0c0,0,0,0,0,0v0c0,0,0,0,0,0v0c0,0.1,0,0,0,0l0,0
							c0,0,0-0.1,0-0.1c0,0,0,0,0,0c0,0,0,0,0,0c0,0,0,0,0,0c0,0,0,0.1-0.1,0c0,0,0,0,0,0c0,0,0-0.1-0.1,0c0,0,0,0,0,0c0,0,0,0,0,0
							c0-0.1-0.1,0-0.1,0l0,0v0c0,0,0,0,0,0c0,0,0,0,0,0c0,0,0,0-0.1,0v0c0,0,0,0-0.1,0c0,0,0,0,0,0c0,0-0.1-0.1-0.1,0l0,0
							c0,0,0,0,0,0.1c0,0,0,0,0,0v0c0,0,0,0,0-0.1c-0.1,0-0.1,0-0.2,0l0,0l0,0c0,0,0,0,0,0c0,0,0,0,0,0c0,0,0,0,0,0h0v0c0,0,0,0,0,0
							c0,0,0,0,0,0c0,0,0,0,0,0l0,0l0,0c0,0,0,0,0,0c0-0.1-0.1,0-0.1,0c0,0,0,0-0.1,0c0,0,0,0,0,0c0-0.1,0,0,0-0.1c0,0,0,0,0,0.1
							c0,0,0,0,0,0c0,0-0.1,0-0.1,0c0,0,0,0,0,0l0,0c0,0,0,0.1,0,0c0,0,0,0,0,0c-0.1-0.1-0.2,0-0.2-0.1c0,0,0,0,0,0c0,0,0,0,0,0l0,0
							c0,0,0,0,0,0l0,0c0,0,0,0.1,0,0.1c0,0,0,0.1,0.1,0c0,0,0,0,0,0c0,0,0,0,0,0v0c0,0,0.1,0,0.1,0v0c0,0,0,0,0,0c0,0,0,0,0,0
							c0,0.1,0.1,0,0.1,0.1c0,0,0,0,0,0l0,0l0,0c0,0,0,0,0,0c0,0,0,0,0,0c0,0,0,0,0,0l0,0c0,0,0.1,0,0.1,0v0c0,0,0,0,0.1,0v0
							c0,0,0,0,0,0c0,0,0,0,0,0c0,0,0,0,0-0.1l0,0c0,0,0,0,0,0c0,0,0,0,0,0.1c0,0,0.1,0,0.1,0c0-0.1,0,0,0,0c0,0,0,0,0,0
							c0,0,0,0.1,0,0.1c0,0,0,0,0,0c0,0,0,0,0,0c0,0,0,0,0,0l0,0c0,0,0-0.1,0.1,0c0,0,0,0,0,0c0,0,0,0,0,0c0,0,0,0-0.1,0
							c0,0,0,0,0,0c0-0.1,0,0,0.1,0l0,0c0,0,0,0,0,0l0,0c0,0,0,0,0,0c0,0,0,0,0,0c0,0,0,0.1,0.1,0.1c0,0,0,0,0,0c0,0,0,0,0,0
							c0,0,0,0,0,0c0,0,0,0,0,0v0c0,0,0-0.1,0,0l0,0l0,0l0,0c0,0,0,0,0,0c0,0,0,0,0,0c0,0,0,0,0,0c0,0,0,0,0,0c0,0,0,0,0,0
							c0,0,0,0,0,0c0,0,0,0,0,0l0,0c0,0,0,0,0,0c0,0,0,0,0,0c0,0,0,0,0,0.1l0,0c0,0,0,0,0,0c0,0,0,0,0.1,0c0,0,0,0,0,0
							C13.3,24.9,13.3,24.9,13.4,24.8L13.4,24.8C13.4,24.9,13.3,24.9,13.4,24.8C13.4,24.8,13.4,24.9,13.4,24.8
							C13.4,24.9,13.4,24.8,13.4,24.8C13.4,24.8,13.4,24.8,13.4,24.8z M13.6,24.8C13.6,24.8,13.6,24.8,13.6,24.8
							C13.6,24.8,13.6,24.8,13.6,24.8z M14,24.7C14,24.7,13.9,24.7,14,24.7C13.9,24.7,14,24.7,14,24.7z M14.9,24.4L14.9,24.4
							C14.9,24.4,14.9,24.4,14.9,24.4z M14.9,24.4C14.9,24.4,14.9,24.4,14.9,24.4C14.9,24.4,14.9,24.4,14.9,24.4
							C14.9,24.4,14.9,24.4,14.9,24.4z M12.8,24.6L12.8,24.6C12.7,24.6,12.7,24.6,12.8,24.6z"/>
						<path fill="#FFFFFF" d="M13.9,24.8C13.9,24.8,13.9,24.8,13.9,24.8C13.9,24.8,13.9,24.8,13.9,24.8z"/>
						<path fill="#FFFFFF" d="M13.2,24.8L13.2,24.8L13.2,24.8L13.2,24.8z"/>
						<path fill="#FFFFFF" d="M14.6,24.7C14.6,24.7,14.6,24.7,14.6,24.7C14.6,24.7,14.6,24.7,14.6,24.7z"/>
						<path fill="#FFFFFF" d="M15,24.4L15,24.4C15,24.4,15,24.4,15,24.4C15,24.4,15,24.4,15,24.4z"/>
						<path fill="#FFFFFF" d="M15.2,24.5C15.2,24.5,15.2,24.5,15.2,24.5L15.2,24.5C15.1,24.5,15.1,24.5,15.2,24.5z"/>
						<path fill="#FFFFFF" d="M15,24.4C15,24.5,15,24.4,15,24.4L15,24.4C15,24.4,15,24.4,15,24.4z"/>
						<path fill="#FFFFFF" d="M15.1,24.4L15.1,24.4C15.1,24.4,15.1,24.4,15.1,24.4z"/>
						<path fill="#FFFFFF" d="M14.9,24.4C14.9,24.4,14.9,24.4,14.9,24.4C14.9,24.4,14.9,24.4,14.9,24.4z"/>
						<polygon fill="#FFFFFF" points="15.1,24.5 15.1,24.5 15.1,24.5 						"/>
						<path fill="#FFFFFF" d="M15,24.5L15,24.5C15,24.5,15,24.5,15,24.5C15,24.5,15,24.5,15,24.5z"/>
						<path fill="#FFFFFF" d="M15,24.5C15,24.5,15,24.5,15,24.5C15,24.5,15,24.5,15,24.5z"/>
						<polygon fill="#FFFFFF" points="15,24.5 15,24.5 15,24.5 						"/>
						<path fill="#FFFFFF" d="M14.8,24.5L14.8,24.5C14.8,24.6,14.8,24.6,14.8,24.5C14.8,24.5,14.8,24.5,14.8,24.5z"/>
						<path fill="#FFFFFF" d="M14.9,24.6C14.9,24.6,14.9,24.6,14.9,24.6L14.9,24.6L14.9,24.6z"/>
						<path fill="#FFFFFF" d="M14.8,24.6C14.8,24.6,14.8,24.6,14.8,24.6C14.8,24.6,14.9,24.6,14.8,24.6z"/>
						<polygon fill="#FFFFFF" points="14.6,24.6 14.6,24.6 14.6,24.6 						"/>
						<path fill="#FFFFFF" d="M14.4,24.8C14.4,24.8,14.4,24.7,14.4,24.8C14.4,24.7,14.4,24.7,14.4,24.8
							C14.4,24.7,14.4,24.7,14.4,24.8z"/>
						<path fill="#FFFFFF" d="M14.4,24.7C14.4,24.7,14.4,24.7,14.4,24.7C14.4,24.7,14.4,24.7,14.4,24.7z"/>
						<polygon fill="#FFFFFF" points="12,24.5 12,24.4 12,24.5 						"/>
						<path fill="#FFFFFF" d="M12,24.5L12,24.5L12,24.5C12,24.5,12,24.5,12,24.5z"/>
						<path fill="#FFFFFF" d="M13.6,24.9L13.6,24.9C13.6,24.9,13.6,24.9,13.6,24.9L13.6,24.9z"/>
						<polygon fill="#FFFFFF" points="13.5,24.8 13.5,24.8 13.5,24.8 						"/>
						<path fill="#FFFFFF" d="M13.3,24.9C13.3,24.9,13.3,24.9,13.3,24.9C13.3,24.9,13.3,24.8,13.3,24.9z"/>
					</g>
				</g>
			</g>
		</g>
	</g>
	<g>
		<g>
			<g>
				<g>
					<g>
						<path fill="#FFFFFF" d="M11.8,17C11.8,17.1,11.8,17.1,11.8,17C11.8,17,11.8,17,11.8,17z"/>
						<polygon fill="#FFFFFF" points="11.7,16.9 11.7,16.9 11.7,16.9 						"/>
						<path fill="#FFFFFF" d="M11.7,16.8C11.7,16.8,11.7,16.8,11.7,16.8L11.7,16.8L11.7,16.8C11.7,16.8,11.7,16.8,11.7,16.8z"/>
						<path fill="#FFFFFF" d="M11.8,16.7C11.7,16.7,11.7,16.7,11.8,16.7C11.8,16.7,11.8,16.7,11.8,16.7
							C11.8,16.7,11.8,16.7,11.8,16.7z"/>
						<path fill="#FFFFFF" d="M11.8,16.7C11.8,16.7,11.8,16.7,11.8,16.7L11.8,16.7z"/>
						<path fill="#FFFFFF" d="M11.7,16.6L11.7,16.6C11.8,16.6,11.8,16.6,11.7,16.6C11.8,16.6,11.8,16.6,11.7,16.6z"/>
						<path fill="#FFFFFF" d="M11.7,16.6L11.7,16.6C11.7,16.6,11.7,16.6,11.7,16.6z"/>
						<path fill="#FFFFFF" d="M11.7,16.6L11.7,16.6C11.7,16.6,11.7,16.6,11.7,16.6C11.7,16.6,11.7,16.6,11.7,16.6z"/>
						<path fill="#FFFFFF" d="M11.7,16.7C11.7,16.7,11.7,16.7,11.7,16.7C11.7,16.7,11.7,16.7,11.7,16.7z"/>
						<path fill="#FFFFFF" d="M11.7,16.8L11.7,16.8L11.7,16.8C11.7,16.8,11.7,16.8,11.7,16.8z"/>
						<path fill="#FFFFFF" d="M11.7,16.5C11.7,16.5,11.7,16.5,11.7,16.5L11.7,16.5C11.7,16.5,11.7,16.5,11.7,16.5z"/>
						<path fill="#FFFFFF" d="M11.7,16.5L11.7,16.5C11.7,16.5,11.7,16.5,11.7,16.5z"/>
						<polygon fill="#FFFFFF" points="11.7,16.6 11.7,16.6 11.7,16.6 						"/>
						<polygon fill="#FFFFFF" points="11.7,16.4 11.8,16.4 11.7,16.4 						"/>
						<path fill="#FFFFFF" d="M11.7,16.4C11.7,16.4,11.7,16.3,11.7,16.4C11.8,16.3,11.7,16.3,11.7,16.4
							C11.7,16.3,11.7,16.3,11.7,16.4z"/>
						<path fill="#FFFFFF" d="M11.7,16.3C11.7,16.3,11.7,16.3,11.7,16.3C11.7,16.3,11.7,16.3,11.7,16.3z"/>
						<path fill="#FFFFFF" d="M11.7,16.5C11.7,16.5,11.7,16.4,11.7,16.5L11.7,16.5C11.7,16.4,11.7,16.4,11.7,16.5z"/>
						<path fill="#FFFFFF" d="M11.7,16.4L11.7,16.4C11.7,16.4,11.7,16.4,11.7,16.4C11.7,16.4,11.7,16.4,11.7,16.4z"/>
						<path fill="#FFFFFF" d="M11.7,16.5L11.7,16.5L11.7,16.5z"/>
						<path fill="#FFFFFF" d="M11.7,16.5C11.7,16.5,11.7,16.5,11.7,16.5C11.7,16.5,11.7,16.5,11.7,16.5z"/>
						<path fill="#FFFFFF" d="M11.7,16.5L11.7,16.5C11.7,16.5,11.7,16.5,11.7,16.5L11.7,16.5z"/>
						<polygon fill="#FFFFFF" points="11.7,16.5 11.7,16.5 11.7,16.5 						"/>
						<path fill="#FFFFFF" d="M11.7,16.3C11.7,16.3,11.7,16.3,11.7,16.3C11.7,16.3,11.7,16.3,11.7,16.3
							C11.7,16.4,11.7,16.4,11.7,16.3z"/>
						<path fill="#FFFFFF" d="M11.7,16.4L11.7,16.4C11.7,16.4,11.7,16.4,11.7,16.4z"/>
						<path fill="#FFFFFF" d="M11.6,16.2L11.6,16.2L11.6,16.2z"/>
						<path fill="#FFFFFF" d="M11.7,16.4C11.7,16.4,11.7,16.4,11.7,16.4C11.7,16.4,11.7,16.4,11.7,16.4L11.7,16.4z"/>
						<path fill="#FFFFFF" d="M11.7,16.3C11.7,16.3,11.7,16.3,11.7,16.3C11.7,16.3,11.7,16.3,11.7,16.3z"/>
						<path fill="#FFFFFF" d="M11.7,16.4C11.7,16.4,11.7,16.4,11.7,16.4C11.7,16.4,11.7,16.4,11.7,16.4z"/>
						<path fill="#FFFFFF" d="M11.7,16.4C11.7,16.4,11.7,16.4,11.7,16.4C11.7,16.4,11.7,16.4,11.7,16.4
							C11.7,16.4,11.7,16.4,11.7,16.4z"/>
						<path fill="#FFFFFF" d="M11.5,16.2C11.5,16.2,11.5,16.2,11.5,16.2c0,0.1,0.1,0,0.1,0c0,0,0,0,0,0
							C11.6,16.2,11.6,16.2,11.5,16.2C11.6,16.2,11.6,16.2,11.5,16.2C11.6,16.2,11.5,16.1,11.5,16.2L11.5,16.2
							C11.5,16.2,11.5,16.2,11.5,16.2z"/>
						<path fill="#FFFFFF" d="M11.7,16.2L11.7,16.2C11.7,16.2,11.7,16.2,11.7,16.2C11.7,16.2,11.7,16.2,11.7,16.2L11.7,16.2
							L11.7,16.2z"/>
						<path fill="#FFFFFF" d="M11.7,16.3C11.6,16.3,11.6,16.3,11.7,16.3C11.6,16.3,11.6,16.3,11.7,16.3
							C11.6,16.3,11.7,16.3,11.7,16.3C11.7,16.3,11.7,16.3,11.7,16.3C11.7,16.3,11.7,16.3,11.7,16.3L11.7,16.3L11.7,16.3L11.7,16.3
							C11.7,16.3,11.7,16.3,11.7,16.3L11.7,16.3C11.7,16.3,11.7,16.3,11.7,16.3C11.7,16.3,11.7,16.3,11.7,16.3L11.7,16.3L11.7,16.3
							L11.7,16.3C11.7,16.3,11.7,16.3,11.7,16.3z"/>
						<path fill="#FFFFFF" d="M11.6,16.5C11.6,16.5,11.6,16.5,11.6,16.5C11.6,16.5,11.6,16.5,11.6,16.5z"/>
						<path fill="#FFFFFF" d="M11.6,16.5C11.6,16.5,11.6,16.5,11.6,16.5C11.6,16.5,11.6,16.5,11.6,16.5
							C11.6,16.5,11.6,16.5,11.6,16.5L11.6,16.5C11.6,16.5,11.6,16.5,11.6,16.5C11.6,16.5,11.6,16.5,11.6,16.5z"/>
						<path fill="#FFFFFF" d="M11.6,16.4L11.6,16.4L11.6,16.4L11.6,16.4C11.6,16.4,11.6,16.4,11.6,16.4z"/>
						<polygon fill="#FFFFFF" points="11.7,16.2 11.7,16.2 11.6,16.2 						"/>
						<polygon fill="#FFFFFF" points="11.6,16.1 11.7,16.1 11.7,16.1 						"/>
						<path fill="#FFFFFF" d="M11,13.5L11,13.5C11,13.5,11,13.5,11,13.5z"/>
						<path fill="#FFFFFF" d="M11,13.6L11,13.6C11,13.6,11,13.6,11,13.6z"/>
						<path fill="#FFFFFF" d="M11.4,15C11.4,15,11.5,14.9,11.4,15L11.4,15C11.4,15,11.4,15,11.4,15z"/>
						<path fill="#FFFFFF" d="M11.2,14.2L11.2,14.2C11.2,14.2,11.2,14.2,11.2,14.2C11.2,14.2,11.2,14.2,11.2,14.2z"/>
						<path fill="#FFFFFF" d="M11.1,14.2L11.1,14.2C11.1,14.2,11.1,14.2,11.1,14.2z"/>
						<path fill="#FFFFFF" d="M11,13.1L11,13.1C11,13.1,11,13.1,11,13.1z"/>
						<path fill="#FFFFFF" d="M11.5,15.7C11.6,15.6,11.6,15.6,11.5,15.7C11.5,15.6,11.5,15.7,11.5,15.7z"/>
						<path fill="#FFFFFF" d="M11.3,13.5C11.3,13.5,11.3,13.5,11.3,13.5C11.3,13.5,11.3,13.5,11.3,13.5z"/>
						<path fill="#FFFFFF" d="M11.5,15.6C11.5,15.6,11.5,15.6,11.5,15.6C11.5,15.6,11.6,15.6,11.5,15.6
							C11.6,15.6,11.6,15.6,11.5,15.6z"/>
						<path fill="#FFFFFF" d="M11.5,11.5C11.5,11.5,11.5,11.5,11.5,11.5C11.5,11.5,11.5,11.5,11.5,11.5z"/>
						<path fill="#FFFFFF" d="M11.9,11.3C11.9,11.3,11.9,11.3,11.9,11.3C11.9,11.3,11.9,11.3,11.9,11.3z"/>
						<path fill="#FFFFFF" d="M11.6,16C11.6,16,11.6,16,11.6,16L11.6,16z"/>
						<path fill="#FFFFFF" d="M11.5,16C11.5,16,11.5,16,11.5,16C11.5,16,11.5,16,11.5,16z"/>
						<path fill="#FFFFFF" d="M11.4,15.5L11.4,15.5C11.4,15.5,11.4,15.5,11.4,15.5z"/>
						<path fill="#FFFFFF" d="M11.6,16C11.6,16,11.6,16,11.6,16C11.6,16,11.6,16,11.6,16z"/>
						<path fill="#FFFFFF" d="M11.6,16C11.6,16,11.6,16,11.6,16C11.6,16,11.6,16,11.6,16z"/>
						<path fill="#FFFFFF" d="M11.6,15.9C11.6,15.9,11.6,15.9,11.6,15.9C11.6,16,11.6,15.9,11.6,15.9C11.6,15.9,11.6,15.9,11.6,15.9
							z"/>
						<path fill="#FFFFFF" d="M11.2,12.4L11.2,12.4C11.2,12.3,11.2,12.3,11.2,12.4z"/>
						<path fill="#FFFFFF" d="M11.2,14.8L11.2,14.8L11.2,14.8L11.2,14.8z"/>
						<path fill="#FFFFFF" d="M11.1,14.7C11.2,14.7,11.2,14.8,11.1,14.7L11.1,14.7L11.1,14.7z"/>
						<path fill="#FFFFFF" d="M11,13.3L11,13.3C11,13.3,11,13.3,11,13.3c0,0-0.1,0.1,0,0.1l0,0c0,0,0,0,0,0c0,0,0.1,0,0,0.1
							c0,0,0,0,0,0l0,0c0,0,0,0,0,0l0,0.1l0,0c0,0,0,0,0,0c0,0,0,0,0,0l0,0c0,0,0,0,0,0c-0.1,0,0,0,0,0.1l0,0c0,0,0,0,0,0.1
							c0,0,0.1-0.1,0.1,0c0,0,0,0,0,0c0,0,0,0,0,0h0c0,0,0,0,0,0c0,0,0,0,0,0c0,0,0,0,0,0c0,0,0,0.1,0,0.1c0,0,0,0,0,0l0,0
							c0,0,0,0,0,0c0,0,0,0,0,0c0,0-0.1,0.1,0,0.1c0,0,0,0,0,0c0,0,0,0,0.1,0.1l0,0c0,0,0.1,0,0.1,0c0,0,0,0,0,0l0,0c0,0,0,0,0,0
							c0,0,0,0,0,0c0,0,0,0-0.1,0c0,0,0,0,0,0c0,0,0,0-0.1,0c0,0,0,0,0,0c0,0,0,0,0,0c0,0,0,0,0,0l0,0h0l0,0.1c0,0,0.1,0.1,0.1,0.1
							c0,0,0,0-0.1,0c0,0,0,0,0-0.1c0,0,0,0,0,0l0,0.1c0,0,0,0,0,0c0.1,0,0,0,0.1,0.1c0,0,0,0,0,0c0,0,0.1,0,0,0.1c0,0,0,0,0,0
							c0,0,0,0.1,0,0v0c0,0,0,0.1,0.1,0.1c0,0-0.1,0-0.1,0l0.2,0.1c0,0-0.1,0-0.2,0c0,0,0,0,0,0c0,0,0.1,0,0.1,0c0,0,0,0-0.1,0.1
							c0,0,0.1,0,0.1,0c0,0-0.1,0-0.1,0l0.1,0c0,0,0,0-0.1,0c0,0,0,0,0,0l0,0c0,0,0.1,0,0.1,0.1c0,0-0.1,0-0.1,0c0,0,0.2,0,0.2,0.1
							l0,0l0,0c0,0-0.2-0.1-0.2-0.1c0,0,0,0,0,0c0,0,0,0,0,0v0.1c0,0,0,0,0.1,0l0-0.1c0,0,0.1,0,0.1,0.1c0,0-0.1,0-0.1,0
							c0,0,0,0,0,0l0,0c0,0,0.1,0,0,0.1c0,0,0,0,0,0c0,0,0.2-0.1,0.2,0c0,0,0,0.1,0,0.1c0,0-0.1,0-0.1,0c0,0,0,0,0,0c0,0,0,0,0,0
							c0,0,0,0,0,0c0,0,0,0,0,0.1c0,0,0.1,0,0.1,0c0,0,0,0,0,0c0,0,0,0.1,0,0.1c0,0,0,0,0,0c0,0,0,0,0,0c0,0,0,0,0,0c0,0,0,0,0.1,0
							c0,0,0,0,0-0.1c0,0,0.1,0,0.1,0.1c0,0,0,0,0,0c0,0.1,0.1,0,0.1,0.1c0,0-0.1,0-0.1,0c0,0,0,0,0-0.1l0,0c0,0,0,0,0,0
							c0,0,0,0.1,0,0.2c0,0,0,0,0,0l0,0c0,0,0,0,0,0c0,0,0,0,0,0.1l0,0c0,0,0,0,0,0c0,0,0,0.1,0,0.1l0,0c0,0,0.1,0,0.1,0.1
							c0,0,0,0,0,0c0,0,0-0.1-0.1,0c0,0,0,0,0-0.1c0,0,0,0,0,0c0,0,0,0,0,0l0,0l0,0l0,0c0,0,0,0,0,0c0,0,0,0,0-0.1c0,0,0,0,0,0l0,0
							c0,0,0,0,0.1,0l0,0c0,0,0,0,0-0.1c0,0,0,0,0,0l0,0h0c0,0-0.1-0.1,0-0.1c0,0,0,0,0-0.1l0,0c0,0,0-0.1,0-0.1c0,0,0-0.1,0-0.1
							l0,0c0,0,0,0,0-0.1l0,0c0,0,0-0.1,0-0.1c0,0,0,0,0,0c0-0.1-0.1-0.1,0-0.1c0,0,0,0,0,0l0,0v0c0,0,0,0,0,0c0,0,0,0,0,0
							c0,0,0,0,0,0l0,0c0,0,0,0,0,0c0,0,0,0,0,0c0,0,0,0,0,0c0,0,0,0,0-0.1c0,0,0-0.1-0.1-0.1c0,0,0,0,0,0c0,0,0,0,0,0l0,0l0,0
							c0,0,0,0,0.1,0c0,0,0,0-0.1-0.1h0c0,0,0,0,0,0c0,0,0-0.1,0-0.2c-0.1,0,0,0,0,0c0,0,0,0,0,0c0,0,0-0.1,0-0.1c0,0,0,0,0,0
							c0,0,0,0,0,0c0,0,0,0,0,0c0,0-0.1,0-0.1,0c0,0,0,0,0,0c0,0,0,0,0,0c0,0,0-0.1,0-0.1c0,0,0,0,0,0c0,0,0,0,0-0.1l0,0
							c0,0,0,0,0,0h0c0-0.1,0,0,0-0.1l0,0c-0.1,0,0-0.1,0-0.1l0,0c0,0,0.1-0.1,0.1-0.1c0,0,0,0,0,0c0,0,0,0,0,0c0,0,0,0,0,0
							c0,0-0.1-0.1,0-0.1c0,0,0,0,0,0c0,0,0-0.1,0-0.1c0,0,0,0,0,0c0,0,0-0.1,0-0.1c0.1,0,0-0.1,0-0.1l0-0.1h0c0,0,0-0.1,0-0.1
							c0,0,0,0,0,0c0-0.1,0-0.1,0-0.1h0c0,0,0-0.1,0-0.1c0,0,0,0,0,0c0-0.1,0.1-0.1,0-0.2l0,0c0,0,0,0-0.1,0c0,0,0,0,0,0l0,0
							c0,0,0-0.1,0.1-0.1c0-0.1,0.1-0.2,0.1-0.3h0l0,0c0,0,0,0,0,0c0,0,0,0,0,0c0,0,0,0,0,0v0l0,0c0,0,0,0,0-0.1c0,0,0,0,0,0
							c0,0,0,0,0,0l0,0l0,0c0,0,0,0,0,0c0.1,0,0.1-0.1,0.1-0.2c0,0,0-0.1,0-0.1c0,0,0,0,0,0c0.1,0,0,0,0.1,0c0,0,0-0.1,0-0.1
							c0,0,0,0,0,0c0-0.1,0.1-0.1,0.1-0.2c0,0,0,0,0,0l0.1,0c0,0,0,0,0,0c0,0,0,0,0,0c0.1-0.1,0.1-0.3,0.2-0.3c0,0,0,0,0,0
							c0,0,0,0,0,0l0.1,0c0,0,0-0.1,0-0.1l0,0c0,0-0.1,0-0.1-0.1c0,0-0.1,0-0.1,0.1c0,0,0,0,0,0c0,0,0,0,0,0.1l0,0
							c0,0.1-0.1,0.1-0.1,0.1l0,0c0,0,0,0,0,0c0,0,0,0,0.1,0c-0.1,0-0.1,0.1-0.1,0.1c0,0,0,0,0,0h0l0,0c0,0,0,0,0,0c0,0,0,0,0,0
							c0,0,0,0.1,0,0.1l0,0c0,0.1-0.1,0.1-0.1,0.2h0c0,0.1,0,0,0,0.1v0c0,0,0,0,0,0c0,0,0,0,0,0c0,0.1,0,0,0,0.1h0c0,0,0,0,0,0.1
							c0,0,0,0,0,0c-0.1,0,0,0.1-0.1,0.1c0,0,0,0,0.1,0c0,0,0,0,0,0.1c0,0-0.1,0-0.1,0.1c0,0,0,0,0,0c0,0,0,0,0,0.1c0,0,0,0,0,0v0
							c0,0,0,0.1,0,0.1c0,0,0,0,0,0c0,0,0,0,0,0c0,0,0-0.1,0-0.1c0,0,0,0.1,0,0c0.1,0,0,0,0,0.1l0,0c0,0,0,0,0,0l0,0c0,0,0,0,0,0.1
							c0-0.1,0,0,0.1,0c0,0.1-0.1,0-0.1,0.1c0,0,0,0,0,0c0,0,0,0,0,0c0,0.1,0,0,0,0c0,0,0,0,0,0l0,0c0,0.1,0,0,0,0.1l0,0
							c0,0,0,0,0,0c0,0,0,0,0,0l0,0c0,0,0,0,0,0.1c0,0,0,0,0,0c0,0,0,0,0,0c0,0,0,0,0,0c0,0,0,0,0,0c0,0,0,0,0,0.1c0,0,0,0,0,0
							l0,0.1c0,0,0,0,0,0c0,0,0,0,0,0c0,0,0,0,0,0l0,0.1c0,0,0,0,0,0c0,0,0,0.1,0,0.1c0,0,0,0,0,0c0,0,0,0.1,0,0.1l0,0
							C11,13.2,11,13.2,11,13.3C11.1,13.3,11,13.2,11,13.3C11,13.3,11.1,13.3,11,13.3C11,13.3,11,13.3,11,13.3z M11,13.7
							C11,13.7,11,13.7,11,13.7C11.1,13.7,11,13.7,11,13.7z M11.1,14.3C11.1,14.3,11.1,14.3,11.1,14.3
							C11.1,14.3,11.1,14.3,11.1,14.3z M11.6,15.8L11.6,15.8C11.6,15.8,11.6,15.8,11.6,15.8z M11.6,15.9
							C11.6,15.9,11.6,15.9,11.6,15.9C11.6,15.9,11.6,15.9,11.6,15.9C11.6,15.9,11.6,15.9,11.6,15.9z M11.4,12.3L11.4,12.3
							C11.4,12.3,11.4,12.3,11.4,12.3z"/>
						<path fill="#FFFFFF" d="M11.1,14.2C11.1,14.2,11.1,14.2,11.1,14.2C11.1,14.2,11.1,14.2,11.1,14.2z"/>
						<path fill="#FFFFFF" d="M11,13.1L11,13.1C11,13.1,11,13.1,11,13.1L11,13.1z"/>
						<path fill="#FFFFFF" d="M11.3,15.4C11.3,15.4,11.3,15.4,11.3,15.4C11.3,15.4,11.3,15.4,11.3,15.4z"/>
						<path fill="#FFFFFF" d="M11.7,16.1L11.7,16.1C11.6,16,11.6,16,11.7,16.1C11.6,16.1,11.7,16,11.7,16.1z"/>
						<path fill="#FFFFFF" d="M11.5,16.3C11.5,16.3,11.5,16.3,11.5,16.3L11.5,16.3C11.5,16.3,11.5,16.3,11.5,16.3z"/>
						<path fill="#FFFFFF" d="M11.6,16.1C11.6,16.1,11.6,16.1,11.6,16.1C11.6,16.1,11.6,16.1,11.6,16.1
							C11.6,16.1,11.6,16.1,11.6,16.1z"/>
						<path fill="#FFFFFF" d="M11.6,16.1C11.6,16.1,11.6,16.1,11.6,16.1C11.6,16.1,11.6,16.1,11.6,16.1z"/>
						<path fill="#FFFFFF" d="M11.6,15.9C11.6,15.9,11.6,15.9,11.6,15.9C11.6,15.9,11.6,15.9,11.6,15.9z"/>
						<polygon fill="#FFFFFF" points="11.5,16.1 11.5,16.1 11.5,16.1 						"/>
						<path fill="#FFFFFF" d="M11.5,16L11.5,16C11.5,16,11.5,16,11.5,16C11.5,16,11.5,16,11.5,16z"/>
						<path fill="#FFFFFF" d="M11.5,16C11.5,16,11.5,16,11.5,16C11.5,16,11.5,16,11.5,16z"/>
						<polygon fill="#FFFFFF" points="11.5,16.1 11.5,16.1 11.5,16.1 						"/>
						<path fill="#FFFFFF" d="M11.5,15.7L11.5,15.7C11.4,15.7,11.4,15.7,11.5,15.7C11.4,15.7,11.5,15.7,11.5,15.7z"/>
						<path fill="#FFFFFF" d="M11.4,15.8C11.4,15.8,11.4,15.8,11.4,15.8L11.4,15.8L11.4,15.8z"/>
						<path fill="#FFFFFF" d="M11.4,15.7C11.4,15.7,11.4,15.7,11.4,15.7C11.4,15.7,11.4,15.8,11.4,15.7z"/>
						<polygon fill="#FFFFFF" points="11.3,15.3 11.3,15.3 11.4,15.3 						"/>
						<path fill="#FFFFFF" d="M11.2,15C11.2,15,11.2,15,11.2,15C11.2,15.1,11.2,15,11.2,15C11.2,15,11.2,15,11.2,15z"/>
						<path fill="#FFFFFF" d="M11.2,15C11.2,15,11.2,15,11.2,15C11.2,15,11.2,15,11.2,15z"/>
						<polygon fill="#FFFFFF" points="12,11.2 12,11.2 11.9,11.2 						"/>
						<path fill="#FFFFFF" d="M11.9,11.2L11.9,11.2L11.9,11.2C12,11.2,11.9,11.2,11.9,11.2z"/>
						<path fill="#FFFFFF" d="M11,13.8L11,13.8C11,13.8,11,13.8,11,13.8L11,13.8z"/>
						<polygon fill="#FFFFFF" points="11,13.5 11,13.5 11,13.5 						"/>
						<path fill="#FFFFFF" d="M11,13.2C11,13.2,11,13.3,11,13.2C11,13.2,11,13.2,11,13.2z"/>
					</g>
				</g>
			</g>
		</g>
	</g>
	<g>
		<g>
			<path fill="#1A1400" d="M35.8,14c0.2,0,0.2-0.3,0-0.3C35.6,13.8,35.6,14,35.8,14L35.8,14z"/>
		</g>
	</g>
</g>
</svg>
