<?xml version="1.0" encoding="utf-8"?>
<!-- Generator: Adobe Illustrator 18.1.1, SVG Export Plug-In . SVG Version: 6.00 Build 0)  -->
<svg version="1.1" xmlns="http://www.w3.org/2000/svg" xmlns:xlink="http://www.w3.org/1999/xlink" x="0px" y="0px"
	 viewBox="0 0 567.1 447" enable-background="new 0 0 567.1 447" xml:space="preserve">
<g id="Layer_2">
</g>
<g id="Layer_3">
	<path fill="#996632" d="M274.7,299.5c-7-23.6-10.1-47.7-9.4-72.3c0.1-3.6-1.2-6.4-3.3-8.2c5.4-6.5,2.6-19.3-8.4-19.3
		c-0.5,0-0.9,0-1.3,0.1v-18.1c0-12.3-15.8-14.4-21.2-6.3c-5-1.8-11.3-0.5-14.2,4.2c-5.6-1.7-12.6,0.7-15.1,7.5
		c-7,19.6-4.8,40.5-1.3,60.6c2.5,14.8,5.3,29.6,8,44.4c-3,20.4-4.3,41.1-3.9,61.8c0.3,14.8,23.3,14.8,23,0
		c-0.2-9.6,0.1-19.2,0.7-28.7c0.5,7.9,1.3,15.8,2.4,23.7c0.8,6.2,8.7,9.5,14.1,8c6.6-1.8,8.9-8,8-14.1c-2.1-15-2.9-30.1-2.6-45.3
		c0.7,2.7,1.4,5.4,2.2,8.1C256.7,319.8,278.9,313.8,274.7,299.5z"/>
	<path fill="#996632" d="M228.2,314.4c-1.7-2.8-2.8-5.8-3.5-8.9c-0.7-20.1-2.2-40.2-3.4-60.3c-0.4-6.2-5-11.5-11.5-11.5
		c-6,0-11.8,5.3-11.5,11.5c0.6,14.4,1.3,28.9,1.9,43.3c0.3,6.1,0.5,12.3,1.5,18.3c0.1,3.2,0.2,6.3,0.3,9.5c0.1,5.1,2.9,8.4,6.5,10
		C216.4,338.4,236,326.9,228.2,314.4z"/>
	<path fill="#996632" d="M336.4,315.1c-1.1-13.8-2.3-27.7-3.4-41.5c0.5-6.6,1.2-13.1,0.8-19.7c-0.5-8.4-2.4-16.7-4.2-25
		c2.2-2.7,3-6.4,2.1-10.1c-2.1-8.7-4.2-17.4-4.8-26.4c-0.7-10-1.9-19.4-5-29c-5.1-15.9-11.2-31.2-25.5-40.9
		c-0.7-0.5-1.4-0.8-2.2-1.1c-0.8-1.8-1.5-3.6-2.1-5.5c-1.4-5.3-1.6-10.5-1.1-15.9c0.8-8.3-8-12-14.6-11.1
		c-13.6,1.8-27.4,2.2-41.1,1.6c-4.5-0.2-10.3,3.7-11.1,8.4c-1.4,9-2.3,17.9-2,27c0,1,0.1,2,0.1,3c-4.1,3.7-7.8,7.7-9.7,12.8
		c-4.5,2.3-8.5,6.2-11,10.1c-8.4,12.7-7.1,31.4-7,46c0.1,14.8,23.1,14.8,23,0c0-0.1,0-0.2,0-0.2c3.5,1.1,7.4,1.6,10.9,1.8
		c4,0.3,8.1,0.4,12.1,0.4c0,18.8,3.3,37.4,10,55.3c4.4,11.7,9.8,23.4,11.4,35.9c0.2,2,0.4,4,0.6,6c-2-0.8-4.2-1.1-6.7-1
		c-6.1,0.3-11.7,5-11.5,11.5c0.6,19.9,7,38.4,16.1,55.6c-8.5,1.4-16.6,4.6-23.2,10.2c-3.8,3.3-4.2,9.8-1.8,13.9c0,0,0,0.1,0.1,0.1
		c-2.6,1.8-4.4,4.3-5.2,7c-4.4,1.6-7.7,6.2-7.7,10.9c0,6.5,5.3,11.2,11.5,11.5c11,0.5,21.9,0.7,32.9,0.4c7.6-0.2,11.5-6.1,11.1-12
		c4.3,1,8.6,2.1,13,0.9c5.1-1.4,9.1-5.4,10.6-10.2c1.9-3.5,2.2-7.9-0.2-11.1c-0.5-0.7-1-1.3-1.4-2c0.5-0.8,0.9-1.7,1.1-2.6
		c1.6-5.7-1.5-11.2-6.5-13.5c2.5-3.6,2.5-8.3,0.6-12.5c-3.2-6.8-6.4-13.6-9.5-20.4c1.4-1,2.6-2.4,3.5-4.1c3.6,5.2,10.9,5.5,15.8,2.3
		c1.5,7.5,3.7,16.8,12.8,18.2c8,1.2,13.7-3,14.6-11.1c0.5-4.9,0.2-9.8-0.4-14.6C334.9,322.3,336.7,319.3,336.4,315.1z"/>
	<path fill="#996632" d="M312.8,349.7c0-5.9-3.7-9.4-8.1-10.6c-0.7-5.2-1.3-10.4-2.3-15.4c-1.3-6.1-8.4-9.6-14.1-8
		c-6.3,1.7-9.4,8.1-8,14.1c3.3,15.4,3.3,31,11.2,45.1c5.6,10,21.4,5.5,21.4-5.8C312.8,362.6,312.8,356.2,312.8,349.7z"/>
	<path fill="#996632" d="M332.8,348.5c0.1-0.9,0.1-1.9,0.2-2.8c0.2-1.9-0.3-3.8-1.3-5.4c0.1-1.2,0.1-2.5,0-3.7
		c-0.3-4.9-2.7-9-7-11.3c-1.6-0.9-3.4-1.3-5.2-1.6c-2.9-2.6-7-3.9-10.6-2.5c-4.9,1.9-9.3,5-10.1,10.7c-0.9,5.6,1.3,11,5.9,13.3
		c0.3,0.6,0.6,1.3,1,1.9c-2.7,4.2-6.9,7.9-10.7,10.8c-5.3,4-11.1,7.4-16.8,10.7c-2.8,1.6-5.5,3.2-8.3,4.7c-0.1,0-0.1,0.1-0.2,0.1
		c0-0.2-0.1-0.4-0.1-0.6c-0.9-3.8-1.7-7.6-2.5-11.4c-1.6-7.6-2.9-15.3-4.1-23c-0.8-5.6-7.6-9-12.6-8.2c-1.9,0.3-3.7,1-5.1,2.1
		c-1.7-7-3.5-13.9-5.2-20.9c-3.2-12.7-22.5-9.8-22.6,3.1c-0.1,10.9-0.2,21.8-0.3,32.7c-6.2-0.7-12.8,3-12.7,11
		c0.2,10.5,1.7,20.7,4.4,30.6c-0.7,1.5-1.1,3.1-1.2,4.7c-0.3,10.9,6.9,19.3,16.7,23c1.2,0.5,2.5,0.6,3.8,0.5
		c13.1,3.7,28.1,10.2,41.3,4c4.9-2.3,9.2-2.7,14.6-3.2c7.1-0.6,13.9-2.1,20.7-4c6.7-1.9,13.6-3.7,18.6-8.8c2.8-2.9,4.5-6.4,5.6-10.2
		c3.5-5.4,5.8-11.8,6.9-18.1C337.6,366.9,336.9,357.6,332.8,348.5z M242.2,393.9c0.8,0.7,1.7,1.3,2.6,1.8c-2.4,0.1-4.9-0.1-7.3-0.4
		c0.8-1.5,1.3-3.1,1.7-4.7C240.1,391.8,241.1,392.9,242.2,393.9z"/>
	<path fill="#996632" d="M286.8,95c-0.1-2.9-0.2-5.8-0.3-8.7c-0.1-4-1.8-7-4.2-8.8c-0.4-1.5-0.9-3-1.3-4.5
		c-2.5-8.8-12.8-10.7-19.2-5.1c-0.3,0.3-0.6,0.5-0.8,0.8c-5.3-2.6-12.3-2.6-17.8-1.8c-7.7,1.1-14.3,5.6-17.5,12.8
		c-3,6.9-2.2,14.3-1,21.5c1,6.1,8.6,9.6,14.1,8c5.9-1.6,8.6-6.9,8.2-12.5c3.1,4.2,8.4,6.4,13.5,5.9c0.5,5.6,5.9,10.1,11.5,10.1
		c5.7,0,10-4,11.2-9.2C285.4,101.6,287,98.8,286.8,95z"/>
	<path fill="#2C1500" d="M306.1,356.1c-10.2-3.7-20.4-7.4-30.5-11.1c-3.4-1.2-8.8-2.2-11.4-4.9c-2.3-2.3-2.8-6.7-3.5-9.7
		c-5.1-21.2-8.7-42.7-10.6-64.5c-0.6-7.4-6.4-11.1-12-11.1c0.1-17.1,0.2-34.3,0.3-51.4c0-6.6-4.4-10.3-9.4-11
		c-0.1-3.9-0.2-7.8-0.3-11.7c0-1.5,0-2.9,0.1-4.4c0.1-2.1,0-1.1,0.4-2.6c0.1-0.3,0.2-1.2,0.3-1.8c0.1,0,0.1-0.1,0.2-0.1
		c0,0,0,0,0,0.1c0,0,0-0.1,0.1-0.1c5.2-2.4,8.6-7.8,7-13.7c-1.6-5.7-8.3-10.1-14.1-8c-18.4,6.6-16.9,26.5-16.5,42.5
		c0.6,19.2,1.1,38.4,1.7,57.6c1.1,39.1,2.3,78.1,3.4,117.2c0.1,3,1.3,5.8,3.2,7.9c-1.7,1.8-3.3,3.7-4.8,5.8c0.9,0.4,1.8,1,2.6,1.6
		c0.3,0.2,0.4,0.3,0.6,0.5c0.1,0.1,0.4,0.3,0.7,0.5c0.5,0.4,1,0.8,1.6,1.2c1.5,1.1,3.1,2.3,4.6,3.5c2.4,1.9,4.7,4,6.6,6.4
		c0.3,0.4,0.6,0.8,0.9,1.2c0.5-0.5,0.9-1,1.3-1.6c5.2-7.6,13.4-12.3,22.4-15.4c17.5-0.1,35-0.1,52.6-0.2c5.7,0,10.6-4.4,11.3-10
		C315,362.7,311.6,358.1,306.1,356.1z"/>
	<path d="M294.8,421.3c1.6,1.4,3-0.5,4.9,0.3c-2.9,1.9-6,2.1-8.9,2.7c-0.6,0.1-1.3-0.1-1.3-0.9c0-1.1,1.4-0.8,2.1-2.1
		c-1.8,0.3-3.3,0.5-4.7,0.8c-6.8,1.7-13.8,1.6-20.6,2.7c-8.1,1.4-16.3-0.6-24.3,1.6c-1.4,0.4-3.1-0.2-4.6-0.5
		c-1.7-0.3-3.3-1.6-3.8,1.8c-0.2,1.3-3.7,1.1-5.2,2.7c-0.5,0.5-1.5-0.9-2.2-1.6c-4.5-4.7-8.9-9.7-13.7-14.1c-6-5.6-6.6-12.8-8-20
		c-2.4-11.9-2.8-24-3.9-36.1c-1.6-17.1-2.3-34.2-3.4-51.3c-1.2-17.4-0.8-34.8-1.6-52.1c-0.2-3.4-1.6-6.3-1.9-9.7
		c-1.4-16.5-3.6-33-3-49.6c0.5-12.3,1.6-24.6,2.2-36.9c0.1-2.4,2.1-3.6,3-5.5c2.2-4.7,4.2-9.7,8.4-13.1c2.4-2,4.4-4.3,7.7-5.5
		c4.2-1.6,6.1-5.8,5.9-9.9c-0.7-16.5,2-32.5,5-48.5c1.9-10.2,2.3-20.5,1.5-30.8c-0.6-8.5,1.6-15.7,9.2-20.5c3.6-2.2,7.9-2.5,12-3.3
		c10.4-1.9,20.5-0.3,30.2,3.7c1,0.4,1.4,1.3,1.9,2c1.2,1.9,2.9,3.3,4.6,4.5c3.4,2.2,4.2,5.1,1.5,7.7c-2.6,2.4-2.7,5-1.9,8.1
		c3.6,14.6,4.7,29.6,7.6,44.3c1.3,6.9,2.9,13.9,4.3,20.8c0.4,2.1,1.7,3.1,3.7,3.9c7.6,3.1,14.2,8.1,18.1,15.2
		c5.4,9.9,9.9,20.4,11.1,32c1.1,10.1,3.3,20.1,4.1,30.3c0.5,6.4,0.4,12.9,1,19.3c1.4,16.8,3.6,33.6,4.7,50.5c1,14.9,0.8,29.9,0,44.9
		c-0.7,12.2-0.6,24.5-0.1,36.7c0.2,3.8,0.6,7.7,1.3,11.6c0.6,3.5,0.5,7.3,0,10.9c-1.2,8.8-1.3,17.7-1.2,26.5c0,2.3,0.3,4.4-3.1,4.3
		c-1.8-0.1-1.9,1.9-2.7,3c-2.2,3-3.3,6.8-6.7,8.8c-4.6,2.8-9.2,5.6-14.2,7.6c-0.6,0.2-1.1,0.6-1.7,0.3
		C303.1,416.5,299.3,420.4,294.8,421.3z M234.8,51.7c0-0.6,0.1-1.2,0-1.8c-0.1-0.8,0.9-2.3-0.5-2.3c-1.1,0-3.1,0.1-3.1,2.2
		c0,0.7-0.1,1.4-0.1,2.2c-0.2,12.9-1.7,25.7-3.8,38.5c-0.6,3.8-1.6,7.5-2.4,11.2c-1.5,6.5,0.3,13.2-1.2,19.6c-0.3,1.3-0.3,3.7,0.7,4
		c3.2,0.9,1.3,2.7,0.7,3.6c-1.4,2.2-2.8,5.2-4.7,6.3c-3.5,2.1-5.9,5.2-8.9,7.7c-6.3,5.2-11,11.7-12.7,19.9
		c-1.8,9.1-2.5,18.3-1.8,27.5c0.5,6.8,0.8,13.6,1.3,20.4c1.1,14.8,1.5,29.7,2.1,44.5c0.5,11.3,0.8,22.5,1.2,33.8
		c0.1,1.9,0.4,3.7,1.4,6.3c1.5-7.3,0.2-13.8,1.8-20c0.4,8.3,0.4,16.6,0.4,25c0,0.7-0.2,0.9-0.7,0.6c-1.6-1.2-2.3,0.2-2.5,1.1
		c-0.4,2-0.7,4.5,1,5.7c2,1.4,2.3,1,2.4,3.7c0.8,11.6,0.2,23.3-0.1,34.9c-0.4,13.7,1.6,27.2,3.4,40.7c1.3,9.9,4,18.8,12.5,25
		c1.6,1.2,3.2,2.4,5.1,3.3c6.5,2.8,13.3,2.6,20.1,3.4c9.7,1.1,19.2,0.5,28.7-0.4c14.8-1.4,29.2-5.1,43.1-10.7
		c5.4-2.2,8.9-6.4,10.5-11.6c2.2-7,2.8-14.3,2.8-21.7c0.1-26.2,0.1-52.3,0.9-78.5c0.4-11.7-0.7-23.4-0.4-35.1c0.2-10-1.9-20-2.9-30
		c-1.2-12.5-3.6-24.9-3.8-37.5c-0.4-18.3-4.4-35.7-13.2-51.7c-4.9-8.8-10.7-17.1-21-20.6c-2.7-0.9-3.5-3.8-4.4-6.3
		c2.3-0.9,1.6-2.6,1.3-4.4c-1.8-9.7-3.4-19.3-5.2-29c-1.9-10.2-2.6-20.7-5.6-30.7c-1.1-3.5-2.4-4.2-5.5-2.8
		c-10.5,4.8-21.3,3.6-32.1,1.3C236.4,48.1,234.9,48.5,234.8,51.7z M236.4,40.1c1.9,0.6,3.9,1.1,5.7,1.9c7.8,3.6,15.8,3,23.7,0.7
		c2.6-0.8,4.2-0.5,5.1,1.9c0.3,0.9,0.5,1.4,1.3,0.8c2-1.5,2.1-3.7,1.9-5.8c-0.2-2-0.2-4.4-3-4.5c-6.9-0.3-13.8-1.7-20.7-0.7
		c-2.8,0.4-6.5-0.4-7.7,3.7c-0.2,0.6-0.8,0.3-1.3,0.2C239.3,37.4,238.1,39.1,236.4,40.1z M192.4,214.8c0-5.9,0-11.8,0-17.7
		c-0.4,0-0.7,0-1.1,0C191.2,203.1,190.8,209,192.4,214.8z"/>
	<path d="M277.9,425.1c2.9-0.2,5.8-0.4,8.6-1.4C285.4,426.5,283.4,426.9,277.9,425.1z"/>
	<path d="M273.8,375.2c7.2,0,13.6,1,20,1.6c0.5,0,1,0.1,1.4,0.3c1.3,0.5,2.4,1.4,2,3c-0.4,1.5-1.7,1.3-3,1
		c-6.3-1.5-12.8-1.9-19.3-1.9c-13.8-0.1-26.7,3.5-38.6,10.6c-1.3,0.8-2.4,1.3-3.4-0.1c-1.2-1.6-0.3-2.6,0.9-3.6
		c4.3-3.7,9.8-5.1,15-6.7C257.1,376.7,265.5,374.1,273.8,375.2z"/>
	<g>
		<g>
			<g>
				<g>
					<g>
						<path fill="#FFFFFF" d="M311.3,169.8c0,0.1,0.4,0,0.5,0C311.6,169.7,311.1,169.9,311.3,169.8z"/>
						<polygon fill="#FFFFFF" points="310.1,168.8 310.2,168.8 309.8,168.7 						"/>
						<path fill="#FFFFFF" d="M309.8,167.6c-0.7,0.3,0.2,0.4,0,0.7l-0.2,0.1l0.6,0C310.1,168.1,309.7,167.8,309.8,167.6z"/>
						<path fill="#FFFFFF" d="M311.2,166.7c-0.3,0.1-0.3-0.1-0.1,0.2c0,0,0,0,0.1,0C311.2,166.8,311.2,166.7,311.2,166.7z"/>
						<path fill="#FFFFFF" d="M311.2,166.8C311.2,166.9,311.4,166.6,311.2,166.8L311.2,166.8z"/>
						<path fill="#FFFFFF" d="M310.9,166.2l0.3,0.1c0.2-0.1,0.2-0.2,0.3-0.2C311.3,166,311.2,166.1,310.9,166.2z"/>
						<path fill="#FFFFFF" d="M310.4,166.2l0.1,0.1C310.6,166.2,310.6,166.2,310.4,166.2z"/>
						<path fill="#FFFFFF" d="M310.8,166.4l-0.3-0.1c-0.1,0-0.3,0.1,0.1,0.1C310.4,166.4,310.6,166.3,310.8,166.4z"/>
						<path fill="#FFFFFF" d="M310.7,166.5c-0.1,0.1-0.2,0.3-0.5,0.2C310.4,167,310.8,166.8,310.7,166.5z"/>
						<path fill="#FFFFFF" d="M309.1,167.7l-0.2,0.2l0.3,0.1C309,167.9,309.3,167.6,309.1,167.7z"/>
						<path fill="#FFFFFF" d="M311.1,165.1c-0.2,0-0.4,0.1-0.6,0.2l0.2,0.1C310.8,165.3,310.8,165.2,311.1,165.1z"/>
						<path fill="#FFFFFF" d="M310.5,165.3l-0.3-0.1C310.2,165.4,310.3,165.4,310.5,165.3z"/>
						<polygon fill="#FFFFFF" points="309.6,166.3 310.2,166.5 309.6,166.3 						"/>
						<polygon fill="#FFFFFF" points="310.9,164.4 311.3,164.5 310.7,164.4 						"/>
						<path fill="#FFFFFF" d="M310.8,164c0.3,0,0.5-0.2,0.6-0.2c-0.1-0.1-0.3-0.2-0.6-0.2C311,163.7,311,163.8,310.8,164z"/>
						<path fill="#FFFFFF" d="M310.5,163.5c0.1,0,0.2,0.1,0.4,0.1C310.7,163.6,310.6,163.5,310.5,163.5z"/>
						<path fill="#FFFFFF" d="M310.2,164.9c0.1,0,0.3-0.1,0.4-0.2L310.2,164.9C310.2,164.8,310.2,164.9,310.2,164.9z"/>
						<path fill="#FFFFFF" d="M310.2,164.8L310.2,164.8c0-0.1,0-0.1,0-0.2C310.2,164.7,310.2,164.7,310.2,164.8z"/>
						<path fill="#FFFFFF" d="M310.2,164.9L310.2,164.9C310.2,164.9,310.1,164.9,310.2,164.9z"/>
						<path fill="#FFFFFF" d="M309.9,165.8c-0.3-0.1-0.6-0.2-0.9,0.1C309.3,165.9,309.5,165.7,309.9,165.8z"/>
						<path fill="#FFFFFF" d="M309.7,165.1l-0.1,0.2c0.1,0,0.3-0.1,0.4-0.1L309.7,165.1z"/>
						<polygon fill="#FFFFFF" points="309.5,165 309.7,165.1 309.7,165 						"/>
						<path fill="#FFFFFF" d="M310.1,163.9c-0.2,0-0.2-0.1-0.3-0.2c-0.1,0.1-0.1,0.3-0.1,0.4C309.9,164.1,310.2,164.1,310.1,163.9z"
							/>
						<path fill="#FFFFFF" d="M310.1,164.4L310.1,164.4C310.1,164.4,310.1,164.4,310.1,164.4z"/>
						<path fill="#FFFFFF" d="M309.6,162.7C309.6,162.7,309.6,162.7,309.6,162.7L309.6,162.7L309.6,162.7z"/>
						<path fill="#FFFFFF" d="M309.7,164.1c-0.1,0.1,0.1,0.1,0.2,0.1C309.9,164.2,309.8,164.1,309.7,164.1
							C309.7,164.1,309.7,164.1,309.7,164.1z"/>
						<path fill="#FFFFFF" d="M310.2,163.3c-0.1,0.1-0.1,0.1-0.2,0.2C310.1,163.4,310.3,163.3,310.2,163.3z"/>
						<path fill="#FFFFFF" d="M310.2,164.3L310.2,164.3C310.3,164.3,310.3,164.3,310.2,164.3z"/>
						<path fill="#FFFFFF" d="M310.2,164.3c-0.1,0-0.2,0-0.3-0.1c0,0,0.1,0.1,0.2,0.1C310.1,164.3,310.2,164.3,310.2,164.3z"/>
						<path fill="#FFFFFF" d="M306.9,163c0.4-0.1,0.8,0.1,0.4,0.3c0.3,0.1,1.6-0.3,2.2-0.6c-0.2,0-0.3,0.1-0.6-0.1
							c-0.2,0.1-0.4,0.5-0.8,0.5c-0.3-0.2,0.1-0.2,0.3-0.4c-0.5,0.2-0.8-0.2-1.5,0.1l0.3,0.2C307.2,163,307,162.9,306.9,163z"/>
						<path fill="#FFFFFF" d="M309.6,163.1L309.6,163.1c0.1,0,0.3-0.1,0.5-0.3c-0.2-0.1-0.4-0.1-0.5-0.1L309.6,163.1L309.6,163.1z"
							/>
						<path fill="#FFFFFF" d="M309.8,163.5c-0.4,0-0.7-0.1-1.1,0.1c0.1,0.2,0.4,0.1,0.6,0.2C309.1,163.5,309.5,163.9,309.8,163.5
							c0,0.1,0.1,0.1,0.1,0.2c0-0.1,0.1-0.2,0.1-0.2l0,0l0,0l0,0c0,0-0.1,0-0.1,0c0,0,0,0,0,0C309.9,163.5,309.8,163.5,309.8,163.5
							c0.1-0.1,0.1,0,0.2,0l0.1,0l0,0l-0.3-0.3C309.6,163.3,309.7,163.4,309.8,163.5z"/>
						<path fill="#FFFFFF" d="M308.1,165.9C308.1,165.8,308.1,165.8,308.1,165.9C308.1,165.8,308.1,165.8,308.1,165.9z"/>
						<path fill="#FFFFFF" d="M308.3,165.6c0.1,0,0.2,0,0.2,0.1c-0.1,0.1-0.2,0-0.3,0.1c0.1,0,0.3,0.1,0.5-0.1l-0.1,0
							c0.1-0.2,0.6-0.5,0.7-0.5C308.9,165.4,308.6,165.5,308.3,165.6z"/>
						<path fill="#FFFFFF" d="M308.9,164.6l-0.3-0.3l-0.3,0.2l0.2-0.1C308.5,164.7,308.7,164.6,308.9,164.6z"/>
						<polygon fill="#FFFFFF" points="309.8,162.6 310.3,162.6 309.6,162.5 						"/>
						<polygon fill="#FFFFFF" points="309.7,162.2 310.1,162.2 309.8,162.1 						"/>
						<path fill="#FFFFFF" d="M296.7,143.1l-0.1,0C296.6,143.1,296.7,143.1,296.7,143.1z"/>
						<path fill="#FFFFFF" d="M297,143.6l0.2-0.1C297.1,143.5,297,143.6,297,143.6z"/>
						<path fill="#FFFFFF" d="M306.8,152.4c0.3-0.3,0.8-0.6,0.4-0.4l-0.4,0.2C306.9,152.2,306.9,152.3,306.8,152.4z"/>
						<path fill="#FFFFFF" d="M301.7,147l-0.1,0.1c0.1,0,0.3-0.1,0.4-0.1C301.9,147,301.8,147,301.7,147z"/>
						<path fill="#FFFFFF" d="M300,147.7l0.2-0.3C300.1,147.5,300.1,147.6,300,147.7z"/>
						<path fill="#FFFFFF" d="M294.2,140.7l-0.4,0.2C294,141,294.1,140.8,294.2,140.7z"/>
						<path fill="#FFFFFF" d="M308.5,158.1c0.1-0.2,0.2-0.3,0.2-0.4C308.4,158,308.1,158.2,308.5,158.1z"/>
						<path fill="#FFFFFF" d="M300.6,140.6c-0.1,0-0.2,0-0.3,0.1C300.4,140.7,300.5,140.7,300.6,140.6z"/>
						<path fill="#FFFFFF" d="M308.6,157.5C308.5,157.5,308.5,157.5,308.6,157.5c0,0.2,0.1,0.2,0.1,0.3
							C308.8,157.6,308.9,157.5,308.6,157.5z"/>
						<path fill="#FFFFFF" d="M284.9,133.3C284.9,133.3,284.9,133.3,284.9,133.3C284.9,133.3,284.9,133.3,284.9,133.3z"/>
						<path fill="#FFFFFF" d="M282.7,128c0,0,0.1,0,0.2,0C282.8,127.9,282.8,127.9,282.7,128z"/>
						<path fill="#FFFFFF" d="M309.5,160.6C309.5,160.6,309.5,160.6,309.5,160.6L309.5,160.6z"/>
						<path fill="#FFFFFF" d="M307.9,161.4c-0.1,0-0.1,0-0.2,0C307.8,161.4,307.9,161.4,307.9,161.4z"/>
						<path fill="#FFFFFF" d="M305.7,157.4L305.7,157.4C305.6,157.4,305.7,157.4,305.7,157.4z"/>
						<path fill="#FFFFFF" d="M309.3,160.7c0,0,0.1-0.1,0.1-0.1C309.4,160.6,309.3,160.7,309.3,160.7z"/>
						<path fill="#FFFFFF" d="M309.5,160.7C309.5,160.7,309.5,160.7,309.5,160.7C309.6,160.7,309.6,160.7,309.5,160.7z"/>
						<path fill="#FFFFFF" d="M309.4,160.4c0,0,0,0.1,0,0.1c0,0,0,0,0.1,0C309.5,160.5,309.4,160.5,309.4,160.4z"/>
						<path fill="#FFFFFF" d="M291.1,135.6C291.1,135.6,291.1,135.6,291.1,135.6C291,135.7,291,135.7,291.1,135.6z"/>
						<path fill="#FFFFFF" d="M301.8,151.9C301.8,151.9,301.8,151.9,301.8,151.9L301.8,151.9L301.8,151.9z"/>
						<path fill="#FFFFFF" d="M301.4,151.7c0.5-0.1,0.5,0,0.4,0.1l1.1-0.6L301.4,151.7z"/>
						<path fill="#FFFFFF" d="M295.7,141.9l-0.2,0.4c-0.7,0.2-0.6-0.1-0.9,0.4c1.1-0.8,0.6,0.5,1.7-0.3l-0.1,0.3c0,0-0.1,0-0.1,0
							c-0.4,0.6,0.9-0.4,0.9,0c0,0.2-0.1,0.3-0.3,0.4l0.4,0c0,0.1-0.2,0.2-0.2,0.1l0.3,0.3l0,0c0.2-0.1,0.6-0.2,0.7-0.2
							c-0.1,0.2-0.1,0-0.3,0.2l0.4,0c-0.2,0.3-0.6,0.3-0.7,0.2c-1,0.9,0.4,0,0,0.8l-0.3-0.1c-0.6,0.5-0.3,0.5-0.5,1
							c0.2-0.2,0.8-1,1.2-1c0,0.1,0,0.2,0.3,0.2c-0.4,0.3-0.2,0.3-0.1,0.4l-0.5,0.3c0.2,0,0.5-0.1,0.8-0.2c0,0.2-0.4,0.5-0.7,0.7
							c0.1,0.3,0.6-0.6,0.9-0.3c-0.1,0.3,0.2,0.4,0.7,0.4c-0.1,0.3-0.4,0.2-0.5,0.3l0.5-0.1c0,0-0.1,0.1-0.2,0.1
							c0.2,0,0.6-0.3,0.8-0.2c0.7-0.3-0.7,0.9,0.1,0.7c-0.1,0.1-0.4,0.2-0.6,0.3c0.6,0.1,0.5,0.1,1.2,0l-0.3,0.4
							c0.3-0.4,1-0.4,1.5-0.5c0.2-0.2,0.3-0.3,0.4-0.4l0.5,0.2c-0.1,0.1-0.3,0.2-0.6,0.2c0.1,0,0.1,0,0.2,0
							c-0.2,0.2-0.5,0.3-0.9,0.4c0.1-0.1,0.2-0.2,0.3-0.3c-0.4,0.1-0.8,0.2-1.1,0.4c0.1,0,0.2,0,0.2,0c-0.1,0-0.2,0.1-0.2,0.1
							c-0.1,0,0.1,0,0.3,0l-0.6,0.4l0.3-0.1l-0.2,0.6c0.8,0,1.9-0.2,2.3,0.1c-0.5,0.1-0.8,0.3-1.4,0.6c0.5-0.4-0.4-0.2-0.4-0.5
							c0,0.2-0.3,0.3-0.4,0.3l0.7,0.2c-0.5,0.2-0.3,0.2-0.4,0.4c0.9-0.5,0.7,0,1.1,0.1c-0.3,0.1-0.6,0.2-0.7,0
							c-0.6,0.5,1.2-0.2,0.7,0.3c0,0,0-0.1-0.2,0c0.3,0,0.2,0.4-0.1,0.4l0,0c0,0.4,0.4,1,1.2,0.8c-0.1,0-1,0.3-1.1,0.4l2.9-0.4
							c-0.7,0.2-2.2,1.1-2.7,0.9c-0.1,0.1-0.1,0.3,0.2,0.3c0.1-0.1,0.9-0.5,1-0.5c-0.7,0.5-0.3,0.3-0.9,0.8c0.1-0.1,1.2-0.5,1.2-0.3
							c-0.2,0-1.1,0.4-1.2,0.4l1.2-0.1c-0.2,0-0.9,0.3-1.2,0.5c0.2-0.1,0.1,0.3,0.2,0.3l0.2-0.2c0,0.4,1.6-0.2,1.7,0.2
							c-0.2,0-1.4,0.4-1.5,0.6c0.6-0.1,2.8-0.5,3.3-0.3l-0.3,0.2l0.4,0.1c-0.9,0.1-2.8,0.2-3.5,0.2c-0.2,0.2-0.4,0.2-0.3,0.4
							c-0.3,0.2-0.5,0-0.5,0l0,0.6c0.6-0.2,0.8,0.2,1.3,0l-0.8-0.3c0.6-0.2,1.9-0.3,1.9,0.1c-0.2,0.2-1.2,0.3-1.4,0.4
							c0.2,0,0.5,0.2,0.4,0.3l-0.4,0c-0.2,0.3,1,0,0.4,0.5c0,0.1-0.7,0.5-0.4,0.4c0.7-0.4,2.9-1.1,3.5-1.2c0,0-0.6,0.7-0.9,0.9
							c-0.5,0.3-1.4,0.2-1.9,0.5c0.2,0,0.4,0,0.5,0c-0.1,0.1-0.6,0.1-0.4,0.3c0.7-0.2,0.1,0.4,0.6-0.1c0.2,0.1-0.1,0.2,0,0.4
							c0.4-0.2,1.5-0.2,1.7-0.1c-0.2,0-0.4,0.1-0.5,0.2c0.1,0.4-0.2,0.7-0.1,1.1c-0.1,0.1-0.3,0.3-0.6,0.3c0.1,0,0.4,0,0.4,0.1
							c-0.5,0.4-0.2-0.2-0.8,0.1c0.4-0.1,0.6,0.1,0.9,0.2c0.6-0.2,0-0.4-0.3-0.5c0.8-0.2,1.7-0.2,2.2,0.1c0.3,0.3-0.5,0.3-0.4,0.3
							c0,0.6,1.6,0.1,1.1,0.7c-0.5,0.3-1,0.3-1.4,0.4c-0.3-0.2,0.2-0.5,0.2-0.6l-0.2,0.3c-0.2,0-0.4-0.2-0.2-0.3
							c-0.4,0.3,0.2,1-0.2,1.5c0.2,0,0.4,0.1,0.6,0l-0.1-0.1c0.4-0.2,0.6,0.1,0.8-0.1c0.3,0.1,0.9,0.2,0.7,0.5l-0.6,0.2
							c0.2,0,0.3-0.3,0.1-0.3c0.3,0-0.7,0.6,0.1,0.5l0.4-0.3c0.3,0.1,1,0.2,0.9,0.5c0.6-0.2-0.1,0,0.6-0.4c-0.8,0.4-0.1-0.6-1-0.2
							c0.8-0.4,0.3-0.4,0.9-0.8c-0.2,0.1-0.4,0.2-0.3-0.1c-0.1,0-0.1,0-0.2,0l0,0l0,0c0,0,0,0,0,0c-0.1,0.1-0.2,0.1-0.3,0.2
							c-0.5,0-0.5-0.3-0.8-0.4c0.1-0.1,0.2,0,0.4-0.1l-0.4-0.1c0.4-0.1,0.6-0.5,1-0.3l0-0.3c0.2-0.2,0.2-0.4,0-0.5
							c0.1-0.1-0.6-0.2-0.2-0.2l-0.4-0.3l0.1,0c0-0.4-0.9-0.6-0.3-1.3c-0.1-0.1-0.3-0.2-0.3-0.5l0.4-0.1c-0.2-0.1,0.2-0.6-0.2-0.6
							c0.9-0.5,0-0.9,0.1-1.2l-0.5,0.1c0-0.2-0.2-0.4-0.5-0.6l-0.4,0.2c-0.4-0.1,0.1-0.7,0-1c0.2,0,0.2,0.1,0.1,0.2
							c0.8-0.7-1-0.6-0.4-1.2c-0.2,0-0.2-0.1-0.1-0.2c0,0,0,0,0,0c0,0,0,0,0,0c0.1-0.1,0.1-0.1,0.2-0.2c-0.1,0.1-0.2,0.1-0.2,0.2
							c0-0.1-0.1-0.2-0.3-0.2l0.4-0.2c0,0,0,0,0,0c0.1-0.2-0.2,0-0.6,0.2c-0.1,0-0.2,0-0.3,0c0.7-0.3-0.3-0.2,0.4-0.6
							c-0.4,0.1-0.5-0.4-1.3-0.2c0.1,0,0.1-0.1,0.2,0c0-0.1,0.1-0.3-0.2-0.3l0.6-0.3l-0.9,0c0.3-0.3,0.5-0.4,1-0.5
							c-0.8-0.1-0.4-0.2-1.2-0.2l0.4-0.1c-0.1-0.1-0.6-0.1-0.3-0.3c0.6-0.5-0.4-1.2-0.1-2.2c-1,0.6,0.3-0.5-0.5-0.2
							c0.2-0.2,0.3-0.3,0.6-0.3c-0.4-0.2,0.2-0.7-0.6-0.6c0.2-0.2,0.4-0.1,0.5-0.2c-0.1,0-0.3,0-0.1-0.1c0.1-0.1,0.2-0.1,0.4-0.1
							c-0.2-0.3-1,0-1.7,0.4c0.3-0.3,0.2-0.4-0.4-0.3c0.2-0.2,0.4-0.4,0.6-0.2c0-0.1,0-0.9-0.6-0.6c0.1-0.1,0-0.2-0.1-0.2
							c-0.1-0.3-0.1-0.3-0.2-0.5l-0.1,0.1c-0.7,0.3-0.3-0.1-0.5-0.3l0.1,0c0.2-0.7-0.3-0.1,0-0.8l-0.4,0.3c-0.9,0.5,0.3-0.7-0.2-0.7
							l-0.2,0.2c-0.4,0.1,1-1.1,1-1.3c0.1-0.1,0.2,0,0.2,0c0.3-0.7-0.6,0.3-0.9,0.1c0.3-0.2,0.8-0.4,0.7-0.6
							c0.2-0.2-1.3,0.1-0.9-0.5c-0.2,0.2-0.4,0.4-0.6,0.4c-0.2-0.1,0.5-1.1-0.3-0.8c0-0.1,0.1-0.1,0.1-0.2c-0.3,0-0.6-0.3-1-0.1
							c1.2-1.1-1.3-0.4-0.1-1.3l-0.4-0.4l0.1-0.1c-0.1-0.3-0.5-0.2-0.9-0.1c0-0.1,0.2-0.2,0.2-0.2c-0.1-0.6-0.2-0.6-1-0.4l0.3-0.4
							c-0.3,0.1,0.1-1.1-0.7-1c0,0,0.1-0.1,0.2-0.1c-0.8,0,0.1-1.9-1.4-0.8l-0.6,0.1c0.2,0.4-0.6,0.5-0.7,0.9c-0.2,0,0-0.7,0.3-0.6
							l0,0.1c0.7-0.6-0.2-0.6,0.3-1.1c-0.7-0.6-1-1.6-1.7-2.2l-0.4,0.6l-0.2-0.2c0-0.2,0.3-0.5,0.4-0.4c0.2-0.4-0.5,0-0.6,0.2
							c-0.2-0.5,0.6-0.6,0.6-0.7l-0.2-0.1l0,0.1c-0.3,0.1-0.5,0.4-0.7,0.2c0-0.2,0.2-0.4,0.2-0.5c0,0,0-0.1-0.1-0.1l-0.3-0.3
							l-0.2,0.6c-0.3,0.1-0.3-0.2-0.5,0.4c0.4-1-1-1.1-0.9-1.4c-0.4,0.2-0.6,0.1-0.8-0.1c0,0.1-0.3,0.7-0.5,0.5
							c0.8-1.1-0.1-0.7,0.2-1.7c-0.1,0.6-0.7-0.2-0.9,0.7c-0.1-0.2,0.2-0.4,0.2-0.8c-0.7,0.2-0.8-0.8-1.5-0.9
							c-0.1,0.2-0.1,0.4-0.3,0.6l0.1-0.9c-0.2,0-0.5,0.9-0.5,0.2c0,0.1-0.1,0.4-0.2,0.4c-0.4-0.6-1.1-0.7-1.7-0.8
							c-0.6-0.1-1.2-0.3-1.6-1.2c0.1,0.4,0,0.4-0.2,0.4c0.1,0.1-0.1,0.4-0.1,0.7l-0.4-0.8c-0.2,0.6-0.6-0.1-0.7,0.5l0.2-0.1
							c-0.3,0.7,0,1.7-0.3,2.6c0.4-0.8,0.3,1.3,0.9,0.2c0,0.2-0.1,0.3-0.2,0.5c0.2-0.4,0.3-0.4,0.5-0.2l0,0.1c0.6,0.1,0.7,0.5,1.2,1
							l0.1-0.5c0.1,0.1,0.1,0.3,0.1,0.4c0.4-0.6-0.3-0.2,0.1-0.9c-0.2,1,0.9,0.4,0.6,1.4c0.2,0.1,0.1-0.5,0.3-0.5l-0.1,0.3l0.2-0.3
							c0.1,0.1,0,0.5-0.1,0.7c0,0-0.1,0-0.1,0c0,0.4,0.5,0.1,0.5,0.2l-0.1-0.2c0.6,0,1.1,0.6,1.8,0.3l0.1-0.2
							c0.6-0.2,0.2,0.4,0.7,0.4l0,0c0.2-0.2,0.4-0.2,0.4-0.1c-0.2,0.2-0.1,0.6-0.4,0.7c0.6-0.1,0.4-0.2,1.1-0.7l-0.1,0.4
							c0.3-0.2,0.4-0.4,0.6-0.3c-0.3,0.2-0.2,0.6-0.6,0.8c0,0.9,1.1-0.3,0.6,0.8c0.8-0.7,0-0.7,0.2-0.8c0.1-0.3,0.6-0.5,0.7-0.3
							c0.1,0.1-0.5,1.2-0.2,1.4c0,0-0.1,0-0.1,0c0,0.3,0.4-0.1,0.3,0.3c0.5-0.4,0.2,0.2,0.7-0.4l-0.4-0.1c0.3,0,1-0.7,1-0.1
							c-0.1,0.1-0.3,0.2-0.5,0.3c-0.1,0.2,0.2,0,0.2,0.2c-0.5,0.6-0.5-0.1-1,0.2c-0.1,0.3,0.7-0.2,0.1,0.4c0.8-0.8,0.2,0.3,0.9-0.1
							l-0.3,0.4c0.1,0,0.3-0.2,0.3-0.1l-0.5,0.4c0.5-0.3,0,0.6,0.3,0.5c-0.3-0.3,0.3-0.5,0.4-0.9c0.8-0.1-0.6,1.1,0,1.3
							c-0.1,0,0-0.4,0.2-0.5c0,0.1,0,0.4-0.1,0.6c0.4,0.2,0.3-0.4,0.6-0.5c-0.3,0.5,0.3,0,0.6-0.1l-0.3,0.4c0.1,0.5,0.8-0.6,0.8-0.1
							l-0.6,0.4l0.3,0l-0.4,0.4c0.4-0.1,0.4,0,0.5,0.3c0.2-0.3,0.6-0.6,0.8-0.5c-0.1,0.3-0.4,0.3-0.1,0.4c-0.3,0.2-0.6,0.4-0.4,0
							c-0.1,0.1-0.3,0.2-0.4,0.3c-0.1,0.3,0.2,0.3,0.3,0.4c0,0,0-0.1,0-0.2l0.8-0.2c-0.1,0.2-0.2,0.2-0.4,0.3c0.1,0,0.3-0.1,0.4,0
							c-0.3,0.2-0.6,0.5-0.8,0.5l0.6,0c-0.1,0.1-0.2,0.5-0.4,0.5c0,0.3,0.9-0.1,0.9,0.3c0.1,0,0.1-0.1,0.2-0.1
							c0.1,0.3-0.1,0.7,0.5,0.6l-0.4,0.6c0.3,0.1,0.5-0.7,1-0.6c0.4,0.1-0.4,0.5-0.5,0.7c0.4-0.1,1.1-0.4,0.8,0.2
							C295.8,142.1,295.8,142,295.7,141.9z M297.7,144.2c-0.1,0-0.4,0.1-0.2-0.1C298,143.9,297.8,144.1,297.7,144.2z M301.1,147.8
							c-0.2,0-0.1-0.1,0-0.2C301.1,147.6,301.1,147.7,301.1,147.8z M308.8,159.7C308.8,159.7,308.8,159.7,308.8,159.7
							C309,159.5,308.9,159.6,308.8,159.7z M308.7,160.1c0.1,0,0.1,0,0.2,0c-0.1,0-0.1-0.1-0.1-0.1
							C308.7,159.9,308.6,160,308.7,160.1z M292.4,132.5l0,0.1C292.1,132.7,292.2,132.6,292.4,132.5z"/>
						<path fill="#FFFFFF" d="M300.2,147.6c0.1-0.1,0.1-0.1,0.2-0.1C300.4,147.5,300.3,147.5,300.2,147.6z"/>
						<polygon fill="#FFFFFF" points="294.3,140.6 294.3,140.6 294.2,140.7 						"/>
						<path fill="#FFFFFF" d="M303.6,156.8c0-0.1,0.1-0.1,0.2-0.2C303.7,156.7,303.6,156.7,303.6,156.8z"/>
						<path fill="#FFFFFF" d="M309.9,161.4l-0.2-0.2c0,0.1,0,0.1-0.1,0.2C309.7,161.4,309.9,161.3,309.9,161.4z"/>
						<path fill="#FFFFFF" d="M307.4,163.7C307.4,163.7,307.4,163.7,307.4,163.7l0.3,0C307.6,163.6,307.4,163.5,307.4,163.7z"/>
						<path fill="#FFFFFF" d="M308.4,161.9c-0.4,0.1-0.2,0.2-0.1,0.3c0,0,0,0,0,0C308.8,162.1,308.6,162,308.4,161.9z"/>
						<path fill="#FFFFFF" d="M308.3,162.3c0,0,0,0.1,0,0.1C308.5,162.4,308.4,162.3,308.3,162.3z"/>
						<path fill="#FFFFFF" d="M309.1,160.4c-0.1,0.1,0.5-0.1,0.4,0C310,160.3,308.7,160.1,309.1,160.4z"/>
						<polygon fill="#FFFFFF" points="307.1,162.4 307.6,162.2 307.2,162.2 						"/>
						<path fill="#FFFFFF" d="M307.2,161.3l-0.1,0.2c0.1,0,0.1,0,0.2,0C307.3,161.4,307.4,161.2,307.2,161.3z"/>
						<path fill="#FFFFFF" d="M307.3,161.5c0,0.1,0,0.1,0.1,0.1C307.4,161.6,307.4,161.6,307.3,161.5z"/>
						<polygon fill="#FFFFFF" points="306.9,162.1 307,162 307,161.9 						"/>
						<path fill="#FFFFFF" d="M306.7,159.1l-0.2-0.2c-0.2,0-0.3,0.1-0.2,0.2C306.5,159.1,306.6,159.1,306.7,159.1z"/>
						<path fill="#FFFFFF" d="M305.6,160.1c0.1-0.1,0.2-0.1,0.3-0.2l-0.6,0.2L305.6,160.1z"/>
						<path fill="#FFFFFF" d="M305.3,159.5c-0.2,0-0.6-0.2-0.5,0.1C305,159.5,305.2,159.7,305.3,159.5z"/>
						<polygon fill="#FFFFFF" points="305.1,156 305.1,156 306.1,155.7 						"/>
						<path fill="#FFFFFF" d="M301.8,153.9c-0.1,0.3,0.6-0.2,0.4,0.2c0.2,0,0.2-0.3,0.4-0.3C302.3,153.8,302.4,153.6,301.8,153.9z"
							/>
						<path fill="#FFFFFF" d="M302.6,153.8c0,0,0.1,0,0.2,0C302.7,153.8,302.7,153.8,302.6,153.8z"/>
						<polygon fill="#FFFFFF" points="282.1,127.3 282,127 282,127.4 						"/>
						<path fill="#FFFFFF" d="M281.6,127.9l0.1-0.6l-0.2,0.6C281.5,127.8,281.6,127.8,281.6,127.9z"/>
						<path fill="#FFFFFF" d="M296.9,145.3l0.1-0.1c0.1-0.1,0.1-0.1,0.1-0.2L296.9,145.3z"/>
						<polygon fill="#FFFFFF" points="296.1,143.3 296.1,143.3 296.5,142.9 						"/>
						<path fill="#FFFFFF" d="M294.4,142.3c0,0.1,0.2,0.1,0.2,0.1C294.4,142.3,294.9,141.8,294.4,142.3z"/>
					</g>
				</g>
			</g>
		</g>
	</g>
	<g>
		<g>
			<g>
				<g>
					<g>
						<path fill="#FFFFFF" d="M273.8,104.1c0,0.1,0.4-0.1,0.4-0.1C274.2,103.9,273.7,104.2,273.8,104.1z"/>
						<polygon fill="#FFFFFF" points="272.6,103.7 272.8,103.6 272.4,103.7 						"/>
						<path fill="#FFFFFF" d="M272.3,102.9c-0.6,0.3,0.2,0.2,0,0.5l-0.1,0.1l0.6-0.1C272.6,103.2,272.2,103.1,272.3,102.9z"/>
						<path fill="#FFFFFF" d="M273.6,102c-0.2,0.1-0.3,0,0,0.1C273.6,102.1,273.6,102,273.6,102C273.6,102,273.6,102,273.6,102z"/>
						<path fill="#FFFFFF" d="M273.6,102C273.7,102.1,273.8,101.9,273.6,102L273.6,102z"/>
						<path fill="#FFFFFF" d="M273.3,101.7l0.3,0c0.1-0.1,0.1-0.2,0.3-0.2C273.7,101.5,273.6,101.6,273.3,101.7z"/>
						<path fill="#FFFFFF" d="M272.8,101.8l0.1,0C273,101.8,273,101.8,272.8,101.8z"/>
						<path fill="#FFFFFF" d="M273.2,101.9l-0.2,0c-0.1,0.1-0.3,0.1,0.1,0C272.8,101.9,273,101.9,273.2,101.9z"/>
						<path fill="#FFFFFF" d="M273.1,102c-0.1,0.1-0.2,0.2-0.5,0.2C272.8,102.3,273.3,102.1,273.1,102z"/>
						<path fill="#FFFFFF" d="M271.6,103.1l-0.2,0.2l0.3,0C271.6,103.3,271.8,103.1,271.6,103.1z"/>
						<path fill="#FFFFFF" d="M273.5,100.9c-0.1,0-0.4,0.2-0.5,0.3l0.2,0C273.2,101.1,273.2,101,273.5,100.9z"/>
						<path fill="#FFFFFF" d="M272.9,101.2l-0.3,0C272.6,101.3,272.8,101.3,272.9,101.2z"/>
						<polygon fill="#FFFFFF" points="272.1,102.1 272.7,102.1 272.1,102 						"/>
						<polygon fill="#FFFFFF" points="273.3,100.5 273.7,100.4 273.1,100.5 						"/>
						<path fill="#FFFFFF" d="M273.1,100.2c0.3,0,0.4-0.2,0.6-0.2c-0.1-0.1-0.3,0-0.6,0C273.3,100,273.3,100,273.1,100.2z"/>
						<path fill="#FFFFFF" d="M272.9,100c0.1,0,0.2,0,0.3,0C273.1,99.9,273,99.9,272.9,100z"/>
						<path fill="#FFFFFF" d="M272.6,100.9c0.1,0,0.3-0.1,0.4-0.2L272.6,100.9L272.6,100.9z"/>
						<path fill="#FFFFFF" d="M272.6,100.9L272.6,100.9c0-0.1,0-0.1,0-0.1C272.6,100.8,272.6,100.8,272.6,100.9z"/>
						<path fill="#FFFFFF" d="M272.6,100.9L272.6,100.9C272.6,101,272.6,101,272.6,100.9z"/>
						<path fill="#FFFFFF" d="M272.3,101.6c-0.2,0-0.5,0-0.8,0.2C271.8,101.8,271.9,101.6,272.3,101.6z"/>
						<path fill="#FFFFFF" d="M272.1,101.2l0,0.2c0.1,0,0.3-0.1,0.4-0.1L272.1,101.2z"/>
						<polygon fill="#FFFFFF" points="272,101.2 272.1,101.2 272.2,101.1 						"/>
						<path fill="#FFFFFF" d="M272.6,100.3c-0.2,0-0.2,0-0.3-0.1c-0.1,0.1-0.1,0.2,0,0.3C272.4,100.4,272.6,100.4,272.6,100.3z"/>
						<path fill="#FFFFFF" d="M272.5,100.6L272.5,100.6C272.5,100.6,272.5,100.6,272.5,100.6z"/>
						<path fill="#FFFFFF" d="M272,99.5C272,99.5,272,99.6,272,99.5L272,99.5L272,99.5z"/>
						<path fill="#FFFFFF" d="M272.2,100.5c-0.1,0.1,0.1,0.1,0.2,0.1C272.3,100.5,272.2,100.5,272.2,100.5
							C272.2,100.5,272.1,100.5,272.2,100.5z"/>
						<path fill="#FFFFFF" d="M272.6,99.8c-0.1,0.1-0.1,0.1-0.2,0.2C272.5,99.9,272.7,99.8,272.6,99.8z"/>
						<path fill="#FFFFFF" d="M272.6,100.5L272.6,100.5C272.7,100.5,272.7,100.5,272.6,100.5z"/>
						<path fill="#FFFFFF" d="M272.6,100.5c-0.1,0-0.2,0-0.3,0c0,0,0.1,0,0.2,0C272.5,100.6,272.6,100.6,272.6,100.5z"/>
						<path fill="#FFFFFF" d="M269.4,100.2c0.4-0.1,0.8-0.1,0.4,0.2c0.3,0,1.5-0.5,2.2-0.8c-0.2,0.1-0.3,0.1-0.6,0.1
							c-0.2,0.1-0.4,0.4-0.8,0.5c-0.2-0.1,0.1-0.2,0.3-0.3c-0.4,0.2-0.8,0-1.4,0.3l0.3,0.1C269.7,100.1,269.5,100.1,269.4,100.2z"/>
						<path fill="#FFFFFF" d="M272,99.8L272,99.8c0.1,0,0.2-0.1,0.5-0.3c-0.2,0-0.4,0-0.5,0L272,99.8L272,99.8z"/>
						<path fill="#FFFFFF" d="M272.2,100.1c-0.4,0.1-0.6,0-1.1,0.3c0.1,0.1,0.4,0,0.6,0C271.5,100.2,271.9,100.4,272.2,100.1
							c0,0,0.1,0.1,0.1,0.1c0-0.1,0.1-0.1,0.1-0.2l0,0l0,0l0,0c0,0-0.1,0-0.1,0c0,0,0,0,0,0C272.3,100.1,272.2,100.1,272.2,100.1
							c0.1-0.1,0.1,0,0.2,0l0.1,0l0,0l-0.3-0.2C272,99.9,272.1,100,272.2,100.1z"/>
						<path fill="#FFFFFF" d="M270.6,102C270.6,102,270.6,102,270.6,102C270.6,102,270.6,102,270.6,102z"/>
						<path fill="#FFFFFF" d="M270.8,101.8c0.1,0,0.2,0,0.2,0c-0.1,0.1-0.2,0.1-0.3,0.1c0.1,0,0.3,0,0.5-0.2l-0.1,0
							c0.1-0.1,0.6-0.5,0.6-0.5C271.4,101.5,271.1,101.6,270.8,101.8z"/>
						<path fill="#FFFFFF" d="M271.4,101l-0.3-0.1l-0.3,0.2l0.2-0.1C270.9,101.2,271.2,101,271.4,101z"/>
						<polygon fill="#FFFFFF" points="272.2,99.4 272.7,99.3 272,99.4 						"/>
						<polygon fill="#FFFFFF" points="272.1,99.2 272.5,99.1 272.2,99.1 						"/>
						<path fill="#FFFFFF" d="M263.7,84.7l-0.1-0.1C263.6,84.7,263.6,84.7,263.7,84.7z"/>
						<path fill="#FFFFFF" d="M263.7,85.2l0.2,0C263.8,85.2,263.7,85.2,263.7,85.2z"/>
						<path fill="#FFFFFF" d="M270.2,92.7c0.3-0.2,0.9-0.4,0.4-0.3l-0.4,0.1C270.3,92.6,270.2,92.6,270.2,92.7z"/>
						<path fill="#FFFFFF" d="M266.6,88.7c0,0-0.1,0-0.1,0.1c0.2,0,0.3,0,0.4,0C266.8,88.7,266.7,88.7,266.6,88.7z"/>
						<path fill="#FFFFFF" d="M264.8,88.9l0.3-0.2C265,88.8,264.9,88.9,264.8,88.9z"/>
						<path fill="#FFFFFF" d="M262.9,82.2l-0.4,0C262.5,82.3,262.7,82.2,262.9,82.2z"/>
						<path fill="#FFFFFF" d="M271.1,96.6c0.1-0.1,0.2-0.2,0.2-0.3C271.1,96.5,270.7,96.6,271.1,96.6z"/>
						<path fill="#FFFFFF" d="M268.2,84.3c-0.1,0-0.2,0-0.3,0C268.1,84.3,268.1,84.3,268.2,84.3z"/>
						<path fill="#FFFFFF" d="M271.2,96.1C271.2,96.1,271.2,96.1,271.2,96.1c0,0.1,0.1,0.1,0.1,0.2
							C271.4,96.2,271.5,96.1,271.2,96.1z"/>
						<path fill="#FFFFFF" d="M262.7,72.7C262.8,72.7,262.8,72.7,262.7,72.7C262.7,72.7,262.7,72.7,262.7,72.7z"/>
						<path fill="#FFFFFF" d="M267.2,70.1c0,0,0,0.1,0,0.1C267.2,70.1,267.2,70.1,267.2,70.1z"/>
						<path fill="#FFFFFF" d="M271.9,98.1C272,98.1,272,98.1,271.9,98.1L271.9,98.1z"/>
						<path fill="#FFFFFF" d="M270.4,98.9c-0.1,0-0.1,0-0.2,0C270.3,98.9,270.3,98.9,270.4,98.9z"/>
						<path fill="#FFFFFF" d="M268.5,96.3L268.5,96.3C268.4,96.3,268.4,96.3,268.5,96.3z"/>
						<path fill="#FFFFFF" d="M271.8,98.2c0,0,0.1-0.1,0.1-0.1C271.8,98.1,271.8,98.2,271.8,98.2z"/>
						<path fill="#FFFFFF" d="M272,98.2C272,98.2,271.9,98.2,272,98.2C272,98.2,272.1,98.2,272,98.2z"/>
						<path fill="#FFFFFF" d="M271.9,98c0,0,0,0.1,0,0.1C271.9,98.1,271.9,98.1,271.9,98C271.9,98.1,271.9,98.1,271.9,98z"/>
						<path fill="#FFFFFF" d="M264,77.7C264.1,77.7,264.1,77.7,264,77.7C263.9,77.6,263.9,77.7,264,77.7z"/>
						<path fill="#FFFFFF" d="M265.4,92.2C265.4,92.2,265.4,92.2,265.4,92.2L265.4,92.2L265.4,92.2z"/>
						<path fill="#FFFFFF" d="M265,92.1c0.5,0,0.5,0,0.4,0.1l1.2-0.4L265,92.1z"/>
						<path fill="#FFFFFF" d="M263.4,83.6l-0.4,0.2c-0.7-0.1-0.5-0.3-1-0.1c1.4-0.1,0.2,0.6,1.6,0.4l-0.3,0.1c0,0-0.1,0-0.1-0.1
							c-0.6,0.3,1,0,0.8,0.3c-0.1,0.1-0.3,0.2-0.4,0.2l0.4,0.2c0,0.1-0.3,0.1-0.2,0l0.1,0.3l0,0c0.2,0,0.6,0.1,0.7,0.1
							c-0.2,0.1-0.1,0-0.3,0l0.3,0.1c-0.3,0.1-0.7,0-0.7-0.1c-1.3,0.4,0.4,0.1-0.4,0.5l-0.2-0.1c-0.7,0.2-0.4,0.3-0.9,0.6
							c0.2-0.1,1.1-0.5,1.5-0.4c-0.1,0.1-0.1,0.1,0.2,0.2c-0.5,0.1-0.3,0.2-0.3,0.3l-0.6,0.1c0.2,0.1,0.5,0,0.8,0.1
							c0,0.2-0.5,0.3-0.9,0.4c-0.1,0.2,0.8-0.3,0.9,0c-0.2,0.2,0.1,0.3,0.5,0.5c-0.2,0.2-0.4,0-0.6,0.1l0.5,0c0,0-0.2,0-0.2,0.1
							c0.2,0.1,0.6-0.1,0.8,0c0.7-0.1-1,0.5-0.1,0.6c-0.2,0.1-0.4,0-0.6,0.1c0.6,0.2,0.4,0.2,1.2,0.2l-0.4,0.3
							c0.4-0.2,1-0.2,1.5-0.1c0.2-0.1,0.4-0.2,0.5-0.2l0.4,0.2c-0.1,0-0.3,0.1-0.6,0.1c0.1,0,0.1,0,0.2,0c-0.2,0.1-0.6,0.2-0.9,0.2
							c0.1-0.1,0.2-0.1,0.4-0.2c-0.4,0-0.8,0-1.2,0.1c0.1,0,0.1,0,0.2,0c-0.1,0-0.2,0-0.3,0c-0.1,0,0.1,0,0.2,0l-0.7,0.2l0.3,0
							l-0.4,0.4c0.7,0.1,1.8,0.1,2.2,0.4c-0.5,0-0.8,0.2-1.4,0.3c0.6-0.2-0.3-0.2-0.2-0.4c0,0.1-0.3,0.1-0.4,0.1l0.6,0.2
							c-0.5,0.1-0.4,0.1-0.5,0.3c1-0.3,0.7,0.1,1,0.2c-0.3,0.1-0.7,0.1-0.6-0.1c-0.7,0.3,1.2,0,0.6,0.3c0,0,0-0.1-0.1-0.1
							c0.3,0,0.1,0.3-0.2,0.3l0,0c-0.1,0.3,0.2,0.8,1,0.7c-0.1,0-1,0.2-1.2,0.2l2.9-0.2c-0.7,0.1-2.4,0.7-2.8,0.5
							c-0.1,0.1-0.2,0.2,0.1,0.3c0.1-0.1,1-0.3,1.1-0.3c-0.8,0.3-0.4,0.2-1,0.6c0.1-0.1,1.3-0.3,1.3-0.2c-0.2,0-1.1,0.3-1.2,0.3
							l1.2,0c-0.2,0-0.9,0.2-1.2,0.3c0.2-0.1,0,0.2,0.2,0.3l0.2-0.2c-0.1,0.3,1.6-0.1,1.6,0.2c-0.2,0-1.4,0.3-1.5,0.4
							c0.6-0.1,2.8-0.4,3.2-0.3l-0.3,0.1l0.4,0.1c-0.9,0.1-2.7,0.2-3.4,0.2c-0.2,0.2-0.4,0.1-0.3,0.3c-0.3,0.1-0.5,0-0.5,0l-0.1,0.4
							c0.6-0.2,0.7,0.1,1.3,0l-0.8-0.2c0.6-0.2,1.9-0.2,1.9,0c-0.2,0.1-1.2,0.3-1.4,0.3c0.2,0,0.5,0.1,0.3,0.2l-0.4,0
							c-0.2,0.2,0.9,0,0.4,0.4c0,0.1-0.8,0.4-0.4,0.3c0.7-0.3,3-0.9,3.6-1c0,0-0.6,0.5-1,0.7c-0.6,0.3-1.4,0.2-1.9,0.5
							c0.2,0,0.4-0.1,0.5,0c-0.1,0.1-0.6,0.1-0.4,0.2c0.7-0.2,0,0.3,0.6-0.1c0.2,0.1-0.1,0.2,0,0.3c0.4-0.2,1.5-0.3,1.7-0.2
							c-0.2,0-0.4,0.1-0.5,0.2c0,0.3-0.2,0.5-0.2,0.8c-0.2,0.1-0.3,0.3-0.6,0.3c0.1,0,0.4,0,0.4,0c-0.5,0.3-0.1-0.1-0.8,0.2
							c0.4-0.1,0.6,0,0.9,0.1c0.6-0.2,0-0.3-0.2-0.3c0.8-0.2,1.7-0.3,2.2-0.2c0.3,0.1-0.5,0.2-0.4,0.2c0,0.4,1.5-0.1,1,0.4
							c-0.5,0.3-1,0.3-1.4,0.5c-0.2-0.1,0.2-0.4,0.2-0.5l-0.2,0.2c-0.2,0-0.4-0.1-0.2-0.2c-0.4,0.3,0.1,0.7-0.2,1.1
							c0.2,0,0.4,0,0.6-0.1l-0.1-0.1c0.4-0.2,0.6,0,0.8-0.2c0.3,0,0.8,0,0.7,0.3l-0.6,0.2c0.2-0.1,0.3-0.2,0.1-0.2
							c0.3,0-0.7,0.5,0.1,0.4l0.4-0.3c0.3,0,1,0,0.9,0.2c0.6-0.3-0.1,0,0.6-0.3c-0.8,0.4-0.1-0.4-0.9,0c0.7-0.4,0.3-0.3,0.9-0.7
							c-0.2,0.1-0.4,0.2-0.3,0c-0.1,0-0.1,0-0.2,0l0,0l0,0c0,0,0,0,0,0c-0.1,0.1-0.2,0.1-0.3,0.2c-0.5,0.1-0.5-0.1-0.8-0.1
							c0.1-0.1,0.2,0,0.4-0.1l-0.4,0c0.4-0.1,0.6-0.4,1-0.3l0-0.2c0.2-0.2,0.3-0.3,0.1-0.4c0.1-0.1-0.5,0-0.2-0.1l-0.3-0.2l0.1,0
							c0-0.3-0.9-0.3-0.2-0.8c-0.1-0.1-0.3-0.1-0.2-0.3l0.4-0.1c-0.2-0.1,0.3-0.4-0.1-0.4c1-0.4,0.1-0.6,0.2-0.8l-0.5,0.1
							c0-0.1-0.2-0.2-0.4-0.3l-0.4,0.1c-0.4,0,0.2-0.5,0.1-0.7c0.2,0,0.1,0,0.1,0.1c0.9-0.5-0.9-0.4-0.2-0.8c-0.2,0-0.1-0.1,0-0.2
							c0,0,0,0,0,0c0,0,0,0,0,0c0.1,0,0.1-0.1,0.2-0.1c-0.1,0.1-0.2,0.1-0.2,0.1c0,0-0.1-0.1-0.2-0.1l0.5-0.1c0,0,0,0,0,0
							c0.2-0.1-0.2,0-0.6,0.1c-0.1,0-0.2,0-0.3,0c0.7-0.2-0.3-0.1,0.5-0.4c-0.4,0-0.4-0.3-1.2-0.1c0.1,0,0.2-0.1,0.2,0
							c0.1-0.1,0.1-0.2-0.1-0.2l0.6-0.2l-0.8,0c0.3-0.2,0.5-0.3,1-0.3c-0.8-0.1-0.3-0.1-1.1-0.2l0.4-0.1c0-0.1-0.6-0.1-0.3-0.2
							c0.7-0.3-0.1-0.9,0.5-1.5c-1.1,0.3,0.5-0.3-0.4-0.1c0.3-0.1,0.4-0.2,0.7-0.1c-0.3-0.2,0.4-0.4-0.4-0.4c0.3-0.1,0.4,0,0.6-0.1
							c-0.1,0-0.2,0-0.1-0.1c0.2-0.1,0.2,0,0.4,0c-0.1-0.2-0.9-0.1-1.7,0c0.3-0.2,0.3-0.2-0.2-0.2c0.2-0.1,0.5-0.2,0.6-0.1
							c0-0.1,0.3-0.6-0.3-0.5c0.2-0.1,0-0.1-0.1-0.1c0-0.2,0.1-0.2,0-0.4l-0.1,0.1c-0.8,0.1-0.2-0.1-0.3-0.3l0.1,0
							c0.5-0.4-0.3-0.1,0.3-0.5l-0.5,0.1c-1,0.1,0.6-0.4,0.1-0.5l-0.3,0.1c-0.4-0.1,1.3-0.5,1.4-0.6c0.1,0,0.1,0,0.2,0
							c0.6-0.4-0.6,0.1-0.8-0.1c0.3-0.1,0.9-0.1,0.9-0.2c0.3-0.1-1.2-0.2-0.5-0.5c-0.3,0.1-0.5,0.2-0.7,0.1
							c-0.1-0.1,0.9-0.5,0.1-0.6c0.1,0,0.1,0,0.2-0.1c-0.2-0.1-0.4-0.3-0.9-0.3c1.6-0.3-0.9-0.6,0.6-0.8l-0.1-0.3l0.2,0
							c0.1-0.2-0.3-0.3-0.7-0.3c0.1-0.1,0.2,0,0.3,0c0.3-0.4,0.2-0.4-0.6-0.6l0.5-0.1c-0.3,0,0.7-0.5,0.1-0.8c0.1,0,0.2,0,0.2,0
							c-0.6-0.3,1.3-1-0.5-0.9l-0.5-0.2c-0.1,0.3-0.8,0-1.1,0.2c-0.1-0.1,0.5-0.4,0.6-0.2l-0.1,0c0.9,0,0.3-0.4,0.9-0.5
							c-0.1-0.6,0.4-1.2,0.4-1.8l-0.7,0.1l0-0.2c0.2-0.1,0.6-0.1,0.5,0c0.4-0.1-0.4-0.2-0.5-0.2c0.3-0.3,0.9,0.1,0.9,0l-0.1-0.1
							l-0.1,0c-0.3-0.1-0.6-0.1-0.6-0.2c0.1-0.1,0.4-0.1,0.5-0.1c0.1,0,0.1,0,0-0.1l0-0.2l-0.6,0.1c-0.3-0.1,0-0.2-0.6-0.1
							c1-0.2,0.3-0.9,0.6-1.1c-0.4-0.1-0.4-0.3-0.4-0.5c-0.1,0.1-0.8,0.1-0.7-0.1c1.3,0,0.6-0.3,1.5-0.5c-0.6,0.1-0.2-0.5-1.1-0.3
							c0.1-0.1,0.5,0,0.8-0.1c-0.5-0.3,0.3-0.7,0.2-1.1c-0.2,0-0.4,0.1-0.7,0l0.9-0.2c-0.1-0.1-1-0.1-0.4-0.2c-0.1,0-0.4,0-0.4,0
							c0.8-0.8-0.7-1.6,0.9-2.4c-0.3,0.1-0.4,0-0.4-0.1c-0.1,0.1-0.4,0-0.7,0l0.7-0.3c-0.7-0.1,0-0.4-0.7-0.4l0.1,0.1
							c-0.7-0.2-1.7,0.1-2.6,0.1c0.8,0.2-1.3,0.4-0.1,0.7c-0.2,0.1-0.3-0.1-0.5,0c0.4,0.1,0.5,0.2,0.3,0.3l-0.1,0
							c0.1,0.4-0.3,0.6-0.6,1.1l0.5,0c-0.1,0.1-0.2,0.1-0.3,0.2c0.7,0.1,0-0.3,0.8-0.2c-1,0.1,0,0.7-1.1,0.8c0,0.2,0.5,0,0.5,0.1
							l-0.3,0l0.4,0c-0.1,0.1-0.4,0.2-0.7,0.2c0,0-0.1-0.1-0.1-0.1c-0.3,0.1,0.1,0.4,0,0.4l0.2-0.2c0.3,0.4-0.1,1,0.5,1.4l0.2,0
							c0.4,0.3-0.2,0.3,0,0.6l-0.1,0c0.2,0.1,0.3,0.2,0.3,0.3c-0.3-0.1-0.5,0.2-0.8,0.1c0.5,0.3,0.4,0.2,1.2,0.4l-0.4,0.1
							c0.3,0.1,0.5,0.1,0.6,0.2c-0.3-0.1-0.6,0.1-1,0c-0.8,0.4,0.8,0.5-0.3,0.7c1,0.1,0.6-0.3,0.8-0.3c0.3-0.1,0.8,0.1,0.7,0.2
							c0,0.1-1.3,0.3-1.3,0.6c0,0-0.1,0-0.1-0.1c-0.3,0.1,0.4,0.2-0.1,0.4c0.6,0,0,0.2,0.8,0.2l-0.2-0.3c0.2,0.1,1.1,0.2,0.7,0.5
							c-0.2,0-0.4-0.1-0.5-0.1c-0.2,0.1,0.2,0.1-0.1,0.2c-0.8,0-0.2-0.3-0.8-0.4c-0.3,0.1,0.6,0.3-0.3,0.2c1.1,0.1-0.1,0.3,0.7,0.5
							l-0.5,0c0.1,0,0.3,0.1,0.3,0.1l-0.6-0.1c0.5,0.1-0.4,0.3-0.1,0.5c0-0.3,0.6-0.1,0.9-0.3c0.7,0.4-1.2,0.3-1,0.8
							c-0.1-0.1,0.3-0.3,0.5-0.2c-0.1,0.1-0.3,0.2-0.5,0.3c0.1,0.3,0.5-0.1,0.8,0c-0.6,0.1,0.2,0.1,0.4,0.2l-0.5,0
							c-0.3,0.4,1,0,0.7,0.3l-0.7-0.1l0.2,0.1l-0.5,0c0.4,0.1,0.3,0.2,0.2,0.4c0.3-0.1,0.9-0.1,0.9,0.1c-0.3,0.1-0.5,0-0.4,0.2
							c-0.3,0-0.7,0-0.3-0.2c-0.2,0-0.3,0-0.5,0c-0.3,0.1-0.1,0.3,0,0.4c0,0,0-0.1,0.1-0.1l0.7,0.2c-0.2,0.1-0.3,0-0.5,0
							c0.1,0.1,0.3,0.1,0.3,0.2c-0.4,0-0.8,0.1-1-0.1l0.5,0.3c-0.2,0-0.4,0.2-0.6,0.2c-0.2,0.2,0.8,0.3,0.5,0.6c0.1,0,0.2,0,0.2,0.1
							c-0.1,0.2-0.5,0.4,0,0.6l-0.7,0.2c0.2,0.2,0.9-0.3,1.2,0c0.2,0.2-0.6,0.2-0.8,0.3c0.4,0.1,1.1,0.2,0.6,0.4
							C263.4,83.7,263.4,83.7,263.4,83.6z M264,85.9c-0.1,0-0.4-0.1-0.2-0.1C264.4,85.7,264.2,85.8,264,85.9z M265.8,89.2
							c-0.2,0-0.1-0.1,0.1-0.2C265.9,89,265.9,89.1,265.8,89.2z M271.4,97.6C271.4,97.6,271.3,97.6,271.4,97.6
							C271.5,97.4,271.4,97.5,271.4,97.6z M271.2,97.8c0.1,0,0.1,0,0.2-0.1c-0.1,0-0.1,0-0.1-0.1C271.2,97.8,271.1,97.8,271.2,97.8z
							 M267.2,76.9l-0.1,0C267,76.8,267.1,76.9,267.2,76.9z"/>
						<path fill="#FFFFFF" d="M265,88.9c0.1,0,0.2,0,0.3-0.1C265.2,88.8,265.1,88.8,265,88.9z"/>
						<polygon fill="#FFFFFF" points="263,82.2 263,82.2 262.9,82.2 						"/>
						<path fill="#FFFFFF" d="M266.4,96c0.1-0.1,0.1-0.1,0.2-0.1C266.5,95.9,266.4,95.9,266.4,96z"/>
						<path fill="#FFFFFF" d="M272.3,98.6l-0.2-0.1c0,0.1-0.1,0.1-0.1,0.2C272.2,98.6,272.3,98.6,272.3,98.6z"/>
						<path fill="#FFFFFF" d="M269.9,100.6C269.9,100.6,269.9,100.6,269.9,100.6l0.3,0C270.1,100.5,269.9,100.5,269.9,100.6z"/>
						<path fill="#FFFFFF" d="M270.8,99.2c-0.4,0.1-0.2,0.2-0.1,0.2c0,0,0,0,0,0C271.3,99.3,271.1,99.2,270.8,99.2z"/>
						<path fill="#FFFFFF" d="M270.7,99.5C270.8,99.5,270.8,99.5,270.7,99.5C271,99.5,270.8,99.5,270.7,99.5z"/>
						<path fill="#FFFFFF" d="M271.6,98c-0.1,0.1,0.5-0.1,0.4-0.1C272.4,97.8,271.2,97.9,271.6,98z"/>
						<polygon fill="#FFFFFF" points="269.6,99.7 270.1,99.5 269.7,99.6 						"/>
						<path fill="#FFFFFF" d="M269.7,98.9l-0.1,0.2c0.1,0,0.1,0,0.2,0C269.8,99,269.9,98.9,269.7,98.9z"/>
						<path fill="#FFFFFF" d="M269.8,99.1c0,0,0,0.1,0.1,0.1C269.9,99.1,269.9,99.1,269.8,99.1z"/>
						<polygon fill="#FFFFFF" points="269.4,99.6 269.5,99.5 269.5,99.4 						"/>
						<path fill="#FFFFFF" d="M269.3,97.4l-0.2-0.1c-0.2,0-0.3,0.1-0.2,0.1C269.1,97.4,269.2,97.5,269.3,97.4z"/>
						<path fill="#FFFFFF" d="M268.2,98.2c0.1-0.1,0.2-0.1,0.3-0.2l-0.6,0.2L268.2,98.2z"/>
						<path fill="#FFFFFF" d="M267.9,97.8c-0.2,0-0.5-0.1-0.4,0.1C267.6,97.9,267.8,98,267.9,97.8z"/>
						<polygon fill="#FFFFFF" points="268,95.3 268,95.3 269,95.1 						"/>
						<path fill="#FFFFFF" d="M265.1,93.8c-0.2,0.2,0.6-0.1,0.4,0.1c0.2,0,0.2-0.2,0.4-0.2C265.6,93.7,265.7,93.6,265.1,93.8z"/>
						<path fill="#FFFFFF" d="M265.9,93.7c0,0,0.1,0,0.2,0C266,93.8,265.9,93.7,265.9,93.7z"/>
						<polygon fill="#FFFFFF" points="267.7,69.6 267.9,69.5 267.6,69.6 						"/>
						<path fill="#FFFFFF" d="M267,69.4l0.6,0L267,69.4C267.1,69.3,267.1,69.4,267,69.4z"/>
						<path fill="#FFFFFF" d="M262.8,86.4l0.2,0c0.2,0,0.2-0.1,0.2-0.1L262.8,86.4z"/>
						<polygon fill="#FFFFFF" points="263,84.7 263,84.7 263.6,84.6 						"/>
						<path fill="#FFFFFF" d="M262.1,83.3c0,0.1,0.1,0.1,0.1,0.2C262.1,83.4,262.8,83.2,262.1,83.3z"/>
					</g>
				</g>
			</g>
		</g>
	</g>
	<g>
		<g>
			<g>
				<g>
					<g>
						<path fill="#FFFFFF" d="M293.9,397.3c0.1,0-0.1-0.4-0.1-0.4C293.7,397,294,397.4,293.9,397.3z"/>
						<polygon fill="#FFFFFF" points="292.8,398.8 292.7,398.6 292.6,399.1 						"/>
						<path fill="#FFFFFF" d="M291.3,399.4c0.4,0.6,0.5-0.3,0.8-0.2l0.1,0.1l-0.1-0.6C291.9,398.9,291.6,399.5,291.3,399.4z"/>
						<path fill="#FFFFFF" d="M290,398.2c0.1,0.2-0.1,0.3,0.2,0c0,0,0,0-0.1-0.1C290.1,398.2,290.1,398.2,290,398.2z"/>
						<path fill="#FFFFFF" d="M290.2,398.2C290.3,398.1,290,398,290.2,398.2L290.2,398.2z"/>
						<path fill="#FFFFFF" d="M289.5,398.6l0.1-0.3c-0.1-0.1-0.3-0.1-0.3-0.2C289.2,398.2,289.3,398.4,289.5,398.6z"/>
						<path fill="#FFFFFF" d="M289.5,399.1l0.1-0.1C289.5,398.9,289.5,398.9,289.5,399.1z"/>
						<path fill="#FFFFFF" d="M289.7,398.7l-0.1,0.3c0.1,0.1,0.1,0.3,0.1-0.1C289.7,399.1,289.7,398.9,289.7,398.7z"/>
						<path fill="#FFFFFF" d="M289.9,398.8c0.2,0.1,0.3,0.2,0.2,0.5C290.5,399,290.2,398.5,289.9,398.8z"/>
						<path fill="#FFFFFF" d="M291.5,400.1l0.2,0.1l0-0.3C291.7,400.1,291.4,399.9,291.5,400.1z"/>
						<path fill="#FFFFFF" d="M288.1,398.6c0,0.1,0.2,0.4,0.3,0.5l0.1-0.2C288.4,398.9,288.2,398.9,288.1,398.6z"/>
						<path fill="#FFFFFF" d="M288.4,399.2l-0.1,0.3C288.5,399.5,288.5,399.3,288.4,399.2z"/>
						<polygon fill="#FFFFFF" points="289.7,399.9 289.9,399.2 289.7,399.9 						"/>
						<polygon fill="#FFFFFF" points="287.3,398.9 287.3,398.5 287.2,399.1 						"/>
						<path fill="#FFFFFF" d="M286.7,399.2c0-0.3-0.3-0.4-0.2-0.6c-0.1,0.1-0.2,0.4-0.2,0.6C286.4,399,286.5,399,286.7,399.2z"/>
						<path fill="#FFFFFF" d="M286.2,399.5c0-0.1,0.1-0.2,0.1-0.4C286.2,399.2,286.2,399.4,286.2,399.5z"/>
						<path fill="#FFFFFF" d="M287.9,399.6c0-0.1-0.2-0.3-0.3-0.4L287.9,399.6C287.8,399.6,287.8,399.6,287.9,399.6z"/>
						<path fill="#FFFFFF" d="M287.8,399.6L287.8,399.6c-0.1,0-0.2,0-0.2,0C287.6,399.6,287.7,399.6,287.8,399.6z"/>
						<path fill="#FFFFFF" d="M287.9,399.6L287.9,399.6C287.9,399.6,287.9,399.6,287.9,399.6z"/>
						<path fill="#FFFFFF" d="M289,399.7c-0.1,0.3-0.2,0.6,0.1,0.9C289.1,400.3,288.9,400.1,289,399.7z"/>
						<path fill="#FFFFFF" d="M288.2,400l0.3,0c0-0.1-0.1-0.2-0.1-0.4L288.2,400z"/>
						<polygon fill="#FFFFFF" points="288.1,400.2 288.2,400 288.1,400 						"/>
						<path fill="#FFFFFF" d="M286.7,399.8c0,0.2-0.2,0.3-0.3,0.3c0.2,0,0.3,0,0.4,0C286.9,400,286.8,399.7,286.7,399.8z"/>
						<path fill="#FFFFFF" d="M287.2,399.7L287.2,399.7C287.2,399.8,287.3,399.8,287.2,399.7z"/>
						<path fill="#FFFFFF" d="M285.2,400.5C285.2,400.5,285.2,400.5,285.2,400.5L285.2,400.5L285.2,400.5z"/>
						<path fill="#FFFFFF" d="M286.9,400.2c0.1,0,0.2-0.1,0.2-0.2C287,400,287,400.1,286.9,400.2
							C286.9,400.2,286.9,400.2,286.9,400.2z"/>
						<path fill="#FFFFFF" d="M285.9,399.8c0.1,0.1,0.2,0.1,0.2,0.2C286,399.9,285.9,399.7,285.9,399.8z"/>
						<path fill="#FFFFFF" d="M287.2,399.7C287.2,399.7,287.2,399.6,287.2,399.7C287.1,399.6,287.1,399.6,287.2,399.7z"/>
						<path fill="#FFFFFF" d="M287.2,399.7c0,0.1,0,0.2-0.1,0.3c0.1-0.1,0.1-0.1,0.1-0.2C287.2,399.7,287.2,399.7,287.2,399.7z"/>
						<path fill="#FFFFFF" d="M285.5,403.2c-0.1-0.4,0.1-0.8,0.5-0.5c0.2-0.4-0.4-1.6-0.8-2.2c0,0.2,0.1,0.3-0.1,0.6
							c0.1,0.2,0.7,0.3,0.6,0.7c-0.3,0.3-0.3-0.1-0.5-0.2c0.3,0.4-0.2,0.8,0.1,1.5l0.2-0.3C285.5,402.9,285.4,403.1,285.5,403.2z"/>
						<path fill="#FFFFFF" d="M285.7,400.5L285.7,400.5c0-0.1-0.2-0.2-0.4-0.5c-0.1,0.2-0.1,0.4-0.1,0.5L285.7,400.5L285.7,400.5z"
							/>
						<path fill="#FFFFFF" d="M286.2,400.3c0,0.4-0.1,0.7,0.1,1.1c0.3-0.1,0.1-0.4,0.2-0.6C286.1,401,286.6,400.4,286.2,400.3
							c0.1-0.1,0.2-0.1,0.2-0.1c-0.1,0-0.2-0.1-0.3-0.1l0,0l0,0l0,0c0,0,0.1,0.1,0,0.1c0,0,0,0,0,0
							C286.2,400.2,286.2,400.2,286.2,400.3c-0.2,0-0.1-0.1,0-0.2l0-0.1l0,0l-0.4,0.4C285.9,400.4,286,400.4,286.2,400.3z"/>
						<path fill="#FFFFFF" d="M289.2,401.5C289.2,401.5,289.2,401.5,289.2,401.5C289.1,401.5,289.1,401.5,289.2,401.5z"/>
						<path fill="#FFFFFF" d="M288.9,401.4c0-0.1,0-0.2,0.1-0.2c0.1,0.1,0.1,0.2,0.1,0.3c0-0.1,0.1-0.4-0.1-0.5l0,0.1
							c-0.2-0.1-0.6-0.5-0.6-0.6C288.5,400.8,288.7,401,288.9,401.4z"/>
						<path fill="#FFFFFF" d="M287.6,400.9l-0.3,0.3l0.3,0.3l-0.1-0.2C287.7,401.3,287.6,401.1,287.6,400.9z"/>
						<polygon fill="#FFFFFF" points="285.1,400.3 285,399.8 284.9,400.5 						"/>
						<polygon fill="#FFFFFF" points="284.6,400.5 284.5,400.1 284.4,400.4 						"/>
						<path fill="#FFFFFF" d="M255.1,409l-0.1,0.1C255,409,255.1,409,255.1,409z"/>
						<path fill="#FFFFFF" d="M256,409l0-0.2C256,408.9,256,409,256,409z"/>
						<path fill="#FFFFFF" d="M271.9,403.1c-0.2-0.3-0.5-0.9-0.4-0.4l0.1,0.4C271.8,403,271.9,403,271.9,403.1z"/>
						<path fill="#FFFFFF" d="M263.2,406.5c0,0,0,0.1,0.1,0.1c0-0.2,0.1-0.3,0.1-0.4C263.3,406.3,263.3,406.4,263.2,406.5z"/>
						<path fill="#FFFFFF" d="M263.2,408.3L263,408C263,408.1,263.1,408.2,263.2,408.3z"/>
						<path fill="#FFFFFF" d="M250.2,409.3l-0.2,0.4C250.3,409.8,250.2,409.6,250.2,409.3z"/>
						<path fill="#FFFFFF" d="M279.4,401.9c-0.2-0.1-0.3-0.2-0.4-0.2C279.2,402,279.4,402.3,279.4,401.9z"/>
						<path fill="#FFFFFF" d="M255.5,404.4c-0.1,0.1-0.1,0.2-0.1,0.3C255.4,404.5,255.5,404.5,255.5,404.4z"/>
						<path fill="#FFFFFF" d="M278.6,401.8C278.6,401.9,278.6,401.9,278.6,401.8c0.2,0,0.3-0.1,0.4-0.1
							C278.8,401.6,278.6,401.5,278.6,401.8z"/>
						<path fill="#FFFFFF" d="M232.6,407.8C232.6,407.8,232.6,407.8,232.6,407.8C232.5,407.8,232.6,407.9,232.6,407.8z"/>
						<path fill="#FFFFFF" d="M227.9,403c0.1,0,0.1,0,0.2,0C228.1,403,228,402.9,227.9,403z"/>
						<path fill="#FFFFFF" d="M282.5,400.9C282.6,400.8,282.5,400.8,282.5,400.9L282.5,400.9z"/>
						<path fill="#FFFFFF" d="M283.4,402.4c0,0.1,0,0.1,0,0.2C283.4,402.5,283.4,402.4,283.4,402.4z"/>
						<path fill="#FFFFFF" d="M278,404.7L278,404.7C278,404.8,278,404.8,278,404.7z"/>
						<path fill="#FFFFFF" d="M282.7,401c-0.1,0-0.1-0.1-0.2-0.1C282.6,400.9,282.6,401,282.7,401z"/>
						<path fill="#FFFFFF" d="M282.6,400.8c0,0,0.1,0,0.1,0C282.7,400.8,282.7,400.7,282.6,400.8z"/>
						<path fill="#FFFFFF" d="M282.3,400.9c0.1,0,0.1,0,0.2,0c0,0,0,0,0-0.1C282.5,400.9,282.4,400.9,282.3,400.9z"/>
						<path fill="#FFFFFF" d="M242.1,407.4C242.1,407.4,242.1,407.4,242.1,407.4C241.9,407.6,242,407.5,242.1,407.4z"/>
						<path fill="#FFFFFF" d="M269.5,407.9C269.5,407.9,269.5,407.9,269.5,407.9L269.5,407.9L269.5,407.9z"/>
						<path fill="#FFFFFF" d="M269.1,408.3c0.1-0.6,0.2-0.5,0.4-0.4l-0.3-1.2L269.1,408.3z"/>
						<path fill="#FFFFFF" d="M253,409.1l0.3,0.4c-0.4,0.6-0.6,0.4-0.3,1c0.1-1.4,1.1-0.1,1.2-1.5l0.2,0.3c-0.1,0-0.1,0.1-0.1,0.1
							c0.4,0.7,0.3-1,0.8-0.8c0.2,0.1,0.3,0.3,0.2,0.5l0.4-0.3c0.1,0,0.1,0.3,0,0.2l0.6-0.1l0,0c0.1-0.2,0.3-0.5,0.4-0.7
							c0.1,0.2-0.1,0.1,0,0.3l0.3-0.3c0.1,0.4-0.1,0.7-0.3,0.6c0.3,1.4,0.3-0.3,0.9,0.4l-0.3,0.2c0.2,0.8,0.4,0.5,0.8,1
							c-0.1-0.2-0.7-1.2-0.4-1.5c0.1,0.1,0.2,0.1,0.4-0.1c0,0.5,0.2,0.4,0.4,0.3l0,0.6c0.2-0.2,0.2-0.5,0.4-0.8
							c0.3,0.1,0.3,0.6,0.4,1c0.4,0.1-0.3-0.8,0.2-0.9c0.4,0.2,0.6,0,1-0.4c0.3,0.2,0,0.4,0.1,0.6l0.2-0.5c0.1,0,0,0.2,0,0.2
							c0.2-0.2,0-0.6,0.3-0.8c0.1-0.7,0.7,1,1,0.2c0.1,0.2,0,0.4,0,0.6c0.5-0.6,0.4-0.4,0.8-1.1l0.4,0.4c-0.3-0.5,0-1.1,0.3-1.5
							c-0.1-0.2-0.2-0.4-0.2-0.5l0.4-0.4c0.1,0.1,0,0.3,0,0.6c0-0.1,0.1-0.1,0.1-0.2c0.2,0.2,0.1,0.6,0,1c-0.1-0.1-0.1-0.3-0.2-0.4
							c-0.1,0.4-0.2,0.8-0.1,1.2c0-0.1,0.1-0.1,0.1-0.2c0,0.1,0,0.2,0,0.3c0,0.1,0.1-0.1,0.1-0.2l0.1,0.7l0-0.3l0.6,0.4
							c0.4-0.7,0.7-1.8,1.4-2.1c-0.1,0.5,0,0.9,0.1,1.5c-0.2-0.6-0.5,0.3-0.9,0.2c0.2,0.1,0.2,0.4,0.1,0.5l0.6-0.6
							c0,0.5,0.2,0.4,0.3,0.6c-0.2-1,0.4-0.7,0.7-1c0,0.3,0,0.7-0.3,0.6c0.4,0.7,0.4-1.2,0.8-0.6c-0.1,0-0.1,0-0.1,0.1
							c0.2-0.3,0.6-0.1,0.5,0.2l-0.1,0c0.5,0.1,1.6-0.1,1.6-1c0,0.1,0,1,0,1.2l0.6-2.9c0,0.7,0.5,2.4,0.1,2.9
							c0.1,0.1,0.3,0.2,0.5-0.1c-0.1-0.1-0.3-1-0.2-1.1c0.4,0.8,0.3,0.4,0.7,1.1c-0.1-0.1-0.1-1.3,0.1-1.3c0,0.2,0.1,1.1,0.1,1.2
							l0.4-1.2c-0.1,0.2,0.1,0.9,0.2,1.3c-0.1-0.2,0.4,0,0.5-0.2l-0.2-0.2c0.6,0.1,0.3-1.6,0.9-1.7c0,0.2,0,1.4,0.3,1.5
							c0.1-0.6,0.2-2.8,0.6-3.3l0.1,0.3l0.3-0.4c-0.1,0.9-0.5,2.8-0.7,3.5c0.2,0.2,0.1,0.4,0.4,0.3c0.2,0.3-0.1,0.5-0.2,0.5l0.8,0.1
							c-0.1-0.7,0.5-0.7,0.3-1.3l-0.7,0.8c-0.1-0.7,0.2-1.9,0.7-1.9c0.2,0.2,0.1,1.2,0.1,1.4c0-0.2,0.4-0.5,0.5-0.4l-0.2,0.4
							c0.3,0.2,0.3-1,0.8-0.4c0.1,0,0.5,0.8,0.4,0.4c-0.3-0.7-0.7-3.1-0.7-3.6c0,0,0.7,0.6,0.9,1c0.3,0.6,0,1.5,0.2,1.9
							c0-0.2,0-0.4,0.1-0.5c0.2,0.1,0,0.6,0.3,0.4c-0.1-0.7,0.6,0,0-0.6c0.2-0.2,0.3,0.1,0.6,0c-0.2-0.4,0-1.5,0.2-1.8
							c0,0.2,0.1,0.4,0.2,0.5c0.5,0,0.9,0.2,1.4,0.1c0.1,0.2,0.4,0.3,0.3,0.6c0-0.1,0.1-0.4,0.2-0.4c0.4,0.5-0.3,0.2,0.1,0.8
							c-0.1-0.4,0.3-0.6,0.4-0.9c-0.2-0.6-0.5,0-0.7,0.3c-0.2-0.8,0-1.8,0.4-2.3c0.4-0.3,0.3,0.5,0.3,0.4c0.8,0,0.3-1.6,1.1-1.1
							c0.4,0.5,0.3,1,0.4,1.4c-0.3,0.3-0.6-0.2-0.8-0.1l0.3,0.2c-0.1,0.2-0.3,0.4-0.4,0.3c0.3,0.4,1.3-0.2,2,0.1
							c0.1-0.2,0.2-0.4,0.1-0.6l-0.2,0.1c-0.3-0.4,0.2-0.7-0.1-0.8c0.2-0.4,0.3-0.9,0.7-0.8l0.2,0.6c-0.1-0.2-0.3-0.3-0.4-0.1
							c0.1-0.3,0.7,0.7,0.7-0.2l-0.4-0.3c0.2-0.4,0.3-1.1,0.6-1c-0.3-0.5-0.1,0.1-0.5-0.5c0.4,0.8-0.8,0.2-0.2,1
							c-0.4-0.7-0.5-0.2-0.9-0.8c0.1,0.2,0.2,0.3-0.1,0.3c0,0.1,0,0.1,0,0.2c0,0,0,0,0,0l0,0c0,0,0,0,0,0c0.1,0.1,0.2,0.2,0.2,0.3
							c0,0.5-0.4,0.6-0.5,0.9c-0.2-0.1,0-0.2-0.1-0.4l-0.1,0.4c-0.1-0.4-0.6-0.6-0.3-1l-0.3,0.1c-0.2-0.2-0.5-0.2-0.6,0
							c-0.2-0.1-0.3,0.6-0.2,0.2l-0.4,0.4l0-0.1c-0.5,0.1-0.9,1-1.6,0.3c-0.1,0.1-0.3,0.3-0.6,0.3l-0.1-0.4
							c-0.2,0.2-0.7-0.3-0.7,0.1c-0.4-1-1.1,0-1.5-0.2l0.1,0.5c-0.3,0-0.5,0.2-0.8,0.5l0.1,0.4c-0.2,0.4-0.8-0.2-1.2-0.1
							c0-0.2,0.1-0.1,0.2-0.1c-0.7-0.9-1,0.9-1.6,0.2c-0.1,0.2-0.2,0.1-0.3,0c0,0,0,0,0,0c0,0,0,0-0.1,0c-0.1-0.1-0.1-0.2-0.2-0.2
							c0.1,0.1,0.1,0.2,0.2,0.2c-0.1,0-0.2,0.1-0.4,0.2l-0.1-0.5c0,0,0,0,0,0c-0.2-0.2-0.1,0.2,0,0.6c-0.1,0.1-0.1,0.2-0.1,0.3
							c-0.2-0.8-0.3,0.3-0.6-0.5c0,0.4-0.7,0.4-0.6,1.2c0-0.1-0.1-0.2,0-0.2c-0.2-0.1-0.3-0.2-0.4,0.1l-0.1-0.6l-0.3,0.8
							c-0.2-0.4-0.4-0.6-0.2-1c-0.4,0.8-0.4,0.3-0.7,1.1l0-0.4c-0.1,0-0.3,0.6-0.5,0.3c-0.4-0.7-1.7,0.1-2.6-0.6
							c0.3,1.2-0.4-0.5-0.4,0.4c-0.1-0.3-0.2-0.4-0.1-0.7c-0.4,0.3-0.7-0.4-1,0.4c-0.1-0.3,0.1-0.4,0-0.6c0,0.1-0.1,0.2-0.2,0.1
							c-0.1-0.2,0.1-0.2,0.1-0.4c-0.4,0.1-0.4,0.9-0.4,1.7c-0.3-0.4-0.4-0.3-0.5,0.2c-0.1-0.3-0.2-0.5,0-0.6c-0.2,0-1-0.3-1,0.3
							c-0.1-0.2-0.2,0-0.3,0c-0.4,0-0.4-0.1-0.7,0l0.1,0.1c-0.1,0.8-0.3,0.2-0.6,0.3l0-0.1c-0.7-0.5-0.3,0.3-0.9-0.3l0,0.5
							c0,1-0.6-0.6-0.9-0.2l0.1,0.3c-0.2,0.4-0.6-1.4-0.8-1.5c0-0.1,0.1-0.1,0.1-0.2c-0.5-0.6-0.1,0.6-0.5,0.8
							c-0.1-0.3,0.1-0.9-0.2-0.9c-0.1-0.3-0.8,1.1-1.1,0.5c0.1,0.3,0.2,0.5,0,0.7c-0.3,0.1-0.8-1-1-0.2c0-0.1,0-0.1-0.1-0.2
							c-0.2,0.2-0.7,0.4-0.8,0.8c-0.2-1.7-1.4,0.8-1.3-0.7l-0.7,0.1l0-0.2c-0.4-0.1-0.6,0.2-0.7,0.6c-0.1-0.1,0-0.2,0-0.3
							c-0.6-0.3-0.7-0.3-1.2,0.5l0-0.5c-0.2,0.3-0.9-0.8-1.5-0.2c0-0.1,0-0.2,0.1-0.2c-0.7,0.6-1.6-1.4-1.9,0.4l-0.5,0.4
							c0.6,0.2-0.1,0.8,0.1,1.1c-0.2,0.1-0.6-0.6-0.3-0.7l0,0.1c0.1-0.9-0.7-0.4-0.7-1c-1.2,0-2.3-0.6-3.3-0.7l0.1,0.7l-0.4-0.1
							c-0.1-0.2-0.1-0.6,0.2-0.5c-0.1-0.4-0.5,0.3-0.5,0.5c-0.5-0.3,0.3-0.8,0.1-0.9l-0.2,0l0,0.1c-0.2,0.3-0.2,0.6-0.6,0.5
							c-0.2-0.2-0.1-0.5-0.2-0.5c0-0.1,0-0.1-0.1,0l-0.5-0.1l0.1,0.6c-0.2,0.3-0.4-0.1-0.3,0.6c-0.3-1-1.8-0.5-1.9-0.8
							c-0.3,0.4-0.6,0.4-1,0.3c0.1,0.1,0.1,0.8-0.2,0.7c0.2-1.3-0.5-0.6-0.7-1.6c0.2,0.7-0.9,0.1-0.6,1c-0.3-0.1,0-0.5-0.1-0.8
							c-0.7,0.5-1.3-0.5-2.1-0.3c0,0.2,0.1,0.5-0.1,0.7l-0.3-0.9c-0.2,0.1-0.2,1-0.5,0.4c0,0.2,0.1,0.4,0,0.4
							c-1.4-1-3.1,0.4-4.5-1.3c0.2,0.4,0,0.4-0.1,0.4c0.1,0.1,0,0.4,0,0.7l-0.6-0.7c-0.2,0.6-0.7,0-0.8,0.6l0.2-0.1
							c-0.3,0.7,0.2,1.7,0.1,2.6c0.4-0.8,0.7,1.3,1.3,0.2c0.1,0.2-0.1,0.3-0.1,0.5c0.2-0.4,0.3-0.5,0.6-0.3l0,0.1
							c0.8,0,1.1,0.4,2,0.8l0-0.5c0.2,0.1,0.2,0.2,0.3,0.4c0.3-0.7-0.5-0.1-0.3-0.9c0.2,1,1.3,0.1,1.4,1.2c0.3,0,0-0.6,0.3-0.5
							l0.1,0.3l0.1-0.4c0.2,0.1,0.3,0.5,0.2,0.7c0,0-0.1,0.1-0.2,0.1c0.2,0.4,0.7-0.1,0.8,0.1l-0.3-0.2c0.8-0.2,1.8,0.3,2.6-0.3
							l0-0.2c0.6-0.4,0.5,0.3,1.1,0.1l0,0.1c0.1-0.2,0.3-0.3,0.5-0.3c-0.2,0.2,0.3,0.5,0,0.8c0.7-0.4,0.3-0.3,0.8-1.1l0.1,0.4
							c0.2-0.3,0.2-0.5,0.5-0.6c-0.3,0.3,0.2,0.6-0.2,1c0.6,0.9,1.1-0.7,1.3,0.5c0.4-1-0.6-0.6-0.4-0.8c-0.1-0.3,0.3-0.7,0.5-0.6
							c0.2,0,0.3,1.3,0.8,1.4c-0.1,0-0.1,0.1-0.1,0.1c0.2,0.3,0.4-0.3,0.7,0.1c0.2-0.6,0.3,0.1,0.4-0.7l-0.5,0.1
							c0.3-0.2,0.6-1.1,1.1-0.6c0,0.2-0.2,0.4-0.3,0.5c0.1,0.2,0.3-0.1,0.4,0.1c-0.1,0.8-0.6,0.1-1,0.7c0.1,0.3,0.6-0.5,0.4,0.3
							c0.3-1.1,0.5,0.2,1-0.6l-0.1,0.5c0.1-0.1,0.2-0.3,0.3-0.3l-0.2,0.6c0.3-0.5,0.6,0.5,0.9,0.2c-0.6,0-0.1-0.6-0.3-0.9
							c0.8-0.6,0.4,1.3,1.2,1.1c-0.1,0.1-0.4-0.3-0.2-0.5c0.2,0.1,0.4,0.3,0.4,0.6c0.6-0.1-0.1-0.5,0.2-0.8c0.2,0.6,0.3-0.2,0.5-0.4
							l0,0.5c0.6,0.3,0.2-1,0.8-0.6l-0.3,0.7l0.3-0.2l-0.1,0.5c0.3-0.4,0.4-0.3,0.8-0.1c-0.1-0.3,0.1-0.9,0.4-0.9
							c0.2,0.3-0.1,0.5,0.3,0.4c-0.1,0.3-0.2,0.7-0.4,0.2c0,0.2-0.1,0.3-0.1,0.5c0.2,0.3,0.5,0.1,0.7,0.1c-0.1,0-0.1,0-0.2-0.1
							l0.6-0.6c0.1,0.2,0,0.3-0.1,0.5c0.1,0,0.2-0.3,0.4-0.3c-0.1,0.4-0.1,0.8-0.3,1l0.6-0.4c0,0.2,0.3,0.5,0.2,0.6
							c0.3,0.2,0.8-0.7,1.2-0.4c0-0.1,0.1-0.1,0.2-0.2c0.4,0.1,0.7,0.6,1.2,0.1l0.2,0.7c0.4-0.1-0.3-0.9,0.3-1.1
							c0.4-0.2,0.1,0.6,0.3,0.8c0.2-0.3,0.6-1.1,1-0.5C253.2,409.1,253.1,409,253,409.1z M257.3,408.8c-0.1,0.1-0.2,0.4-0.3,0.1
							C257.1,408.3,257.2,408.6,257.3,408.8z M263.9,407.4c-0.1,0.2-0.2,0.1-0.3-0.1C263.7,407.2,263.8,407.2,263.9,407.4z
							 M281.4,401.5C281.4,401.5,281.4,401.5,281.4,401.5C281.2,401.4,281.3,401.5,281.4,401.5z M281.8,401.6c0-0.1,0-0.1,0-0.2
							c0,0.1-0.1,0.2-0.2,0.1C281.7,401.7,281.7,401.8,281.8,401.6z M241.1,404.1l0.1,0.1C241,404.4,241,404.2,241.1,404.1z"/>
						<path fill="#FFFFFF" d="M263.2,408.1c0-0.1,0-0.2,0-0.3C263.1,407.9,263.1,408,263.2,408.1z"/>
						<path fill="#FFFFFF" d="M250.2,409.3C250.2,409.3,250.2,409.3,250.2,409.3C250.2,409.3,250.2,409.3,250.2,409.3L250.2,409.3z"
							/>
						<path fill="#FFFFFF" d="M276.8,406.9c-0.1-0.1-0.2-0.1-0.2-0.2C276.6,406.8,276.6,406.8,276.8,406.9z"/>
						<path fill="#FFFFFF" d="M283.5,400.3l-0.2,0.2c0.1-0.1,0.2,0,0.2,0.1C283.5,400.5,283.5,400.4,283.5,400.3z"/>
						<path fill="#FFFFFF" d="M286.4,402.7C286.4,402.6,286.5,402.6,286.4,402.7l0-0.3C286.3,402.4,286.2,402.6,286.4,402.7z"/>
						<path fill="#FFFFFF" d="M284.2,401.8c0.1,0.4,0.2,0.2,0.4,0.1c0,0,0,0,0,0C284.4,401.4,284.3,401.6,284.2,401.8z"/>
						<path fill="#FFFFFF" d="M284.6,401.9c0,0,0.1-0.1,0.1-0.1C284.7,401.6,284.7,401.8,284.6,401.9z"/>
						<path fill="#FFFFFF" d="M282.2,401.3c0.1,0.1-0.1-0.5,0-0.4C282.2,400.4,281.9,401.7,282.2,401.3z"/>
						<polygon fill="#FFFFFF" points="284.7,403.1 284.5,402.6 284.5,403 						"/>
						<path fill="#FFFFFF" d="M283.2,403.1l0.3,0.1c0-0.1,0-0.1,0-0.2C283.4,403,283.2,402.9,283.2,403.1z"/>
						<path fill="#FFFFFF" d="M283.6,403c0.1,0,0.2,0,0.2-0.1C283.7,402.8,283.6,402.9,283.6,403z"/>
						<polygon fill="#FFFFFF" points="284.3,403.3 284.2,403.2 284,403.3 						"/>
						<path fill="#FFFFFF" d="M280.3,403.7l-0.3,0.2c0,0.2,0.1,0.3,0.2,0.2C280.3,403.9,280.4,403.8,280.3,403.7z"/>
						<path fill="#FFFFFF" d="M281.5,404.8c-0.1-0.1-0.1-0.2-0.2-0.3l0.1,0.6L281.5,404.8z"/>
						<path fill="#FFFFFF" d="M280.7,405.1c0,0.2-0.3,0.6,0,0.5C280.7,405.4,281,405.2,280.7,405.1z"/>
						<polygon fill="#FFFFFF" points="276,405.3 276.1,405.2 275.9,404.2 						"/>
						<path fill="#FFFFFF" d="M272.3,408.3c0.4,0.2,0-0.6,0.4-0.4c0.1-0.2-0.3-0.2-0.2-0.4C272.3,407.7,272.2,407.6,272.3,408.3z"/>
						<path fill="#FFFFFF" d="M272.5,407.5c0,0,0.1-0.1,0.1-0.2C272.5,407.4,272.5,407.4,272.5,407.5z"/>
						<polygon fill="#FFFFFF" points="227.1,402.4 226.9,402.1 227,402.5 						"/>
						<path fill="#FFFFFF" d="M226.6,403.1l0-0.7l-0.2,0.6C226.5,403,226.6,402.9,226.6,403.1z"/>
						<path fill="#FFFFFF" d="M258,410.1l0-0.2c0-0.2-0.1-0.2-0.2-0.2L258,410.1z"/>
						<polygon fill="#FFFFFF" points="254.8,409.6 254.9,409.6 254.8,409 						"/>
						<path fill="#FFFFFF" d="M252.1,410.3c0.1,0,0.2-0.1,0.3-0.1C252.2,410.3,252.1,409.6,252.1,410.3z"/>
					</g>
				</g>
			</g>
		</g>
	</g>
	<g>
		<g>
			<g>
				<g>
					<g>
						<path fill="#FFFFFF" d="M222.7,262.2c0,0.2,0.4,0.1,0.5,0.1C223,262,222.6,262.2,222.7,262.2z"/>
						<polygon fill="#FFFFFF" points="221.4,259.4 221.5,259.4 221.1,259.1 						"/>
						<path fill="#FFFFFF" d="M221,256.8c-0.7,0.3,0.2,0.9,0,1.5l-0.2,0.1l0.6,0.1C221.4,257.9,220.9,257.2,221,256.8z"/>
						<path fill="#FFFFFF" d="M222.4,255.1c-0.3,0.1-0.3-0.3,0,0.3c0,0,0,0,0.1-0.1C222.4,255.3,222.4,255.3,222.4,255.1z"/>
						<path fill="#FFFFFF" d="M222.4,255.4C222.4,255.7,222.6,255.2,222.4,255.4L222.4,255.4z"/>
						<path fill="#FFFFFF" d="M222,254.1l0.3,0.3c0.2-0.1,0.1-0.4,0.3-0.3C222.4,253.8,222.3,253.9,222,254.1z"/>
						<path fill="#FFFFFF" d="M221.5,253.9l0.1,0.2C221.7,254,221.7,253.9,221.5,253.9z"/>
						<path fill="#FFFFFF" d="M221.9,254.4l-0.3-0.4c-0.1,0.1-0.3,0.1,0.1,0.2C221.5,254.2,221.7,254.3,221.9,254.4z"/>
						<path fill="#FFFFFF" d="M221.8,254.7c-0.1,0.2-0.2,0.5-0.5,0.2C221.5,255.5,222,255.3,221.8,254.7z"/>
						<path fill="#FFFFFF" d="M220.3,256.7l-0.2,0.3l0.3,0.2C220.3,257.1,220.5,256.7,220.3,256.7z"/>
						<path fill="#FFFFFF" d="M222.1,251.8c-0.2,0-0.4,0.2-0.6,0.2l0.2,0.2C221.8,252.1,221.8,251.8,222.1,251.8z"/>
						<path fill="#FFFFFF" d="M221.5,252l-0.3-0.4C221.2,252,221.3,252.1,221.5,252z"/>
						<polygon fill="#FFFFFF" points="220.7,253.9 221.3,254.5 220.6,253.8 						"/>
						<polygon fill="#FFFFFF" points="221.8,250.2 222.2,250.4 221.6,250.1 						"/>
						<path fill="#FFFFFF" d="M221.6,249.2c0.3,0.1,0.4-0.3,0.7-0.2c-0.1-0.3-0.4-0.5-0.6-0.6C221.8,248.6,221.8,248.9,221.6,249.2z
							"/>
						<path fill="#FFFFFF" d="M221.2,248.1c0.1,0.1,0.2,0.2,0.4,0.3C221.5,248.3,221.4,248.2,221.2,248.1z"/>
						<path fill="#FFFFFF" d="M221.1,251c0.1,0,0.3-0.1,0.4-0.4l-0.4,0.2C221.1,250.9,221.1,250.9,221.1,251z"/>
						<path fill="#FFFFFF" d="M221.1,250.8L221.1,250.8c0-0.2,0-0.3,0-0.4C221.1,250.5,221.1,250.6,221.1,250.8z"/>
						<path fill="#FFFFFF" d="M221.1,251L221.1,251C221.1,251,221.1,251,221.1,251z"/>
						<path fill="#FFFFFF" d="M220.9,252.8c-0.3-0.2-0.6-0.7-0.9-0.1C220.3,252.8,220.5,252.5,220.9,252.8z"/>
						<path fill="#FFFFFF" d="M220.6,251.3l0,0.4c0.1,0,0.3-0.1,0.4,0L220.6,251.3z"/>
						<polygon fill="#FFFFFF" points="220.5,251.1 220.6,251.3 220.6,251.1 						"/>
						<path fill="#FFFFFF" d="M220.9,248.9c-0.2-0.2-0.3-0.4-0.3-0.6c0,0.3,0,0.5,0,0.8C220.7,249.1,221,249.2,220.9,248.9z"/>
						<path fill="#FFFFFF" d="M221,249.8L221,249.8C220.9,249.8,220.9,249.9,221,249.8z"/>
						<polygon fill="#FFFFFF" points="220.2,246.1 220.1,246.1 220.2,246.1 						"/>
						<path fill="#FFFFFF" d="M220.5,249.1c-0.1,0.2,0.1,0.3,0.2,0.4C220.7,249.4,220.6,249.2,220.5,249.1
							C220.5,249.1,220.5,249.1,220.5,249.1z"/>
						<path fill="#FFFFFF" d="M220.9,247.5c-0.1,0.1-0.1,0.2-0.2,0.4C220.8,247.8,221,247.5,220.9,247.5z"/>
						<path fill="#FFFFFF" d="M221,249.7C221.1,249.7,221.1,249.7,221,249.7C221.2,249.7,221.1,249.7,221,249.7z"/>
						<path fill="#FFFFFF" d="M221,249.7c-0.1-0.1-0.2-0.1-0.3-0.2c0.1,0.1,0.1,0.2,0.2,0.3C221,249.8,221,249.7,221,249.7z"/>
						<path fill="#FFFFFF" d="M217.4,245.9c0.4,0,0.8,0.4,0.5,0.9c0.4,0.4,1.6-0.1,2.3-0.6c-0.2,0-0.3,0-0.6-0.3
							c-0.2,0.2-0.3,1-0.7,0.7c-0.3-0.5,0.1-0.5,0.2-0.8c-0.4,0.3-0.8-0.6-1.5-0.3l0.3,0.4C217.7,245.9,217.5,245.7,217.4,245.9z"/>
						<path fill="#FFFFFF" d="M220.3,246.9l0.1,0.2c0-0.2,0.2-0.4,0.4-0.7c-0.2-0.3-0.4-0.3-0.5-0.3L220.3,246.9L220.3,246.9z"/>
						<path fill="#FFFFFF" d="M220.5,247.9c-0.4-0.1-0.7-0.4-1.1-0.1c0.1,0.5,0.4,0.3,0.7,0.6C219.8,247.5,220.3,248.5,220.5,247.9
							c0.1,0.2,0.1,0.3,0.1,0.4c0-0.2,0.1-0.3,0.1-0.5l0,0l0,0l0,0c0,0-0.1,0.1-0.1,0c0,0,0,0,0,0
							C220.6,247.9,220.5,247.9,220.5,247.9c0-0.3,0.1-0.1,0.2,0l0.1,0l0,0l-0.4-0.8C220.3,247.3,220.3,247.5,220.5,247.9z"/>
						<path fill="#FFFFFF" d="M219,252.4C219.1,252.3,219.1,252.3,219,252.4C219.1,252.3,219,252.3,219,252.4z"/>
						<path fill="#FFFFFF" d="M219.2,252c0.1,0.1,0.3,0.1,0.2,0.3c-0.1,0.2-0.2,0-0.3,0.1c0.1,0.1,0.4,0.4,0.5,0l-0.1,0
							c0.1-0.4,0.5-0.9,0.6-0.8C219.8,251.6,219.6,251.7,219.2,252z"/>
						<path fill="#FFFFFF" d="M219.7,249.9l-0.3-0.7l-0.3,0.4l0.2-0.1C219.3,250.1,219.6,249.9,219.7,249.9z"/>
						<polygon fill="#FFFFFF" points="220.4,246 220.9,246 220.2,245.7 						"/>
						<polygon fill="#FFFFFF" points="220.2,245.1 220.6,245 220.3,244.9 						"/>
						<path fill="#FFFFFF" d="M208.3,195.2l-0.1-0.2C208.2,195.1,208.3,195.2,208.3,195.2z"/>
						<path fill="#FFFFFF" d="M208.3,196.7l0.2,0C208.4,196.7,208.3,196.7,208.3,196.7z"/>
						<path fill="#FFFFFF" d="M216.1,223.3c0.3-0.4,0.8-0.8,0.4-0.7l-0.4,0.2C216.2,223,216.1,223.2,216.1,223.3z"/>
						<path fill="#FFFFFF" d="M211.4,208.8l-0.1,0.1c0.2,0.1,0.3,0.1,0.4,0.2C211.6,209,211.5,208.9,211.4,208.8z"/>
						<path fill="#FFFFFF" d="M209.5,208.8l0.2-0.4C209.7,208.4,209.6,208.6,209.5,208.8z"/>
						<path fill="#FFFFFF" d="M208.2,186.9l-0.4-0.3C207.8,187,208,186.9,208.2,186.9z"/>
						<path fill="#FFFFFF" d="M218.3,236c0.1-0.3,0.1-0.5,0.1-0.7C218.3,235.7,218,236,218.3,236z"/>
						<path fill="#FFFFFF" d="M212.9,195.8c-0.1-0.1-0.2-0.2-0.3-0.2C212.7,195.8,212.8,195.8,212.9,195.8z"/>
						<path fill="#FFFFFF" d="M218.3,234.6c0,0.1,0,0.1-0.1,0.2c0.1,0.2,0.2,0.3,0.2,0.6C218.6,235.1,218.7,234.8,218.3,234.6z"/>
						<path fill="#FFFFFF" d="M216.6,158.1C216.7,158.1,216.7,158.1,216.6,158.1C216.7,158,216.7,158.1,216.6,158.1z"/>
						<path fill="#FFFFFF" d="M224.7,152.8c0,0.1-0.1,0.2-0.2,0.3C224.6,153.1,224.6,153,224.7,152.8z"/>
						<path fill="#FFFFFF" d="M219.7,241.5C219.8,241.6,219.8,241.5,219.7,241.5L219.7,241.5z"/>
						<path fill="#FFFFFF" d="M218.2,242.7c-0.1,0-0.1-0.1-0.2,0C218.1,242.7,218.2,242.7,218.2,242.7z"/>
						<path fill="#FFFFFF" d="M215.3,233.2L215.3,233.2C215.2,233.3,215.3,233.3,215.3,233.2z"/>
						<path fill="#FFFFFF" d="M219.6,241.8c0-0.1,0.1-0.2,0.1-0.3C219.6,241.6,219.6,241.6,219.6,241.8z"/>
						<path fill="#FFFFFF" d="M219.8,241.7c0,0.1,0,0.1,0,0.2C219.8,241.9,219.9,241.9,219.8,241.7z"/>
						<path fill="#FFFFFF" d="M219.7,241.2c0,0.1,0,0.2,0,0.3c0,0,0-0.1,0.1-0.1C219.7,241.4,219.7,241.3,219.7,241.2z"/>
						<path fill="#FFFFFF" d="M212.1,173.5C212.1,173.5,212.1,173.5,212.1,173.5C212,173.2,212,173.3,212.1,173.5z"/>
						<path fill="#FFFFFF" d="M210.8,219.2C210.8,219.2,210.8,219.2,210.8,219.2L210.8,219.2L210.8,219.2z"/>
						<path fill="#FFFFFF" d="M210.4,218.5c0.6,0.2,0.5,0.4,0.5,0.6l1.2-0.4L210.4,218.5z"/>
						<path fill="#FFFFFF" d="M208.3,191.6l-0.4,0.5c-0.6-0.6-0.4-1.1-1-0.6c1.4,0.1,0.1,1.9,1.5,2l-0.3,0.3c0-0.1-0.1-0.1,0-0.2
							c-0.7,0.6,1,0.5,0.8,1.3c-0.1,0.3-0.3,0.5-0.5,0.3l0.3,0.6c0,0.2-0.3,0.1-0.2,0l0.1,1l0,0c0.2,0.1,0.6,0.4,0.7,0.6
							c-0.2,0.2-0.1-0.1-0.3-0.1l0.3,0.5c-0.3,0.2-0.7-0.2-0.7-0.6c-1.3,0.5,0.4,0.4-0.4,1.5l-0.2-0.5c-0.8,0.3-0.5,0.7-0.9,1.3
							c0.2-0.1,1.2-1.2,1.5-0.6c-0.1,0.2-0.1,0.4,0.1,0.7c-0.5,0-0.4,0.3-0.3,0.7l-0.6,0c0.2,0.4,0.5,0.4,0.8,0.6
							c0,0.5-0.5,0.6-0.9,0.7c-0.1,0.7,0.8-0.5,0.9,0.3c-0.2,0.6,0.1,1,0.5,1.7c-0.2,0.4-0.4,0-0.6,0.1l0.5,0.3
							c0,0.1-0.2,0.1-0.2,0.1c0.2,0.3,0.6,0,0.8,0.5c0.7,0.1-1,1.1-0.1,1.7c-0.2,0.2-0.4,0-0.6,0c0.6,0.8,0.5,0.7,1.2,1.3l-0.4,0.6
							c0.4-0.5,1.1,0,1.6,0.4c0.2-0.2,0.4-0.3,0.5-0.4l0.4,0.7c-0.1,0.1-0.3,0.1-0.6,0c0.1,0,0.1,0.1,0.2,0.1c-0.2,0.3-0.6,0.2-1,0
							c0.1-0.1,0.2-0.2,0.4-0.3c-0.4-0.1-0.9-0.3-1.2-0.2c0.1,0,0.2,0.1,0.2,0.2c-0.1,0-0.2-0.1-0.3,0c-0.1,0,0.1,0.1,0.3,0.2
							l-0.7,0.3l0.3,0l-0.3,1.1c0.8,0.6,1.9,1.1,2.4,2.2c-0.6-0.2-0.9,0-1.5,0.1c0.6-0.4-0.4-0.8-0.3-1.5c0,0.3-0.3,0.3-0.4,0.2
							l0.7,1c-0.5,0-0.3,0.3-0.5,0.6c1-0.3,0.8,0.7,1.1,1.1c-0.3,0.1-0.7,0-0.7-0.5c-0.7,0.7,1.3,0.6,0.7,1.2c0-0.1,0-0.2-0.2-0.2
							c0.3,0.3,0.2,1-0.1,0.9l0-0.1c0,0.9,0.4,2.6,1.2,2.6c-0.1,0-1,0-1.2,0l3.1,1.1c-0.7,0-2.4,0.8-2.9,0.1
							c-0.1,0.2-0.2,0.5,0.2,0.9c0.1-0.2,1-0.5,1.1-0.3c-0.7,0.6-0.4,0.4-1,1.2c0.1-0.2,1.3-0.2,1.3,0.1c-0.2,0-1.1,0.2-1.2,0.1
							l1.2,0.6c-0.2-0.2-0.9,0.1-1.2,0.4c0.2-0.1,0.1,0.7,0.3,0.9l0.2-0.4c0,0.9,1.7,0.6,1.8,1.5c-0.2-0.1-1.5,0-1.5,0.5
							c0.6,0.1,2.9,0.4,3.5,1.2l-0.3,0.2l0.5,0.5c-0.9-0.2-2.9-1-3.7-1.4c-0.2,0.4-0.4,0.2-0.2,0.7c-0.3,0.2-0.5-0.2-0.6-0.3l0,1.2
							c0.7-0.2,0.8,0.8,1.4,0.6l-0.9-1.2c0.7-0.2,2,0.4,2,1.3c-0.2,0.3-1.2,0.1-1.4,0.1c0.2,0.1,0.6,0.7,0.4,0.8l-0.4-0.3
							c-0.2,0.5,1,0.6,0.5,1.3c0,0.2-0.7,0.7-0.3,0.7c0.7-0.5,3-1,3.6-0.9c0,0.1-0.5,1.1-0.9,1.4c-0.5,0.4-1.5-0.2-2,0.2
							c0.2,0,0.4,0.1,0.5,0.2c-0.1,0.2-0.6,0-0.4,0.4c0.7-0.1,0.1,0.9,0.6,0.1c0.3,0.4-0.1,0.5,0.1,1c0.4-0.2,1.6,0.2,1.8,0.6
							c-0.2,0-0.4,0.1-0.5,0.2c0.1,0.9-0.1,1.4,0,2.2c-0.1,0.1-0.3,0.5-0.6,0.4c0.1,0.1,0.4,0.2,0.5,0.4c-0.5,0.6-0.2-0.5-0.8,0
							c0.4,0,0.7,0.6,1,0.9c0.6-0.2,0-0.9-0.4-1.2c0.8-0.2,1.8,0.3,2.4,1.1c0.3,0.6-0.5,0.4-0.3,0.5c0.1,1.3,1.7,0.8,1.3,2
							c-0.4,0.5-1,0.2-1.4,0.4c-0.3-0.5,0.2-0.9,0.1-1.3l-0.2,0.5c-0.2-0.1-0.4-0.5-0.3-0.7c-0.4,0.4,0.3,2.2,0.1,3.3
							c0.2,0.1,0.5,0.4,0.6,0.2l-0.1-0.3c0.4-0.4,0.7,0.5,0.8,0c0.4,0.4,0.9,0.7,0.8,1.4l-0.6,0.2c0.2,0,0.3-0.5,0.1-0.6
							c0.3,0.2-0.6,1.1,0.2,1.2l0.3-0.5c0.4,0.4,1.1,0.8,1,1.3c0.6-0.3-0.1-0.1,0.5-0.6c-0.8,0.5-0.2-1.4-1-0.7
							c0.7-0.5,0.2-0.7,0.8-1.4c-0.2,0.1-0.3,0.2-0.3-0.2c-0.1,0-0.1,0-0.2-0.1c0,0,0,0,0,0l0,0c0,0,0,0,0,0
							c-0.1,0.1-0.2,0.2-0.3,0.3c-0.5-0.1-0.6-0.8-0.9-1c0-0.3,0.2,0.1,0.4-0.1l-0.4-0.3c0.4-0.1,0.6-0.8,1-0.3l-0.1-0.6
							c0.2-0.4,0.2-0.8,0-1.1c0-0.3-0.6-0.6-0.2-0.4l-0.4-0.8l0.1,0c-0.1-0.9-1.1-1.6-0.5-2.8c-0.2-0.3-0.4-0.5-0.3-1l0.4-0.2
							c-0.2-0.3,0.2-1.2-0.3-1.3c0.9-0.6-0.1-1.8-0.1-2.5l-0.5,0.1c-0.1-0.5-0.3-0.9-0.6-1.4l-0.4,0.1c-0.5-0.4,0.1-1.3-0.1-2
							c0.2,0,0.2,0.2,0.1,0.4c0.8-1.1-1.1-1.8-0.5-2.7c-0.2-0.2-0.2-0.3-0.1-0.5c0,0,0,0,0,0c0,0,0-0.1,0-0.1
							c0.1-0.1,0.1-0.2,0.2-0.3c-0.1,0.1-0.2,0.2-0.2,0.3c0-0.2-0.1-0.4-0.3-0.6l0.5-0.2c0,0,0,0,0-0.1c0.1-0.3-0.3-0.1-0.6,0
							c-0.1-0.1-0.2-0.2-0.3-0.3c0.7-0.3-0.4-0.6,0.4-1c-0.4-0.1-0.5-1.1-1.4-1.1c0.1,0,0.1-0.1,0.2,0c0.1-0.3,0.1-0.6-0.2-0.8
							l0.6-0.2l-0.9-0.4c0.3-0.4,0.5-0.6,1-0.3c-0.8-0.7-0.4-0.6-1.2-1.2l0.4,0c-0.1-0.3-0.6-0.6-0.3-0.8c0.6-0.7-0.3-2.8,0.2-4.4
							c-1.1,0.4,0.4-0.7-0.5-0.7c0.3-0.1,0.4-0.3,0.7-0.1c-0.4-0.7,0.3-1.2-0.5-1.6c0.3-0.1,0.4,0.1,0.6,0c-0.1-0.1-0.3-0.2-0.1-0.3
							c0.2-0.1,0.2,0.1,0.4,0.2c-0.1-0.7-1-0.7-1.8-0.7c0.3-0.4,0.3-0.6-0.3-0.8c0.2-0.2,0.5-0.4,0.6,0c0-0.3,0.2-1.7-0.4-1.6
							c0.2-0.1,0-0.4-0.1-0.4c0-0.6,0-0.7-0.1-1.2l-0.1,0.2c-0.8-0.2-0.2-0.5-0.3-0.9l0.1,0c0.5-1.1-0.3-0.5,0.3-1.6l-0.5,0.1
							c-1,0,0.5-1,0.1-1.6l-0.3,0.2c-0.4-0.3,1.3-1,1.5-1.4c0.1-0.1,0.1,0.1,0.2,0.2c0.6-0.9-0.6-0.1-0.8-0.7
							c0.3-0.1,0.9,0.1,0.9-0.3c0.3-0.2-1.1-1.3-0.5-1.9c-0.3,0.1-0.5,0.3-0.7,0c-0.1-0.5,0.9-1.3,0.1-1.7c0.1-0.1,0.1-0.1,0.2-0.1
							c-0.2-0.4-0.3-1.2-0.8-1.4c1.7-0.3-0.8-2.3,0.8-2.2l-0.1-1.1l0.2,0c0.1-0.7-0.2-1-0.5-1.2c0.1-0.2,0.2,0,0.3,0
							c0.4-1,0.3-1.1-0.4-2l0.5,0c-0.2-0.3,0.8-1.4,0.4-2.5c0.1,0,0.1,0,0.2,0.1c-0.4-1.2,1.7-2.5,0-3.2l-0.3-0.8
							c-0.3,0.9-0.8-0.3-1.1,0.1c-0.1-0.4,0.7-0.9,0.7-0.4l-0.1,0.1c0.9,0.3,0.5-1.1,1.2-1c0.3-1.9,1.2-3.6,1.7-5.3l-0.8,0l0.2-0.6
							c0.2-0.1,0.6-0.1,0.5,0.4c0.5-0.1-0.1-0.8-0.3-0.9c0.5-0.8,0.7,0.6,0.8,0.3l0-0.4l-0.1,0.1c-0.2-0.4-0.5-0.5-0.3-1
							c0.2-0.3,0.5,0,0.5-0.2c0,0,0.1,0,0.1-0.2l0.3-0.7l-0.6,0.1c-0.2-0.4,0.2-0.7-0.5-0.5c1.1-0.2,1.2-2.7,1.7-2.9
							c-0.2-0.6-0.1-1.1,0.2-1.6c-0.2,0.1-0.8,0-0.5-0.5c1.2,0.7,0.9-0.7,1.9-0.7c-0.7,0.1,0.4-1.4-0.6-1.2c0.3-0.4,0.5,0.2,0.9,0
							c-0.1-1.1,1.2-1.9,1.6-3.1c-0.1-0.1-0.5,0-0.6-0.4l1.1-0.2c0-0.3-0.8-0.7-0.1-0.8c-0.2,0-0.4,0-0.4-0.2
							c1.9-1.8,1.8-4.8,4.5-6.1c-0.5,0.1-0.4-0.1-0.2-0.3c-0.2,0.1-0.4-0.2-0.6-0.3l1.1-0.5c-0.4-0.5,0.6-1,0.1-1.4l-0.1,0.3
							c-0.4-0.8-1.7-0.4-2.5-1c0.4,0.9-1.8,0.5-1.2,1.8c-0.3,0.1-0.2-0.3-0.4-0.3c0.2,0.4,0.2,0.7-0.2,1l-0.1-0.1
							c-0.6,1.2-1.3,1.5-2.2,2.7l0.5,0.1c-0.2,0.3-0.4,0.2-0.6,0.3c0.4,0.7,0.5-0.8,1-0.1c-1.1-0.1-1.1,2-2.2,1.8
							c-0.2,0.4,0.6,0.1,0.3,0.6l-0.3,0l0.3,0.3c-0.2,0.3-0.6,0.3-0.8,0.2c0.1-0.1,0-0.2,0.1-0.3c-0.5,0.2-0.4,1.1-0.6,1.2l0.4-0.4
							c-0.4,1.4-1.4,2.7-1.4,4.2l0.2,0c0,1.1-0.5,0.7-0.8,1.8l0-0.1c0.1,0.3,0.1,0.6,0,0.9c-0.1-0.4-0.7,0.3-0.8-0.1
							c0,1.2,0.1,0.6,0.7,1.6l-0.4,0c0.2,0.3,0.4,0.4,0.3,1c-0.2-0.5-0.7,0.1-0.9-0.5c-1.1,0.8,0.2,1.9-1.1,2c0.8,0.8,0.9-0.8,1-0.4
							c0.4-0.1,0.6,0.7,0.4,1c-0.1,0.3-1.4,0.2-1.7,1.1c0-0.1,0-0.1,0-0.2c-0.4,0.3,0.1,0.8-0.4,1.1c0.5,0.4-0.2,0.5,0.6,0.8l0-0.9
							c0.1,0.5,0.8,1.2,0.2,1.9c-0.1-0.1-0.3-0.4-0.4-0.6c-0.3,0.2,0,0.5-0.3,0.6c-0.8-0.3,0.1-1-0.3-1.7c-0.4,0.2,0.3,1.1-0.5,0.6
							c1,0.6-0.4,0.9,0.3,1.7l-0.5-0.2c0,0.1,0.2,0.4,0.2,0.5l-0.5-0.5c0.4,0.6-0.7,0.9-0.5,1.4c0.2-1,0.6-0.1,1-0.4
							c0.3,1.4-1.4,0.4-1.5,1.9c0-0.2,0.4-0.7,0.6-0.3c-0.2,0.2-0.4,0.6-0.7,0.7c-0.1,1,0.5,0,0.7,0.4c-0.6,0.2,0.1,0.5,0.3,0.9
							l-0.5-0.1c-0.5,1,0.9,0.5,0.4,1.3l-0.6-0.5c0,0,0,0.1,0,0.3c0,0.1,0.1,0.3,0.1,0.3l-0.5-0.2c0.3,0.6,0.2,0.8,0,1.3
							c0.4-0.1,0.9,0.2,0.8,0.7c-0.3,0.3-0.4-0.2-0.5,0.4c-0.3-0.2-0.6-0.4-0.2-0.6c-0.2-0.1-0.3-0.2-0.4-0.2
							c-0.4,0.3-0.2,0.9-0.2,1.1c0-0.1,0.1-0.2,0.1-0.2l0.5,1.1c-0.2,0.1-0.3,0-0.5-0.1c0,0.2,0.2,0.4,0.2,0.7
							c-0.4-0.1-0.8-0.2-0.9-0.6l0.3,1c-0.2,0-0.5,0.4-0.7,0.3c-0.3,0.5,0.6,1.4,0.3,2c0.1,0,0.1,0.1,0.2,0.3
							c-0.1,0.6-0.7,1.2-0.2,2l-0.7,0.4c0.1,0.6,0.9-0.5,1.1,0.5c0.2,0.7-0.6,0.2-0.8,0.5c0.3,0.4,1.1,1,0.5,1.6
							C208.2,192,208.3,191.8,208.3,191.6z M208.6,199c-0.1-0.1-0.4-0.4-0.1-0.5C209,198.6,208.7,198.7,208.6,199z M210.5,209.9
							c-0.2-0.1-0.1-0.3,0.1-0.5C210.6,209.6,210.6,209.8,210.5,209.9z M218.9,239.5L218.9,239.5C219,239.1,219,239.2,218.9,239.5z
							 M218.9,240.1c0.1,0.1,0.1,0,0.2,0c-0.1,0-0.2-0.2-0.2-0.3C218.8,239.9,218.7,240,218.9,240.1z M215.8,172.4l-0.2,0.1
							C215.5,172.2,215.6,172.3,215.8,172.4z"/>
						<path fill="#FFFFFF" d="M209.8,208.8c0.1,0,0.2-0.1,0.3-0.1C209.9,208.6,209.8,208.6,209.8,208.8z"/>
						<path fill="#FFFFFF" d="M208.3,187C208.3,187,208.3,187,208.3,187C208.3,186.9,208.3,186.9,208.3,187L208.3,187z"/>
						<path fill="#FFFFFF" d="M213,231.1c0-0.1,0.1-0.2,0.2-0.3C213,230.8,213,230.9,213,231.1z"/>
						<path fill="#FFFFFF" d="M220.3,243.4l-0.2-0.4c0.1,0.2,0,0.3-0.1,0.4C220.1,243.4,220.3,243.3,220.3,243.4z"/>
						<path fill="#FFFFFF" d="M218,247.5c0.1,0,0,0.1,0.1,0.2l0.2-0.1C218.3,247.3,218.1,247.2,218,247.5z"/>
						<path fill="#FFFFFF" d="M218.8,244c-0.4,0.1-0.2,0.3-0.1,0.6c0,0,0,0,0-0.1C219.3,244.6,219,244.3,218.8,244z"/>
						<path fill="#FFFFFF" d="M218.7,244.7c0,0.1,0.1,0.2,0.1,0.3C219,245,218.8,244.9,218.7,244.7z"/>
						<path fill="#FFFFFF" d="M219.3,240.9c-0.1,0.2,0.5,0,0.4,0.1C220.2,241.1,218.9,240.2,219.3,240.9z"/>
						<polygon fill="#FFFFFF" points="217.5,244.5 218,244.3 217.6,244.2 						"/>
						<path fill="#FFFFFF" d="M217.5,242.2l-0.1,0.5c0.1,0,0.1,0,0.2,0.1C217.6,242.5,217.6,242.2,217.5,242.2z"/>
						<path fill="#FFFFFF" d="M217.6,242.8c0,0.1,0.1,0.3,0.1,0.4C217.7,243,217.7,242.9,217.6,242.8z"/>
						<polygon fill="#FFFFFF" points="217.3,243.9 217.3,243.8 217.3,243.4 						"/>
						<path fill="#FFFFFF" d="M216.6,237.3l-0.2-0.5c-0.2,0-0.3,0.1-0.2,0.3C216.4,237.2,216.5,237.4,216.6,237.3z"/>
						<path fill="#FFFFFF" d="M215.6,239c0.1-0.2,0.2-0.2,0.3-0.3l-0.6,0.1L215.6,239z"/>
						<path fill="#FFFFFF" d="M215.2,237.6c-0.2,0-0.6-0.6-0.5,0C214.9,237.6,215.1,238.1,215.2,237.6z"/>
						<polygon fill="#FFFFFF" points="214.5,230 214.5,230.1 215.5,229.9 						"/>
						<path fill="#FFFFFF" d="M210.9,223.8c-0.1,0.6,0.6,0,0.4,0.6c0.3,0.1,0.2-0.5,0.4-0.4C211.4,223.7,211.5,223.5,210.9,223.8z"
							/>
						<path fill="#FFFFFF" d="M211.7,224c0,0.1,0.1,0.1,0.2,0.2C211.8,224.1,211.8,224.1,211.7,224z"/>
						<polygon fill="#FFFFFF" points="225.9,152 226.3,151.8 225.8,151.8 						"/>
						<path fill="#FFFFFF" d="M225.6,151l0.6,0.3l-0.4-0.5C225.9,150.8,225.8,151,225.6,151z"/>
						<path fill="#FFFFFF" d="M207.3,200.1l0.2,0c0.2-0.1,0.2-0.2,0.2-0.3L207.3,200.1z"/>
						<polygon fill="#FFFFFF" points="207.7,194.7 207.7,194.8 208.3,194.6 						"/>
						<path fill="#FFFFFF" d="M207.1,190.2c0,0.2,0.1,0.4,0,0.6C207,190.3,207.8,190.1,207.1,190.2z"/>
					</g>
				</g>
			</g>
		</g>
	</g>
</g>
</svg>
